<ttFont>
    <TTGlyph name="A" xMin="25" yMin="0" xMax="569" yMax="695">
      <contour>
        <pt x="25" y="0" on="1"/>
        <pt x="225" y="695" on="1"/>
        <pt x="370" y="695" on="1"/>
        <pt x="569" y="0" on="1"/>
        <pt x="508" y="0" on="1"/>
        <pt x="452" y="192" on="1"/>
        <pt x="142" y="192" on="1"/>
        <pt x="87" y="0" on="1"/>
      </contour>
      <contour>
        <pt x="270" y="641" on="1"/>
        <pt x="157" y="247" on="1"/>
        <pt x="437" y="247" on="1"/>
        <pt x="324" y="641" on="1"/>
      </contour>
    </TTGlyph>
    <TTGlyph name="AE" xMin="22" yMin="0" xMax="828" yMax="697">
      <contour>
        <pt x="412" y="0" on="1"/>
        <pt x="412" y="190" on="1"/>
        <pt x="152" y="190" on="1"/>
        <pt x="86" y="0" on="1"/>
        <pt x="22" y="0" on="1"/>
        <pt x="256" y="697" on="1"/>
        <pt x="828" y="697" on="1"/>
        <pt x="828" y="639" on="1"/>
        <pt x="473" y="639" on="1"/>
        <pt x="473" y="387" on="1"/>
        <pt x="768" y="387" on="1"/>
        <pt x="768" y="329" on="1"/>
        <pt x="473" y="329" on="1"/>
        <pt x="473" y="58" on="1"/>
        <pt x="828" y="58" on="1"/>
        <pt x="828" y="0" on="1"/>
      </contour>
      <contour>
        <pt x="412" y="249" on="1"/>
        <pt x="412" y="639" on="1"/>
        <pt x="301" y="639" on="1"/>
        <pt x="169" y="249" on="1"/>
      </contour>
    </TTGlyph>
    <TTGlyph name="AEacute" xMin="22" yMin="0" xMax="828" yMax="928">
      <contour>
        <pt x="412" y="0" on="1"/>
        <pt x="412" y="190" on="1"/>
        <pt x="152" y="190" on="1"/>
        <pt x="86" y="0" on="1"/>
        <pt x="22" y="0" on="1"/>
        <pt x="256" y="697" on="1"/>
        <pt x="828" y="697" on="1"/>
        <pt x="828" y="639" on="1"/>
        <pt x="473" y="639" on="1"/>
        <pt x="473" y="387" on="1"/>
        <pt x="768" y="387" on="1"/>
        <pt x="768" y="329" on="1"/>
        <pt x="473" y="329" on="1"/>
        <pt x="473" y="58" on="1"/>
        <pt x="828" y="58" on="1"/>
        <pt x="828" y="0" on="1"/>
      </contour>
      <contour>
        <pt x="412" y="249" on="1"/>
        <pt x="412" y="639" on="1"/>
        <pt x="301" y="639" on="1"/>
        <pt x="169" y="249" on="1"/>
      </contour>
      <contour>
        <pt x="425" y="829" on="1"/>
        <pt x="632" y="928" on="1"/>
        <pt x="654" y="874" on="1"/>
        <pt x="445" y="786" on="1"/>
      </contour>
    </TTGlyph>
    <TTGlyph name="Aacute" xMin="25" yMin="0" xMax="569" yMax="928">
      <contour>
        <pt x="25" y="0" on="1"/>
        <pt x="225" y="695" on="1"/>
        <pt x="370" y="695" on="1"/>
        <pt x="569" y="0" on="1"/>
        <pt x="508" y="0" on="1"/>
        <pt x="452" y="192" on="1"/>
        <pt x="142" y="192" on="1"/>
        <pt x="87" y="0" on="1"/>
      </contour>
      <contour>
        <pt x="270" y="641" on="1"/>
        <pt x="157" y="247" on="1"/>
        <pt x="437" y="247" on="1"/>
        <pt x="324" y="641" on="1"/>
      </contour>
      <contour>
        <pt x="192" y="829" on="1"/>
        <pt x="399" y="928" on="1"/>
        <pt x="421" y="874" on="1"/>
        <pt x="212" y="786" on="1"/>
      </contour>
    </TTGlyph>
    <TTGlyph name="Abreve" xMin="25" yMin="0" xMax="569" yMax="920">
      <contour>
        <pt x="25" y="0" on="1"/>
        <pt x="225" y="695" on="1"/>
        <pt x="370" y="695" on="1"/>
        <pt x="569" y="0" on="1"/>
        <pt x="508" y="0" on="1"/>
        <pt x="452" y="192" on="1"/>
        <pt x="142" y="192" on="1"/>
        <pt x="87" y="0" on="1"/>
      </contour>
      <contour>
        <pt x="270" y="641" on="1"/>
        <pt x="157" y="247" on="1"/>
        <pt x="437" y="247" on="1"/>
        <pt x="324" y="641" on="1"/>
      </contour>
      <contour>
        <pt x="256" y="841" on="0"/>
        <pt x="334" y="841" on="0"/>
        <pt x="388" y="884" on="0"/>
        <pt x="389" y="920" on="1"/>
        <pt x="445" y="920" on="1"/>
        <pt x="444" y="863" on="0"/>
        <pt x="360" y="793" on="0"/>
        <pt x="230" y="793" on="0"/>
        <pt x="147" y="863" on="0"/>
        <pt x="145" y="920" on="1"/>
        <pt x="202" y="920" on="1"/>
        <pt x="203" y="884" on="0"/>
      </contour>
    </TTGlyph>
    <TTGlyph name="Acircumflex" xMin="25" yMin="0" xMax="569" yMax="929">
      <contour>
        <pt x="25" y="0" on="1"/>
        <pt x="225" y="695" on="1"/>
        <pt x="370" y="695" on="1"/>
        <pt x="569" y="0" on="1"/>
        <pt x="508" y="0" on="1"/>
        <pt x="452" y="192" on="1"/>
        <pt x="142" y="192" on="1"/>
        <pt x="87" y="0" on="1"/>
      </contour>
      <contour>
        <pt x="270" y="641" on="1"/>
        <pt x="157" y="247" on="1"/>
        <pt x="437" y="247" on="1"/>
        <pt x="324" y="641" on="1"/>
      </contour>
      <contour>
        <pt x="136" y="798" on="1"/>
        <pt x="270" y="929" on="1"/>
        <pt x="322" y="929" on="1"/>
        <pt x="456" y="798" on="1"/>
        <pt x="387" y="798" on="1"/>
        <pt x="297" y="884" on="1"/>
        <pt x="206" y="798" on="1"/>
      </contour>
    </TTGlyph>
    <TTGlyph name="Adieresis" xMin="25" yMin="0" xMax="569" yMax="899">
      <contour>
        <pt x="25" y="0" on="1"/>
        <pt x="225" y="695" on="1"/>
        <pt x="370" y="695" on="1"/>
        <pt x="569" y="0" on="1"/>
        <pt x="508" y="0" on="1"/>
        <pt x="452" y="192" on="1"/>
        <pt x="142" y="192" on="1"/>
        <pt x="87" y="0" on="1"/>
      </contour>
      <contour>
        <pt x="270" y="641" on="1"/>
        <pt x="157" y="247" on="1"/>
        <pt x="437" y="247" on="1"/>
        <pt x="324" y="641" on="1"/>
      </contour>
      <contour>
        <pt x="167" y="819" on="1"/>
        <pt x="167" y="899" on="1"/>
        <pt x="226" y="899" on="1"/>
        <pt x="226" y="819" on="1"/>
      </contour>
      <contour>
        <pt x="368" y="819" on="1"/>
        <pt x="368" y="899" on="1"/>
        <pt x="426" y="899" on="1"/>
        <pt x="426" y="819" on="1"/>
      </contour>
    </TTGlyph>
    <TTGlyph name="Agrave" xMin="25" yMin="0" xMax="569" yMax="928">
      <contour>
        <pt x="25" y="0" on="1"/>
        <pt x="225" y="695" on="1"/>
        <pt x="370" y="695" on="1"/>
        <pt x="569" y="0" on="1"/>
        <pt x="508" y="0" on="1"/>
        <pt x="452" y="192" on="1"/>
        <pt x="142" y="192" on="1"/>
        <pt x="87" y="0" on="1"/>
      </contour>
      <contour>
        <pt x="270" y="641" on="1"/>
        <pt x="157" y="247" on="1"/>
        <pt x="437" y="247" on="1"/>
        <pt x="324" y="641" on="1"/>
      </contour>
      <contour>
        <pt x="190" y="928" on="1"/>
        <pt x="397" y="829" on="1"/>
        <pt x="377" y="786" on="1"/>
        <pt x="168" y="874" on="1"/>
      </contour>
    </TTGlyph>
    <TTGlyph name="Amacron" xMin="25" yMin="0" xMax="569" yMax="868">
      <contour>
        <pt x="25" y="0" on="1"/>
        <pt x="225" y="695" on="1"/>
        <pt x="370" y="695" on="1"/>
        <pt x="569" y="0" on="1"/>
        <pt x="508" y="0" on="1"/>
        <pt x="452" y="192" on="1"/>
        <pt x="142" y="192" on="1"/>
        <pt x="87" y="0" on="1"/>
      </contour>
      <contour>
        <pt x="270" y="641" on="1"/>
        <pt x="157" y="247" on="1"/>
        <pt x="437" y="247" on="1"/>
        <pt x="324" y="641" on="1"/>
      </contour>
      <contour>
        <pt x="146" y="819" on="1"/>
        <pt x="146" y="868" on="1"/>
        <pt x="448" y="868" on="1"/>
        <pt x="448" y="819" on="1"/>
      </contour>
    </TTGlyph>
    <TTGlyph name="Aogonek" xMin="25" yMin="-204" xMax="590" yMax="695">
      <contour>
        <pt x="489" y="-93" on="0"/>
        <pt x="489" y="-127" on="0"/>
        <pt x="513" y="-153" on="0"/>
        <pt x="532" y="-153" on="1"/>
        <pt x="584" y="-147" on="1"/>
        <pt x="590" y="-195" on="1"/>
        <pt x="549" y="-204" on="0"/>
        <pt x="479" y="-204" on="0"/>
        <pt x="430" y="-158" on="0"/>
        <pt x="430" y="-89" on="0"/>
        <pt x="484" y="-17" on="0"/>
        <pt x="507" y="3" on="1"/>
        <pt x="452" y="192" on="1"/>
        <pt x="142" y="192" on="1"/>
        <pt x="87" y="0" on="1"/>
        <pt x="25" y="0" on="1"/>
        <pt x="225" y="695" on="1"/>
        <pt x="370" y="695" on="1"/>
        <pt x="569" y="0" on="1"/>
        <pt x="563" y="0" on="1"/>
        <pt x="531" y="-32" on="0"/>
      </contour>
      <contour>
        <pt x="270" y="641" on="1"/>
        <pt x="157" y="247" on="1"/>
        <pt x="437" y="247" on="1"/>
        <pt x="324" y="641" on="1"/>
      </contour>
    </TTGlyph>
    <TTGlyph name="Aring" xMin="25" yMin="0" xMax="569" yMax="850">
      <contour>
        <pt x="344" y="850" on="0"/>
        <pt x="405" y="796" on="0"/>
        <pt x="405" y="703" on="0"/>
        <pt x="375" y="676" on="1"/>
        <pt x="569" y="0" on="1"/>
        <pt x="508" y="0" on="1"/>
        <pt x="452" y="192" on="1"/>
        <pt x="142" y="192" on="1"/>
        <pt x="87" y="0" on="1"/>
        <pt x="25" y="0" on="1"/>
        <pt x="218" y="673" on="1"/>
        <pt x="185" y="700" on="0"/>
        <pt x="185" y="796" on="0"/>
        <pt x="246" y="850" on="0"/>
      </contour>
      <contour>
        <pt x="270" y="641" on="1"/>
        <pt x="157" y="247" on="1"/>
        <pt x="437" y="247" on="1"/>
        <pt x="324" y="641" on="1"/>
      </contour>
      <contour>
        <pt x="232" y="750" on="1"/>
        <pt x="232" y="703" on="0"/>
        <pt x="276" y="695" on="1"/>
        <pt x="314" y="695" on="1"/>
        <pt x="358" y="703" on="0"/>
        <pt x="358" y="750" on="1"/>
        <pt x="358" y="777" on="0"/>
        <pt x="325" y="806" on="0"/>
        <pt x="265" y="806" on="0"/>
        <pt x="232" y="777" on="0"/>
      </contour>
    </TTGlyph>
    <TTGlyph name="Aringacute" xMin="25" yMin="0" xMax="569" yMax="1020">
      <contour>
        <pt x="346" y="852" on="0"/>
        <pt x="407" y="798" on="0"/>
        <pt x="407" y="704" on="0"/>
        <pt x="375" y="677" on="1"/>
        <pt x="569" y="0" on="1"/>
        <pt x="508" y="0" on="1"/>
        <pt x="452" y="192" on="1"/>
        <pt x="142" y="192" on="1"/>
        <pt x="87" y="0" on="1"/>
        <pt x="25" y="0" on="1"/>
        <pt x="219" y="676" on="1"/>
        <pt x="187" y="703" on="0"/>
        <pt x="187" y="798" on="0"/>
        <pt x="248" y="852" on="0"/>
      </contour>
      <contour>
        <pt x="270" y="641" on="1"/>
        <pt x="157" y="247" on="1"/>
        <pt x="437" y="247" on="1"/>
        <pt x="324" y="641" on="1"/>
      </contour>
      <contour>
        <pt x="178" y="921" on="1"/>
        <pt x="385" y="1020" on="1"/>
        <pt x="407" y="966" on="1"/>
        <pt x="198" y="878" on="1"/>
      </contour>
      <contour>
        <pt x="234" y="779" on="0"/>
        <pt x="234" y="725" on="0"/>
        <pt x="267" y="695" on="0"/>
        <pt x="327" y="695" on="0"/>
        <pt x="360" y="725" on="0"/>
        <pt x="360" y="779" on="0"/>
        <pt x="327" y="808" on="0"/>
        <pt x="267" y="808" on="0"/>
      </contour>
    </TTGlyph>
    <TTGlyph name="Atilde" xMin="25" yMin="0" xMax="569" yMax="923">
      <contour>
        <pt x="25" y="0" on="1"/>
        <pt x="225" y="695" on="1"/>
        <pt x="370" y="695" on="1"/>
        <pt x="569" y="0" on="1"/>
        <pt x="508" y="0" on="1"/>
        <pt x="452" y="192" on="1"/>
        <pt x="142" y="192" on="1"/>
        <pt x="87" y="0" on="1"/>
      </contour>
      <contour>
        <pt x="270" y="641" on="1"/>
        <pt x="157" y="247" on="1"/>
        <pt x="437" y="247" on="1"/>
        <pt x="324" y="641" on="1"/>
      </contour>
      <contour>
        <pt x="373" y="814" on="1"/>
        <pt x="353" y="814" on="0"/>
        <pt x="230" y="871" on="0"/>
        <pt x="218" y="871" on="1"/>
        <pt x="195" y="871" on="0"/>
        <pt x="158" y="834" on="1"/>
        <pt x="145" y="821" on="1"/>
        <pt x="130" y="867" on="1"/>
        <pt x="177" y="923" on="0"/>
        <pt x="215" y="923" on="1"/>
        <pt x="241" y="923" on="0"/>
        <pt x="362" y="868" on="0"/>
        <pt x="374" y="868" on="1"/>
        <pt x="393" y="868" on="0"/>
        <pt x="429" y="902" on="1"/>
        <pt x="441" y="914" on="1"/>
        <pt x="456" y="869" on="1"/>
        <pt x="410" y="814" on="0"/>
      </contour>
    </TTGlyph>
    <TTGlyph name="B" xMin="87" yMin="0" xMax="562" yMax="695">
      <contour>
        <pt x="87" y="695" on="1"/>
        <pt x="334" y="695" on="1"/>
        <pt x="539" y="695" on="0"/>
        <pt x="539" y="520" on="1"/>
        <pt x="539" y="397" on="0"/>
        <pt x="447" y="358" on="1"/>
        <pt x="562" y="322" on="0"/>
        <pt x="562" y="193" on="1"/>
        <pt x="562" y="88" on="0"/>
        <pt x="453" y="0" on="0"/>
        <pt x="349" y="0" on="1"/>
        <pt x="87" y="0" on="1"/>
      </contour>
      <contour>
        <pt x="342" y="327" on="1"/>
        <pt x="149" y="327" on="1"/>
        <pt x="149" y="55" on="1"/>
        <pt x="348" y="55" on="1"/>
        <pt x="421" y="55" on="0"/>
        <pt x="499" y="117" on="0"/>
        <pt x="499" y="195" on="1"/>
        <pt x="499" y="327" on="0"/>
      </contour>
      <contour>
        <pt x="332" y="640" on="1"/>
        <pt x="149" y="640" on="1"/>
        <pt x="149" y="381" on="1"/>
        <pt x="341" y="381" on="1"/>
        <pt x="411" y="381" on="0"/>
        <pt x="476" y="448" on="0"/>
        <pt x="476" y="580" on="0"/>
        <pt x="405" y="640" on="0"/>
      </contour>
    </TTGlyph>
    <TTGlyph name="C" xMin="62" yMin="-10" xMax="502" yMax="705">
      <contour>
        <pt x="502" y="11" on="1"/>
        <pt x="399" y="-10" on="0"/>
        <pt x="253" y="-10" on="0"/>
        <pt x="164" y="21" on="0"/>
        <pt x="108" y="77" on="0"/>
        <pt x="92" y="122" on="1"/>
        <pt x="62" y="204" on="0"/>
        <pt x="62" y="345" on="1"/>
        <pt x="62" y="571" on="0"/>
        <pt x="134" y="644" on="1"/>
        <pt x="193" y="705" on="0"/>
        <pt x="314" y="705" on="1"/>
        <pt x="397" y="705" on="0"/>
        <pt x="502" y="684" on="1"/>
        <pt x="499" y="630" on="1"/>
        <pt x="395" y="649" on="0"/>
        <pt x="269" y="649" on="0"/>
        <pt x="200" y="622" on="0"/>
        <pt x="157" y="577" on="0"/>
        <pt x="146" y="537" on="1"/>
        <pt x="126" y="469" on="0"/>
        <pt x="126" y="265" on="0"/>
        <pt x="140" y="164" on="0"/>
        <pt x="180" y="82" on="0"/>
        <pt x="258" y="46" on="0"/>
        <pt x="396" y="46" on="0"/>
        <pt x="499" y="65" on="1"/>
      </contour>
    </TTGlyph>
    <TTGlyph name="Cacute" xMin="62" yMin="-10" xMax="502" yMax="928">
      <contour>
        <pt x="502" y="11" on="1"/>
        <pt x="399" y="-10" on="0"/>
        <pt x="253" y="-10" on="0"/>
        <pt x="164" y="21" on="0"/>
        <pt x="108" y="77" on="0"/>
        <pt x="92" y="122" on="1"/>
        <pt x="62" y="204" on="0"/>
        <pt x="62" y="345" on="1"/>
        <pt x="62" y="571" on="0"/>
        <pt x="134" y="644" on="1"/>
        <pt x="193" y="705" on="0"/>
        <pt x="314" y="705" on="1"/>
        <pt x="397" y="705" on="0"/>
        <pt x="502" y="684" on="1"/>
        <pt x="499" y="630" on="1"/>
        <pt x="395" y="649" on="0"/>
        <pt x="269" y="649" on="0"/>
        <pt x="200" y="622" on="0"/>
        <pt x="157" y="577" on="0"/>
        <pt x="146" y="537" on="1"/>
        <pt x="126" y="469" on="0"/>
        <pt x="126" y="265" on="0"/>
        <pt x="140" y="164" on="0"/>
        <pt x="180" y="82" on="0"/>
        <pt x="258" y="46" on="0"/>
        <pt x="396" y="46" on="0"/>
        <pt x="499" y="65" on="1"/>
      </contour>
      <contour>
        <pt x="190" y="829" on="1"/>
        <pt x="397" y="928" on="1"/>
        <pt x="419" y="874" on="1"/>
        <pt x="210" y="786" on="1"/>
      </contour>
    </TTGlyph>
    <TTGlyph name="Ccaron" xMin="62" yMin="-10" xMax="502" yMax="929">
      <contour>
        <pt x="502" y="11" on="1"/>
        <pt x="399" y="-10" on="0"/>
        <pt x="253" y="-10" on="0"/>
        <pt x="164" y="21" on="0"/>
        <pt x="108" y="77" on="0"/>
        <pt x="92" y="122" on="1"/>
        <pt x="62" y="204" on="0"/>
        <pt x="62" y="345" on="1"/>
        <pt x="62" y="571" on="0"/>
        <pt x="134" y="644" on="1"/>
        <pt x="193" y="705" on="0"/>
        <pt x="314" y="705" on="1"/>
        <pt x="397" y="705" on="0"/>
        <pt x="502" y="684" on="1"/>
        <pt x="499" y="630" on="1"/>
        <pt x="395" y="649" on="0"/>
        <pt x="269" y="649" on="0"/>
        <pt x="200" y="622" on="0"/>
        <pt x="157" y="577" on="0"/>
        <pt x="146" y="537" on="1"/>
        <pt x="126" y="469" on="0"/>
        <pt x="126" y="265" on="0"/>
        <pt x="140" y="164" on="0"/>
        <pt x="180" y="82" on="0"/>
        <pt x="258" y="46" on="0"/>
        <pt x="396" y="46" on="0"/>
        <pt x="499" y="65" on="1"/>
      </contour>
      <contour>
        <pt x="276" y="798" on="1"/>
        <pt x="142" y="929" on="1"/>
        <pt x="211" y="929" on="1"/>
        <pt x="302" y="843" on="1"/>
        <pt x="392" y="929" on="1"/>
        <pt x="462" y="929" on="1"/>
        <pt x="328" y="798" on="1"/>
      </contour>
    </TTGlyph>
    <TTGlyph name="Ccedilla" xMin="62" yMin="-211" xMax="502" yMax="705">
      <contour>
        <pt x="432" y="-127" on="1"/>
        <pt x="432" y="-211" on="0"/>
        <pt x="343" y="-211" on="1"/>
        <pt x="259" y="-205" on="1"/>
        <pt x="261" y="-165" on="1"/>
        <pt x="302" y="-168" on="0"/>
        <pt x="332" y="-168" on="1"/>
        <pt x="377" y="-168" on="0"/>
        <pt x="377" y="-127" on="1"/>
        <pt x="377" y="-90" on="0"/>
        <pt x="332" y="-90" on="1"/>
        <pt x="285" y="-90" on="1"/>
        <pt x="285" y="-9" on="1"/>
        <pt x="152" y="-1" on="0"/>
        <pt x="105" y="93" on="1"/>
        <pt x="81" y="141" on="0"/>
        <pt x="62" y="259" on="0"/>
        <pt x="62" y="418" on="0"/>
        <pt x="74" y="523" on="0"/>
        <pt x="106" y="616" on="0"/>
        <pt x="134" y="644" on="1"/>
        <pt x="193" y="705" on="0"/>
        <pt x="314" y="705" on="1"/>
        <pt x="397" y="705" on="0"/>
        <pt x="502" y="684" on="1"/>
        <pt x="499" y="630" on="1"/>
        <pt x="395" y="649" on="0"/>
        <pt x="269" y="649" on="0"/>
        <pt x="200" y="622" on="0"/>
        <pt x="157" y="577" on="0"/>
        <pt x="146" y="537" on="1"/>
        <pt x="126" y="469" on="0"/>
        <pt x="126" y="265" on="0"/>
        <pt x="140" y="164" on="0"/>
        <pt x="180" y="82" on="0"/>
        <pt x="258" y="46" on="0"/>
        <pt x="396" y="46" on="0"/>
        <pt x="499" y="65" on="1"/>
        <pt x="502" y="11" on="1"/>
        <pt x="410" y="-9" on="0"/>
        <pt x="323" y="-10" on="1"/>
        <pt x="323" y="-52" on="1"/>
        <pt x="381" y="-52" on="0"/>
        <pt x="432" y="-83" on="0"/>
      </contour>
    </TTGlyph>
    <TTGlyph name="Ccircumflex" xMin="62" yMin="-10" xMax="502" yMax="929">
      <contour>
        <pt x="502" y="11" on="1"/>
        <pt x="399" y="-10" on="0"/>
        <pt x="253" y="-10" on="0"/>
        <pt x="164" y="21" on="0"/>
        <pt x="108" y="77" on="0"/>
        <pt x="92" y="122" on="1"/>
        <pt x="62" y="204" on="0"/>
        <pt x="62" y="345" on="1"/>
        <pt x="62" y="571" on="0"/>
        <pt x="134" y="644" on="1"/>
        <pt x="193" y="705" on="0"/>
        <pt x="314" y="705" on="1"/>
        <pt x="397" y="705" on="0"/>
        <pt x="502" y="684" on="1"/>
        <pt x="499" y="630" on="1"/>
        <pt x="395" y="649" on="0"/>
        <pt x="269" y="649" on="0"/>
        <pt x="200" y="622" on="0"/>
        <pt x="157" y="577" on="0"/>
        <pt x="146" y="537" on="1"/>
        <pt x="126" y="469" on="0"/>
        <pt x="126" y="265" on="0"/>
        <pt x="140" y="164" on="0"/>
        <pt x="180" y="82" on="0"/>
        <pt x="258" y="46" on="0"/>
        <pt x="396" y="46" on="0"/>
        <pt x="499" y="65" on="1"/>
      </contour>
      <contour>
        <pt x="153" y="798" on="1"/>
        <pt x="287" y="929" on="1"/>
        <pt x="339" y="929" on="1"/>
        <pt x="473" y="798" on="1"/>
        <pt x="404" y="798" on="1"/>
        <pt x="314" y="884" on="1"/>
        <pt x="223" y="798" on="1"/>
      </contour>
    </TTGlyph>
    <TTGlyph name="Cdotaccent" xMin="62" yMin="-10" xMax="502" yMax="882">
      <contour>
        <pt x="502" y="11" on="1"/>
        <pt x="399" y="-10" on="0"/>
        <pt x="253" y="-10" on="0"/>
        <pt x="164" y="21" on="0"/>
        <pt x="108" y="77" on="0"/>
        <pt x="92" y="122" on="1"/>
        <pt x="62" y="204" on="0"/>
        <pt x="62" y="345" on="1"/>
        <pt x="62" y="571" on="0"/>
        <pt x="134" y="644" on="1"/>
        <pt x="193" y="705" on="0"/>
        <pt x="314" y="705" on="1"/>
        <pt x="397" y="705" on="0"/>
        <pt x="502" y="684" on="1"/>
        <pt x="499" y="630" on="1"/>
        <pt x="395" y="649" on="0"/>
        <pt x="269" y="649" on="0"/>
        <pt x="200" y="622" on="0"/>
        <pt x="157" y="577" on="0"/>
        <pt x="146" y="537" on="1"/>
        <pt x="126" y="469" on="0"/>
        <pt x="126" y="265" on="0"/>
        <pt x="140" y="164" on="0"/>
        <pt x="180" y="82" on="0"/>
        <pt x="258" y="46" on="0"/>
        <pt x="396" y="46" on="0"/>
        <pt x="499" y="65" on="1"/>
      </contour>
      <contour>
        <pt x="264" y="807" on="1"/>
        <pt x="264" y="882" on="1"/>
        <pt x="324" y="882" on="1"/>
        <pt x="324" y="807" on="1"/>
      </contour>
    </TTGlyph>
    <TTGlyph name="D" xMin="87" yMin="0" xMax="587" yMax="695">
      <contour>
        <pt x="340" y="0" on="1"/>
        <pt x="87" y="0" on="1"/>
        <pt x="87" y="695" on="1"/>
        <pt x="340" y="695" on="1"/>
        <pt x="587" y="695" on="0"/>
        <pt x="587" y="357" on="1"/>
        <pt x="587" y="0" on="0"/>
      </contour>
      <contour>
        <pt x="523" y="357" on="1"/>
        <pt x="523" y="639" on="0"/>
        <pt x="340" y="639" on="1"/>
        <pt x="149" y="639" on="1"/>
        <pt x="149" y="55" on="1"/>
        <pt x="340" y="55" on="1"/>
        <pt x="523" y="55" on="0"/>
      </contour>
    </TTGlyph>
    <TTGlyph name="Dcaron" xMin="87" yMin="0" xMax="587" yMax="929">
      <contour>
        <pt x="340" y="0" on="1"/>
        <pt x="87" y="0" on="1"/>
        <pt x="87" y="695" on="1"/>
        <pt x="340" y="695" on="1"/>
        <pt x="587" y="695" on="0"/>
        <pt x="587" y="357" on="1"/>
        <pt x="587" y="0" on="0"/>
      </contour>
      <contour>
        <pt x="523" y="357" on="1"/>
        <pt x="523" y="639" on="0"/>
        <pt x="340" y="639" on="1"/>
        <pt x="149" y="639" on="1"/>
        <pt x="149" y="55" on="1"/>
        <pt x="340" y="55" on="1"/>
        <pt x="523" y="55" on="0"/>
      </contour>
      <contour>
        <pt x="266" y="798" on="1"/>
        <pt x="132" y="929" on="1"/>
        <pt x="201" y="929" on="1"/>
        <pt x="292" y="843" on="1"/>
        <pt x="382" y="929" on="1"/>
        <pt x="452" y="929" on="1"/>
        <pt x="318" y="798" on="1"/>
      </contour>
    </TTGlyph>
    <TTGlyph name="Dcroat" xMin="19" yMin="0" xMax="590" yMax="697">
      <contour>
        <pt x="19" y="320" on="1"/>
        <pt x="19" y="378" on="1"/>
        <pt x="90" y="378" on="1"/>
        <pt x="90" y="697" on="1"/>
        <pt x="342" y="697" on="1"/>
        <pt x="590" y="697" on="0"/>
        <pt x="590" y="359" on="1"/>
        <pt x="590" y="0" on="0"/>
        <pt x="342" y="0" on="1"/>
        <pt x="90" y="0" on="1"/>
        <pt x="90" y="320" on="1"/>
      </contour>
      <contour>
        <pt x="526" y="359" on="1"/>
        <pt x="526" y="639" on="0"/>
        <pt x="342" y="639" on="1"/>
        <pt x="151" y="639" on="1"/>
        <pt x="151" y="378" on="1"/>
        <pt x="316" y="378" on="1"/>
        <pt x="316" y="320" on="1"/>
        <pt x="151" y="320" on="1"/>
        <pt x="151" y="58" on="1"/>
        <pt x="342" y="58" on="1"/>
        <pt x="394" y="58" on="0"/>
        <pt x="469" y="109" on="0"/>
        <pt x="489" y="154" on="1"/>
        <pt x="526" y="237" on="0"/>
      </contour>
    </TTGlyph>
    <TTGlyph name="Delta" xMin="55" yMin="0" xMax="504" yMax="660">
      <contour>
        <pt x="55" y="0" on="1"/>
        <pt x="55" y="45" on="1"/>
        <pt x="223" y="660" on="1"/>
        <pt x="336" y="660" on="1"/>
        <pt x="503" y="45" on="1"/>
        <pt x="504" y="0" on="1"/>
      </contour>
      <contour>
        <pt x="292" y="606" on="1"/>
        <pt x="266" y="606" on="1"/>
        <pt x="118" y="54" on="1"/>
        <pt x="439" y="54" on="1"/>
      </contour>
    </TTGlyph>
    <TTGlyph name="E" xMin="87" yMin="0" xMax="504" yMax="695">
      <contour>
        <pt x="87" y="0" on="1"/>
        <pt x="87" y="695" on="1"/>
        <pt x="504" y="695" on="1"/>
        <pt x="504" y="639" on="1"/>
        <pt x="149" y="639" on="1"/>
        <pt x="149" y="381" on="1"/>
        <pt x="444" y="381" on="1"/>
        <pt x="444" y="326" on="1"/>
        <pt x="149" y="326" on="1"/>
        <pt x="149" y="55" on="1"/>
        <pt x="504" y="55" on="1"/>
        <pt x="504" y="0" on="1"/>
      </contour>
    </TTGlyph>
    <TTGlyph name="Eacute" xMin="87" yMin="0" xMax="504" yMax="928">
      <contour>
        <pt x="87" y="0" on="1"/>
        <pt x="87" y="695" on="1"/>
        <pt x="504" y="695" on="1"/>
        <pt x="504" y="639" on="1"/>
        <pt x="149" y="639" on="1"/>
        <pt x="149" y="381" on="1"/>
        <pt x="444" y="381" on="1"/>
        <pt x="444" y="326" on="1"/>
        <pt x="149" y="326" on="1"/>
        <pt x="149" y="55" on="1"/>
        <pt x="504" y="55" on="1"/>
        <pt x="504" y="0" on="1"/>
      </contour>
      <contour>
        <pt x="182" y="829" on="1"/>
        <pt x="389" y="928" on="1"/>
        <pt x="411" y="874" on="1"/>
        <pt x="202" y="786" on="1"/>
      </contour>
    </TTGlyph>
    <TTGlyph name="Ebreve" xMin="87" yMin="0" xMax="504" yMax="920">
      <contour>
        <pt x="87" y="0" on="1"/>
        <pt x="87" y="695" on="1"/>
        <pt x="504" y="695" on="1"/>
        <pt x="504" y="639" on="1"/>
        <pt x="149" y="639" on="1"/>
        <pt x="149" y="381" on="1"/>
        <pt x="444" y="381" on="1"/>
        <pt x="444" y="326" on="1"/>
        <pt x="149" y="326" on="1"/>
        <pt x="149" y="55" on="1"/>
        <pt x="504" y="55" on="1"/>
        <pt x="504" y="0" on="1"/>
      </contour>
      <contour>
        <pt x="266" y="841" on="0"/>
        <pt x="344" y="841" on="0"/>
        <pt x="398" y="884" on="0"/>
        <pt x="399" y="920" on="1"/>
        <pt x="455" y="920" on="1"/>
        <pt x="454" y="863" on="0"/>
        <pt x="370" y="793" on="0"/>
        <pt x="240" y="793" on="0"/>
        <pt x="157" y="863" on="0"/>
        <pt x="155" y="920" on="1"/>
        <pt x="212" y="920" on="1"/>
        <pt x="213" y="884" on="0"/>
      </contour>
    </TTGlyph>
    <TTGlyph name="Ecaron" xMin="87" yMin="0" xMax="504" yMax="929">
      <contour>
        <pt x="87" y="0" on="1"/>
        <pt x="87" y="695" on="1"/>
        <pt x="504" y="695" on="1"/>
        <pt x="504" y="639" on="1"/>
        <pt x="149" y="639" on="1"/>
        <pt x="149" y="381" on="1"/>
        <pt x="444" y="381" on="1"/>
        <pt x="444" y="326" on="1"/>
        <pt x="149" y="326" on="1"/>
        <pt x="149" y="55" on="1"/>
        <pt x="504" y="55" on="1"/>
        <pt x="504" y="0" on="1"/>
      </contour>
      <contour>
        <pt x="267" y="798" on="1"/>
        <pt x="133" y="929" on="1"/>
        <pt x="202" y="929" on="1"/>
        <pt x="293" y="843" on="1"/>
        <pt x="383" y="929" on="1"/>
        <pt x="453" y="929" on="1"/>
        <pt x="319" y="798" on="1"/>
      </contour>
    </TTGlyph>
    <TTGlyph name="Ecircumflex" xMin="87" yMin="0" xMax="504" yMax="929">
      <contour>
        <pt x="87" y="0" on="1"/>
        <pt x="87" y="695" on="1"/>
        <pt x="504" y="695" on="1"/>
        <pt x="504" y="639" on="1"/>
        <pt x="149" y="639" on="1"/>
        <pt x="149" y="381" on="1"/>
        <pt x="444" y="381" on="1"/>
        <pt x="444" y="326" on="1"/>
        <pt x="149" y="326" on="1"/>
        <pt x="149" y="55" on="1"/>
        <pt x="504" y="55" on="1"/>
        <pt x="504" y="0" on="1"/>
      </contour>
      <contour>
        <pt x="132" y="798" on="1"/>
        <pt x="266" y="929" on="1"/>
        <pt x="318" y="929" on="1"/>
        <pt x="452" y="798" on="1"/>
        <pt x="383" y="798" on="1"/>
        <pt x="293" y="884" on="1"/>
        <pt x="202" y="798" on="1"/>
      </contour>
    </TTGlyph>
    <TTGlyph name="Edieresis" xMin="87" yMin="0" xMax="504" yMax="899">
      <contour>
        <pt x="87" y="0" on="1"/>
        <pt x="87" y="695" on="1"/>
        <pt x="504" y="695" on="1"/>
        <pt x="504" y="639" on="1"/>
        <pt x="149" y="639" on="1"/>
        <pt x="149" y="381" on="1"/>
        <pt x="444" y="381" on="1"/>
        <pt x="444" y="326" on="1"/>
        <pt x="149" y="326" on="1"/>
        <pt x="149" y="55" on="1"/>
        <pt x="504" y="55" on="1"/>
        <pt x="504" y="0" on="1"/>
      </contour>
      <contour>
        <pt x="165" y="819" on="1"/>
        <pt x="165" y="899" on="1"/>
        <pt x="224" y="899" on="1"/>
        <pt x="224" y="819" on="1"/>
      </contour>
      <contour>
        <pt x="366" y="819" on="1"/>
        <pt x="366" y="899" on="1"/>
        <pt x="424" y="899" on="1"/>
        <pt x="424" y="819" on="1"/>
      </contour>
    </TTGlyph>
    <TTGlyph name="Edotaccent" xMin="87" yMin="0" xMax="504" yMax="884">
      <contour>
        <pt x="87" y="0" on="1"/>
        <pt x="87" y="695" on="1"/>
        <pt x="504" y="695" on="1"/>
        <pt x="504" y="639" on="1"/>
        <pt x="149" y="639" on="1"/>
        <pt x="149" y="381" on="1"/>
        <pt x="444" y="381" on="1"/>
        <pt x="444" y="326" on="1"/>
        <pt x="149" y="326" on="1"/>
        <pt x="149" y="55" on="1"/>
        <pt x="504" y="55" on="1"/>
        <pt x="504" y="0" on="1"/>
      </contour>
      <contour>
        <pt x="266" y="809" on="1"/>
        <pt x="266" y="884" on="1"/>
        <pt x="326" y="884" on="1"/>
        <pt x="326" y="809" on="1"/>
      </contour>
    </TTGlyph>
    <TTGlyph name="Egrave" xMin="87" yMin="0" xMax="504" yMax="928">
      <contour>
        <pt x="87" y="0" on="1"/>
        <pt x="87" y="695" on="1"/>
        <pt x="504" y="695" on="1"/>
        <pt x="504" y="639" on="1"/>
        <pt x="149" y="639" on="1"/>
        <pt x="149" y="381" on="1"/>
        <pt x="444" y="381" on="1"/>
        <pt x="444" y="326" on="1"/>
        <pt x="149" y="326" on="1"/>
        <pt x="149" y="55" on="1"/>
        <pt x="504" y="55" on="1"/>
        <pt x="504" y="0" on="1"/>
      </contour>
      <contour>
        <pt x="199" y="928" on="1"/>
        <pt x="406" y="829" on="1"/>
        <pt x="386" y="786" on="1"/>
        <pt x="177" y="874" on="1"/>
      </contour>
    </TTGlyph>
    <TTGlyph name="Emacron" xMin="87" yMin="0" xMax="504" yMax="868">
      <contour>
        <pt x="87" y="0" on="1"/>
        <pt x="87" y="695" on="1"/>
        <pt x="504" y="695" on="1"/>
        <pt x="504" y="639" on="1"/>
        <pt x="149" y="639" on="1"/>
        <pt x="149" y="381" on="1"/>
        <pt x="444" y="381" on="1"/>
        <pt x="444" y="326" on="1"/>
        <pt x="149" y="326" on="1"/>
        <pt x="149" y="55" on="1"/>
        <pt x="504" y="55" on="1"/>
        <pt x="504" y="0" on="1"/>
      </contour>
      <contour>
        <pt x="143" y="819" on="1"/>
        <pt x="143" y="868" on="1"/>
        <pt x="445" y="868" on="1"/>
        <pt x="445" y="819" on="1"/>
      </contour>
    </TTGlyph>
    <TTGlyph name="Eng" xMin="87" yMin="-183" xMax="584" yMax="695">
      <contour>
        <pt x="87" y="0" on="1"/>
        <pt x="87" y="695" on="1"/>
        <pt x="209" y="695" on="1"/>
        <pt x="500" y="55" on="1"/>
        <pt x="523" y="55" on="1"/>
        <pt x="523" y="695" on="1"/>
        <pt x="584" y="695" on="1"/>
        <pt x="584" y="-22" on="1"/>
        <pt x="584" y="-78" on="0"/>
        <pt x="565" y="-143" on="0"/>
        <pt x="514" y="-175" on="0"/>
        <pt x="456" y="-183" on="0"/>
        <pt x="401" y="-183" on="1"/>
        <pt x="401" y="-128" on="1"/>
        <pt x="444" y="-128" on="0"/>
        <pt x="482" y="-123" on="0"/>
        <pt x="515" y="-99" on="0"/>
        <pt x="523" y="-53" on="0"/>
        <pt x="523" y="-9" on="1"/>
        <pt x="523" y="0" on="1"/>
        <pt x="464" y="0" on="1"/>
        <pt x="171" y="639" on="1"/>
        <pt x="149" y="639" on="1"/>
        <pt x="149" y="0" on="1"/>
      </contour>
    </TTGlyph>
    <TTGlyph name="Eogonek" xMin="87" yMin="-204" xMax="504" yMax="695">
      <contour>
        <pt x="87" y="0" on="1"/>
        <pt x="87" y="695" on="1"/>
        <pt x="504" y="695" on="1"/>
        <pt x="504" y="639" on="1"/>
        <pt x="149" y="639" on="1"/>
        <pt x="149" y="381" on="1"/>
        <pt x="444" y="381" on="1"/>
        <pt x="444" y="326" on="1"/>
        <pt x="149" y="326" on="1"/>
        <pt x="149" y="55" on="1"/>
        <pt x="504" y="55" on="1"/>
        <pt x="504" y="0" on="1"/>
        <pt x="475" y="0" on="1"/>
        <pt x="443" y="-32" on="0"/>
        <pt x="401" y="-93" on="0"/>
        <pt x="401" y="-127" on="0"/>
        <pt x="425" y="-153" on="0"/>
        <pt x="444" y="-153" on="1"/>
        <pt x="496" y="-147" on="1"/>
        <pt x="502" y="-195" on="1"/>
        <pt x="461" y="-204" on="0"/>
        <pt x="391" y="-204" on="0"/>
        <pt x="342" y="-158" on="0"/>
        <pt x="342" y="-90" on="0"/>
        <pt x="391" y="-22" on="0"/>
        <pt x="416" y="0" on="1"/>
      </contour>
    </TTGlyph>
    <TTGlyph name="Eth" xMin="19" yMin="0" xMax="590" yMax="697">
      <contour>
        <pt x="19" y="320" on="1"/>
        <pt x="19" y="378" on="1"/>
        <pt x="90" y="378" on="1"/>
        <pt x="90" y="697" on="1"/>
        <pt x="342" y="697" on="1"/>
        <pt x="590" y="697" on="0"/>
        <pt x="590" y="359" on="1"/>
        <pt x="590" y="0" on="0"/>
        <pt x="342" y="0" on="1"/>
        <pt x="90" y="0" on="1"/>
        <pt x="90" y="320" on="1"/>
      </contour>
      <contour>
        <pt x="526" y="359" on="1"/>
        <pt x="526" y="639" on="0"/>
        <pt x="342" y="639" on="1"/>
        <pt x="151" y="639" on="1"/>
        <pt x="151" y="378" on="1"/>
        <pt x="316" y="378" on="1"/>
        <pt x="316" y="320" on="1"/>
        <pt x="151" y="320" on="1"/>
        <pt x="151" y="58" on="1"/>
        <pt x="342" y="58" on="1"/>
        <pt x="394" y="58" on="0"/>
        <pt x="469" y="109" on="0"/>
        <pt x="489" y="154" on="1"/>
        <pt x="526" y="237" on="0"/>
      </contour>
    </TTGlyph>
    <TTGlyph name="Euro" xMin="30" yMin="-10" xMax="510" yMax="670">
      <contour>
        <pt x="30" y="383" on="1"/>
        <pt x="30" y="434" on="1"/>
        <pt x="96" y="434" on="1"/>
        <pt x="107" y="554" on="0"/>
        <pt x="213" y="670" on="0"/>
        <pt x="332" y="670" on="1"/>
        <pt x="414" y="670" on="0"/>
        <pt x="510" y="650" on="1"/>
        <pt x="507" y="599" on="1"/>
        <pt x="415" y="617" on="0"/>
        <pt x="246" y="617" on="0"/>
        <pt x="167" y="528" on="0"/>
        <pt x="157" y="434" on="1"/>
        <pt x="456" y="434" on="1"/>
        <pt x="456" y="383" on="1"/>
        <pt x="154" y="383" on="1"/>
        <pt x="153" y="365" on="0"/>
        <pt x="153" y="296" on="0"/>
        <pt x="154" y="281" on="1"/>
        <pt x="456" y="281" on="1"/>
        <pt x="456" y="230" on="1"/>
        <pt x="156" y="230" on="1"/>
        <pt x="165" y="133" on="0"/>
        <pt x="245" y="44" on="0"/>
        <pt x="415" y="44" on="0"/>
        <pt x="507" y="62" on="1"/>
        <pt x="510" y="10" on="1"/>
        <pt x="408" y="-10" on="0"/>
        <pt x="332" y="-10" on="1"/>
        <pt x="213" y="-10" on="0"/>
        <pt x="107" y="108" on="0"/>
        <pt x="96" y="230" on="1"/>
        <pt x="30" y="230" on="1"/>
        <pt x="30" y="281" on="1"/>
        <pt x="93" y="281" on="1"/>
        <pt x="92" y="296" on="0"/>
        <pt x="92" y="365" on="0"/>
        <pt x="93" y="383" on="1"/>
      </contour>
    </TTGlyph>
    <TTGlyph name="F" xMin="87" yMin="0" xMax="497" yMax="695">
      <contour>
        <pt x="87" y="0" on="1"/>
        <pt x="87" y="695" on="1"/>
        <pt x="497" y="695" on="1"/>
        <pt x="497" y="639" on="1"/>
        <pt x="149" y="639" on="1"/>
        <pt x="149" y="352" on="1"/>
        <pt x="445" y="352" on="1"/>
        <pt x="445" y="297" on="1"/>
        <pt x="149" y="297" on="1"/>
        <pt x="149" y="0" on="1"/>
      </contour>
    </TTGlyph>
    <TTGlyph name="G" xMin="60" yMin="-10" xMax="549" yMax="705">
      <contour>
        <pt x="360" y="296" on="1"/>
        <pt x="360" y="351" on="1"/>
        <pt x="549" y="351" on="1"/>
        <pt x="549" y="15" on="1"/>
        <pt x="520" y="9" on="0"/>
        <pt x="374" y="-10" on="0"/>
        <pt x="326" y="-10" on="1"/>
        <pt x="176" y="-10" on="0"/>
        <pt x="60" y="166" on="0"/>
        <pt x="60" y="345" on="1"/>
        <pt x="60" y="434" on="0"/>
        <pt x="84" y="560" on="0"/>
        <pt x="114" y="609" on="1"/>
        <pt x="171" y="705" on="0"/>
        <pt x="325" y="705" on="1"/>
        <pt x="419" y="705" on="0"/>
        <pt x="516" y="686" on="1"/>
        <pt x="549" y="679" on="1"/>
        <pt x="546" y="626" on="1"/>
        <pt x="421" y="649" on="0"/>
        <pt x="330" y="649" on="1"/>
        <pt x="209" y="649" on="0"/>
        <pt x="124" y="504" on="0"/>
        <pt x="124" y="188" on="0"/>
        <pt x="209" y="46" on="0"/>
        <pt x="329" y="46" on="1"/>
        <pt x="400" y="46" on="0"/>
        <pt x="488" y="62" on="1"/>
        <pt x="488" y="296" on="1"/>
      </contour>
    </TTGlyph>
    <TTGlyph name="Gbreve" xMin="60" yMin="-10" xMax="549" yMax="920">
      <contour>
        <pt x="360" y="296" on="1"/>
        <pt x="360" y="351" on="1"/>
        <pt x="549" y="351" on="1"/>
        <pt x="549" y="15" on="1"/>
        <pt x="520" y="9" on="0"/>
        <pt x="374" y="-10" on="0"/>
        <pt x="326" y="-10" on="1"/>
        <pt x="176" y="-10" on="0"/>
        <pt x="60" y="166" on="0"/>
        <pt x="60" y="345" on="1"/>
        <pt x="60" y="434" on="0"/>
        <pt x="84" y="560" on="0"/>
        <pt x="114" y="609" on="1"/>
        <pt x="171" y="705" on="0"/>
        <pt x="325" y="705" on="1"/>
        <pt x="419" y="705" on="0"/>
        <pt x="516" y="686" on="1"/>
        <pt x="549" y="679" on="1"/>
        <pt x="546" y="626" on="1"/>
        <pt x="421" y="649" on="0"/>
        <pt x="330" y="649" on="1"/>
        <pt x="209" y="649" on="0"/>
        <pt x="124" y="504" on="0"/>
        <pt x="124" y="188" on="0"/>
        <pt x="209" y="46" on="0"/>
        <pt x="329" y="46" on="1"/>
        <pt x="400" y="46" on="0"/>
        <pt x="488" y="62" on="1"/>
        <pt x="488" y="296" on="1"/>
      </contour>
      <contour>
        <pt x="291" y="841" on="0"/>
        <pt x="369" y="841" on="0"/>
        <pt x="423" y="884" on="0"/>
        <pt x="424" y="920" on="1"/>
        <pt x="480" y="920" on="1"/>
        <pt x="479" y="863" on="0"/>
        <pt x="395" y="793" on="0"/>
        <pt x="265" y="793" on="0"/>
        <pt x="182" y="863" on="0"/>
        <pt x="180" y="920" on="1"/>
        <pt x="237" y="920" on="1"/>
        <pt x="238" y="884" on="0"/>
      </contour>
    </TTGlyph>
    <TTGlyph name="Gcircumflex" xMin="60" yMin="-7" xMax="549" yMax="925">
      <contour>
        <pt x="360" y="299" on="1"/>
        <pt x="360" y="354" on="1"/>
        <pt x="549" y="354" on="1"/>
        <pt x="549" y="18" on="1"/>
        <pt x="520" y="12" on="0"/>
        <pt x="374" y="-7" on="0"/>
        <pt x="326" y="-7" on="1"/>
        <pt x="176" y="-7" on="0"/>
        <pt x="60" y="169" on="0"/>
        <pt x="60" y="348" on="1"/>
        <pt x="60" y="437" on="0"/>
        <pt x="84" y="563" on="0"/>
        <pt x="114" y="612" on="1"/>
        <pt x="171" y="708" on="0"/>
        <pt x="325" y="708" on="1"/>
        <pt x="419" y="708" on="0"/>
        <pt x="516" y="688" on="1"/>
        <pt x="549" y="682" on="1"/>
        <pt x="546" y="629" on="1"/>
        <pt x="421" y="652" on="0"/>
        <pt x="330" y="652" on="1"/>
        <pt x="209" y="652" on="0"/>
        <pt x="124" y="507" on="0"/>
        <pt x="124" y="191" on="0"/>
        <pt x="209" y="49" on="0"/>
        <pt x="329" y="49" on="1"/>
        <pt x="400" y="49" on="0"/>
        <pt x="488" y="65" on="1"/>
        <pt x="488" y="299" on="1"/>
      </contour>
      <contour>
        <pt x="160" y="794" on="1"/>
        <pt x="294" y="925" on="1"/>
        <pt x="346" y="925" on="1"/>
        <pt x="480" y="794" on="1"/>
        <pt x="411" y="794" on="1"/>
        <pt x="321" y="880" on="1"/>
        <pt x="230" y="794" on="1"/>
      </contour>
    </TTGlyph>
    <TTGlyph name="Gcommaaccent" xMin="60" yMin="-278" xMax="549" yMax="705">
      <contour>
        <pt x="360" y="296" on="1"/>
        <pt x="360" y="351" on="1"/>
        <pt x="549" y="351" on="1"/>
        <pt x="549" y="15" on="1"/>
        <pt x="520" y="9" on="0"/>
        <pt x="374" y="-10" on="0"/>
        <pt x="326" y="-10" on="1"/>
        <pt x="176" y="-10" on="0"/>
        <pt x="60" y="166" on="0"/>
        <pt x="60" y="345" on="1"/>
        <pt x="60" y="434" on="0"/>
        <pt x="84" y="560" on="0"/>
        <pt x="114" y="609" on="1"/>
        <pt x="171" y="705" on="0"/>
        <pt x="325" y="705" on="1"/>
        <pt x="419" y="705" on="0"/>
        <pt x="516" y="686" on="1"/>
        <pt x="549" y="679" on="1"/>
        <pt x="546" y="626" on="1"/>
        <pt x="421" y="649" on="0"/>
        <pt x="330" y="649" on="1"/>
        <pt x="209" y="649" on="0"/>
        <pt x="124" y="504" on="0"/>
        <pt x="124" y="188" on="0"/>
        <pt x="209" y="46" on="0"/>
        <pt x="329" y="46" on="1"/>
        <pt x="400" y="46" on="0"/>
        <pt x="488" y="62" on="1"/>
        <pt x="488" y="296" on="1"/>
      </contour>
      <contour>
        <pt x="309" y="-78" on="1"/>
        <pt x="370" y="-78" on="1"/>
        <pt x="321" y="-278" on="1"/>
        <pt x="270" y="-278" on="1"/>
      </contour>
    </TTGlyph>
    <TTGlyph name="Gdotaccent" xMin="60" yMin="-10" xMax="549" yMax="884">
      <contour>
        <pt x="360" y="296" on="1"/>
        <pt x="360" y="351" on="1"/>
        <pt x="549" y="351" on="1"/>
        <pt x="549" y="15" on="1"/>
        <pt x="520" y="9" on="0"/>
        <pt x="374" y="-10" on="0"/>
        <pt x="326" y="-10" on="1"/>
        <pt x="176" y="-10" on="0"/>
        <pt x="60" y="166" on="0"/>
        <pt x="60" y="345" on="1"/>
        <pt x="60" y="434" on="0"/>
        <pt x="84" y="560" on="0"/>
        <pt x="114" y="609" on="1"/>
        <pt x="171" y="705" on="0"/>
        <pt x="325" y="705" on="1"/>
        <pt x="419" y="705" on="0"/>
        <pt x="516" y="686" on="1"/>
        <pt x="549" y="679" on="1"/>
        <pt x="546" y="626" on="1"/>
        <pt x="421" y="649" on="0"/>
        <pt x="330" y="649" on="1"/>
        <pt x="209" y="649" on="0"/>
        <pt x="124" y="504" on="0"/>
        <pt x="124" y="188" on="0"/>
        <pt x="209" y="46" on="0"/>
        <pt x="329" y="46" on="1"/>
        <pt x="400" y="46" on="0"/>
        <pt x="488" y="62" on="1"/>
        <pt x="488" y="296" on="1"/>
      </contour>
      <contour>
        <pt x="283" y="809" on="1"/>
        <pt x="283" y="884" on="1"/>
        <pt x="343" y="884" on="1"/>
        <pt x="343" y="809" on="1"/>
      </contour>
    </TTGlyph>
    <TTGlyph name="H" xMin="87" yMin="0" xMax="587" yMax="695">
      <contour>
        <pt x="526" y="0" on="1"/>
        <pt x="526" y="321" on="1"/>
        <pt x="149" y="321" on="1"/>
        <pt x="149" y="0" on="1"/>
        <pt x="87" y="0" on="1"/>
        <pt x="87" y="695" on="1"/>
        <pt x="149" y="695" on="1"/>
        <pt x="149" y="376" on="1"/>
        <pt x="526" y="376" on="1"/>
        <pt x="526" y="695" on="1"/>
        <pt x="587" y="695" on="1"/>
        <pt x="587" y="0" on="1"/>
      </contour>
    </TTGlyph>
    <TTGlyph name="Hbar" xMin="14" yMin="0" xMax="677" yMax="695">
      <contour>
        <pt x="14" y="513" on="1"/>
        <pt x="14" y="566" on="1"/>
        <pt x="91" y="566" on="1"/>
        <pt x="91" y="695" on="1"/>
        <pt x="153" y="695" on="1"/>
        <pt x="153" y="566" on="1"/>
        <pt x="530" y="566" on="1"/>
        <pt x="530" y="695" on="1"/>
        <pt x="591" y="695" on="1"/>
        <pt x="591" y="566" on="1"/>
        <pt x="677" y="566" on="1"/>
        <pt x="677" y="513" on="1"/>
        <pt x="591" y="513" on="1"/>
        <pt x="591" y="0" on="1"/>
        <pt x="530" y="0" on="1"/>
        <pt x="530" y="321" on="1"/>
        <pt x="153" y="321" on="1"/>
        <pt x="153" y="0" on="1"/>
        <pt x="91" y="0" on="1"/>
        <pt x="91" y="513" on="1"/>
      </contour>
      <contour>
        <pt x="153" y="376" on="1"/>
        <pt x="530" y="376" on="1"/>
        <pt x="530" y="513" on="1"/>
        <pt x="153" y="513" on="1"/>
      </contour>
    </TTGlyph>
    <TTGlyph name="Hcircumflex" xMin="87" yMin="0" xMax="587" yMax="929">
      <contour>
        <pt x="526" y="0" on="1"/>
        <pt x="526" y="321" on="1"/>
        <pt x="149" y="321" on="1"/>
        <pt x="149" y="0" on="1"/>
        <pt x="87" y="0" on="1"/>
        <pt x="87" y="695" on="1"/>
        <pt x="149" y="695" on="1"/>
        <pt x="149" y="376" on="1"/>
        <pt x="526" y="376" on="1"/>
        <pt x="526" y="695" on="1"/>
        <pt x="587" y="695" on="1"/>
        <pt x="587" y="0" on="1"/>
      </contour>
      <contour>
        <pt x="178" y="798" on="1"/>
        <pt x="312" y="929" on="1"/>
        <pt x="364" y="929" on="1"/>
        <pt x="498" y="798" on="1"/>
        <pt x="429" y="798" on="1"/>
        <pt x="339" y="884" on="1"/>
        <pt x="248" y="798" on="1"/>
      </contour>
    </TTGlyph>
    <TTGlyph name="I" xMin="87" yMin="0" xMax="149" yMax="695">
      <contour>
        <pt x="87" y="0" on="1"/>
        <pt x="87" y="695" on="1"/>
        <pt x="149" y="695" on="1"/>
        <pt x="149" y="0" on="1"/>
      </contour>
    </TTGlyph>
    <TTGlyph name="Iacute" xMin="14" yMin="0" xMax="243" yMax="928">
      <contour>
        <pt x="87" y="0" on="1"/>
        <pt x="87" y="695" on="1"/>
        <pt x="149" y="695" on="1"/>
        <pt x="149" y="0" on="1"/>
      </contour>
      <contour>
        <pt x="14" y="829" on="1"/>
        <pt x="221" y="928" on="1"/>
        <pt x="243" y="874" on="1"/>
        <pt x="34" y="786" on="1"/>
      </contour>
    </TTGlyph>
    <TTGlyph name="Ibreve" xMin="-26" yMin="0" xMax="274" yMax="920">
      <contour>
        <pt x="87" y="0" on="1"/>
        <pt x="87" y="695" on="1"/>
        <pt x="149" y="695" on="1"/>
        <pt x="149" y="0" on="1"/>
      </contour>
      <contour>
        <pt x="85" y="841" on="0"/>
        <pt x="163" y="841" on="0"/>
        <pt x="217" y="884" on="0"/>
        <pt x="218" y="920" on="1"/>
        <pt x="274" y="920" on="1"/>
        <pt x="273" y="863" on="0"/>
        <pt x="189" y="793" on="0"/>
        <pt x="59" y="793" on="0"/>
        <pt x="-24" y="863" on="0"/>
        <pt x="-26" y="920" on="1"/>
        <pt x="31" y="920" on="1"/>
        <pt x="32" y="884" on="0"/>
      </contour>
    </TTGlyph>
    <TTGlyph name="Icircumflex" xMin="-47" yMin="0" xMax="273" yMax="929">
      <contour>
        <pt x="87" y="0" on="1"/>
        <pt x="87" y="695" on="1"/>
        <pt x="149" y="695" on="1"/>
        <pt x="149" y="0" on="1"/>
      </contour>
      <contour>
        <pt x="-47" y="798" on="1"/>
        <pt x="87" y="929" on="1"/>
        <pt x="139" y="929" on="1"/>
        <pt x="273" y="798" on="1"/>
        <pt x="204" y="798" on="1"/>
        <pt x="114" y="884" on="1"/>
        <pt x="23" y="798" on="1"/>
      </contour>
    </TTGlyph>
    <TTGlyph name="Idieresis" xMin="-12" yMin="0" xMax="247" yMax="899">
      <contour>
        <pt x="87" y="0" on="1"/>
        <pt x="87" y="695" on="1"/>
        <pt x="149" y="695" on="1"/>
        <pt x="149" y="0" on="1"/>
      </contour>
      <contour>
        <pt x="-12" y="819" on="1"/>
        <pt x="-12" y="899" on="1"/>
        <pt x="47" y="899" on="1"/>
        <pt x="47" y="819" on="1"/>
      </contour>
      <contour>
        <pt x="189" y="819" on="1"/>
        <pt x="189" y="899" on="1"/>
        <pt x="247" y="899" on="1"/>
        <pt x="247" y="819" on="1"/>
      </contour>
    </TTGlyph>
    <TTGlyph name="Idotaccent" xMin="87" yMin="0" xMax="149" yMax="884">
      <contour>
        <pt x="87" y="0" on="1"/>
        <pt x="87" y="695" on="1"/>
        <pt x="149" y="695" on="1"/>
        <pt x="149" y="0" on="1"/>
      </contour>
      <contour>
        <pt x="88" y="809" on="1"/>
        <pt x="88" y="884" on="1"/>
        <pt x="148" y="884" on="1"/>
        <pt x="148" y="809" on="1"/>
      </contour>
    </TTGlyph>
    <TTGlyph name="Igrave" xMin="-19" yMin="0" xMax="210" yMax="928">
      <contour>
        <pt x="87" y="0" on="1"/>
        <pt x="87" y="695" on="1"/>
        <pt x="149" y="695" on="1"/>
        <pt x="149" y="0" on="1"/>
      </contour>
      <contour>
        <pt x="3" y="928" on="1"/>
        <pt x="210" y="829" on="1"/>
        <pt x="190" y="786" on="1"/>
        <pt x="-19" y="874" on="1"/>
      </contour>
    </TTGlyph>
    <TTGlyph name="Imacron" xMin="-31" yMin="0" xMax="271" yMax="868">
      <contour>
        <pt x="87" y="0" on="1"/>
        <pt x="87" y="695" on="1"/>
        <pt x="149" y="695" on="1"/>
        <pt x="149" y="0" on="1"/>
      </contour>
      <contour>
        <pt x="-31" y="819" on="1"/>
        <pt x="-31" y="868" on="1"/>
        <pt x="271" y="868" on="1"/>
        <pt x="271" y="819" on="1"/>
      </contour>
    </TTGlyph>
    <TTGlyph name="Iogonek" xMin="12" yMin="-204" xMax="173" yMax="695">
      <contour>
        <pt x="87" y="0" on="1"/>
        <pt x="87" y="695" on="1"/>
        <pt x="149" y="695" on="1"/>
        <pt x="149" y="0" on="1"/>
        <pt x="71" y="-75" on="0"/>
        <pt x="71" y="-107" on="1"/>
        <pt x="71" y="-127" on="0"/>
        <pt x="96" y="-153" on="0"/>
        <pt x="115" y="-153" on="1"/>
        <pt x="167" y="-147" on="1"/>
        <pt x="173" y="-195" on="1"/>
        <pt x="131" y="-204" on="0"/>
        <pt x="62" y="-204" on="0"/>
        <pt x="12" y="-158" on="0"/>
        <pt x="12" y="-119" on="1"/>
        <pt x="12" y="-69" on="0"/>
        <pt x="88" y="0" on="1"/>
      </contour>
    </TTGlyph>
    <TTGlyph name="Itilde" xMin="-51" yMin="0" xMax="275" yMax="923">
      <contour>
        <pt x="87" y="0" on="1"/>
        <pt x="87" y="695" on="1"/>
        <pt x="149" y="695" on="1"/>
        <pt x="149" y="0" on="1"/>
      </contour>
      <contour>
        <pt x="192" y="814" on="1"/>
        <pt x="172" y="814" on="0"/>
        <pt x="49" y="871" on="0"/>
        <pt x="36" y="871" on="1"/>
        <pt x="14" y="871" on="0"/>
        <pt x="-24" y="834" on="1"/>
        <pt x="-36" y="821" on="1"/>
        <pt x="-51" y="867" on="1"/>
        <pt x="-4" y="923" on="0"/>
        <pt x="34" y="923" on="1"/>
        <pt x="60" y="923" on="0"/>
        <pt x="182" y="868" on="0"/>
        <pt x="193" y="868" on="1"/>
        <pt x="212" y="868" on="0"/>
        <pt x="248" y="902" on="1"/>
        <pt x="260" y="914" on="1"/>
        <pt x="275" y="869" on="1"/>
        <pt x="229" y="814" on="0"/>
      </contour>
    </TTGlyph>
    <TTGlyph name="J" xMin="18" yMin="-72" xMax="201" yMax="695">
      <contour>
        <pt x="201" y="695" on="1"/>
        <pt x="201" y="89" on="1"/>
        <pt x="201" y="33" on="0"/>
        <pt x="182" y="-32" on="0"/>
        <pt x="131" y="-64" on="0"/>
        <pt x="73" y="-72" on="0"/>
        <pt x="18" y="-72" on="1"/>
        <pt x="18" y="-17" on="1"/>
        <pt x="61" y="-17" on="0"/>
        <pt x="99" y="-12" on="0"/>
        <pt x="132" y="12" on="0"/>
        <pt x="140" y="58" on="0"/>
        <pt x="140" y="102" on="1"/>
        <pt x="140" y="695" on="1"/>
      </contour>
    </TTGlyph>
    <TTGlyph name="Jcircumflex" xMin="9" yMin="-72" xMax="329" yMax="925">
      <contour>
        <pt x="201" y="695" on="1"/>
        <pt x="201" y="89" on="1"/>
        <pt x="201" y="33" on="0"/>
        <pt x="182" y="-32" on="0"/>
        <pt x="131" y="-64" on="0"/>
        <pt x="73" y="-72" on="0"/>
        <pt x="18" y="-72" on="1"/>
        <pt x="18" y="-17" on="1"/>
        <pt x="61" y="-17" on="0"/>
        <pt x="99" y="-12" on="0"/>
        <pt x="132" y="12" on="0"/>
        <pt x="140" y="58" on="0"/>
        <pt x="140" y="102" on="1"/>
        <pt x="140" y="695" on="1"/>
      </contour>
      <contour>
        <pt x="9" y="794" on="1"/>
        <pt x="143" y="925" on="1"/>
        <pt x="195" y="925" on="1"/>
        <pt x="329" y="794" on="1"/>
        <pt x="260" y="794" on="1"/>
        <pt x="170" y="880" on="1"/>
        <pt x="79" y="794" on="1"/>
      </contour>
    </TTGlyph>
    <TTGlyph name="K" xMin="87" yMin="0" xMax="546" yMax="695">
      <contour>
        <pt x="149" y="0" on="1"/>
        <pt x="87" y="0" on="1"/>
        <pt x="87" y="695" on="1"/>
        <pt x="149" y="695" on="1"/>
        <pt x="149" y="367" on="1"/>
        <pt x="269" y="370" on="1"/>
        <pt x="462" y="695" on="1"/>
        <pt x="533" y="695" on="1"/>
        <pt x="323" y="346" on="1"/>
        <pt x="546" y="0" on="1"/>
        <pt x="472" y="0" on="1"/>
        <pt x="270" y="314" on="1"/>
        <pt x="149" y="312" on="1"/>
      </contour>
    </TTGlyph>
    <TTGlyph name="Kcommaaccent" xMin="87" yMin="-278" xMax="546" yMax="697">
      <contour>
        <pt x="149" y="0" on="1"/>
        <pt x="87" y="0" on="1"/>
        <pt x="87" y="697" on="1"/>
        <pt x="149" y="697" on="1"/>
        <pt x="149" y="371" on="1"/>
        <pt x="268" y="373" on="1"/>
        <pt x="461" y="697" on="1"/>
        <pt x="533" y="697" on="1"/>
        <pt x="323" y="348" on="1"/>
        <pt x="546" y="0" on="1"/>
        <pt x="472" y="0" on="1"/>
        <pt x="270" y="314" on="1"/>
        <pt x="149" y="312" on="1"/>
      </contour>
      <contour>
        <pt x="269" y="-78" on="1"/>
        <pt x="329" y="-78" on="1"/>
        <pt x="281" y="-278" on="1"/>
        <pt x="230" y="-278" on="1"/>
      </contour>
    </TTGlyph>
    <TTGlyph name="L" xMin="87" yMin="0" xMax="467" yMax="695">
      <contour>
        <pt x="467" y="0" on="1"/>
        <pt x="87" y="0" on="1"/>
        <pt x="87" y="695" on="1"/>
        <pt x="149" y="695" on="1"/>
        <pt x="149" y="56" on="1"/>
        <pt x="467" y="56" on="1"/>
      </contour>
    </TTGlyph>
    <TTGlyph name="Lacute" xMin="87" yMin="0" xMax="467" yMax="928">
      <contour>
        <pt x="467" y="0" on="1"/>
        <pt x="87" y="0" on="1"/>
        <pt x="87" y="697" on="1"/>
        <pt x="149" y="697" on="1"/>
        <pt x="149" y="59" on="1"/>
        <pt x="467" y="59" on="1"/>
      </contour>
      <contour>
        <pt x="140" y="829" on="1"/>
        <pt x="347" y="928" on="1"/>
        <pt x="369" y="874" on="1"/>
        <pt x="160" y="786" on="1"/>
      </contour>
    </TTGlyph>
    <TTGlyph name="Lcaron" xMin="87" yMin="0" xMax="467" yMax="697">
      <contour>
        <pt x="433" y="697" on="1"/>
        <pt x="433" y="470" on="1"/>
        <pt x="375" y="470" on="1"/>
        <pt x="375" y="697" on="1"/>
      </contour>
      <contour>
        <pt x="467" y="0" on="1"/>
        <pt x="87" y="0" on="1"/>
        <pt x="87" y="695" on="1"/>
        <pt x="149" y="695" on="1"/>
        <pt x="149" y="56" on="1"/>
        <pt x="467" y="56" on="1"/>
      </contour>
    </TTGlyph>
    <TTGlyph name="Lcommaaccent" xMin="87" yMin="-278" xMax="467" yMax="695">
      <contour>
        <pt x="250" y="-78" on="1"/>
        <pt x="310" y="-78" on="1"/>
        <pt x="262" y="-278" on="1"/>
        <pt x="210" y="-278" on="1"/>
      </contour>
      <contour>
        <pt x="467" y="0" on="1"/>
        <pt x="87" y="0" on="1"/>
        <pt x="87" y="695" on="1"/>
        <pt x="149" y="695" on="1"/>
        <pt x="149" y="56" on="1"/>
        <pt x="467" y="56" on="1"/>
      </contour>
    </TTGlyph>
    <TTGlyph name="Lslash" xMin="1" yMin="0" xMax="471" yMax="695">
      <contour>
        <pt x="471" y="0" on="1"/>
        <pt x="91" y="0" on="1"/>
        <pt x="91" y="285" on="1"/>
        <pt x="31" y="243" on="1"/>
        <pt x="1" y="285" on="1"/>
        <pt x="91" y="348" on="1"/>
        <pt x="91" y="695" on="1"/>
        <pt x="153" y="695" on="1"/>
        <pt x="153" y="391" on="1"/>
        <pt x="306" y="499" on="1"/>
        <pt x="336" y="457" on="1"/>
        <pt x="153" y="328" on="1"/>
        <pt x="153" y="56" on="1"/>
        <pt x="471" y="56" on="1"/>
      </contour>
    </TTGlyph>
    <TTGlyph name="M" xMin="87" yMin="0" xMax="748" yMax="695">
      <contour>
        <pt x="87" y="0" on="1"/>
        <pt x="87" y="695" on="1"/>
        <pt x="203" y="695" on="1"/>
        <pt x="418" y="87" on="1"/>
        <pt x="632" y="695" on="1"/>
        <pt x="748" y="695" on="1"/>
        <pt x="748" y="0" on="1"/>
        <pt x="686" y="0" on="1"/>
        <pt x="686" y="631" on="1"/>
        <pt x="672" y="631" on="1"/>
        <pt x="454" y="23" on="1"/>
        <pt x="381" y="23" on="1"/>
        <pt x="163" y="631" on="1"/>
        <pt x="149" y="631" on="1"/>
        <pt x="149" y="0" on="1"/>
      </contour>
    </TTGlyph>
    <TTGlyph name="N" xMin="87" yMin="0" xMax="584" yMax="695">
      <contour>
        <pt x="87" y="0" on="1"/>
        <pt x="87" y="695" on="1"/>
        <pt x="209" y="695" on="1"/>
        <pt x="500" y="55" on="1"/>
        <pt x="523" y="55" on="1"/>
        <pt x="523" y="695" on="1"/>
        <pt x="584" y="695" on="1"/>
        <pt x="584" y="0" on="1"/>
        <pt x="464" y="0" on="1"/>
        <pt x="171" y="639" on="1"/>
        <pt x="149" y="639" on="1"/>
        <pt x="149" y="0" on="1"/>
      </contour>
    </TTGlyph>
    <TTGlyph name="Nacute" xMin="87" yMin="0" xMax="584" yMax="928">
      <contour>
        <pt x="87" y="0" on="1"/>
        <pt x="87" y="695" on="1"/>
        <pt x="209" y="695" on="1"/>
        <pt x="500" y="55" on="1"/>
        <pt x="523" y="55" on="1"/>
        <pt x="523" y="695" on="1"/>
        <pt x="584" y="695" on="1"/>
        <pt x="584" y="0" on="1"/>
        <pt x="464" y="0" on="1"/>
        <pt x="171" y="639" on="1"/>
        <pt x="149" y="639" on="1"/>
        <pt x="149" y="0" on="1"/>
      </contour>
      <contour>
        <pt x="224" y="829" on="1"/>
        <pt x="431" y="928" on="1"/>
        <pt x="453" y="874" on="1"/>
        <pt x="244" y="786" on="1"/>
      </contour>
    </TTGlyph>
    <TTGlyph name="Ncaron" xMin="87" yMin="0" xMax="584" yMax="925">
      <contour>
        <pt x="87" y="0" on="1"/>
        <pt x="87" y="695" on="1"/>
        <pt x="209" y="695" on="1"/>
        <pt x="500" y="55" on="1"/>
        <pt x="523" y="55" on="1"/>
        <pt x="523" y="695" on="1"/>
        <pt x="584" y="695" on="1"/>
        <pt x="584" y="0" on="1"/>
        <pt x="464" y="0" on="1"/>
        <pt x="171" y="639" on="1"/>
        <pt x="149" y="639" on="1"/>
        <pt x="149" y="0" on="1"/>
      </contour>
      <contour>
        <pt x="310" y="794" on="1"/>
        <pt x="176" y="925" on="1"/>
        <pt x="245" y="925" on="1"/>
        <pt x="336" y="839" on="1"/>
        <pt x="426" y="925" on="1"/>
        <pt x="496" y="925" on="1"/>
        <pt x="362" y="794" on="1"/>
      </contour>
    </TTGlyph>
    <TTGlyph name="Ncommaaccent" xMin="87" yMin="-278" xMax="584" yMax="695">
      <contour>
        <pt x="330" y="-78" on="1"/>
        <pt x="390" y="-78" on="1"/>
        <pt x="342" y="-278" on="1"/>
        <pt x="290" y="-278" on="1"/>
      </contour>
      <contour>
        <pt x="87" y="0" on="1"/>
        <pt x="87" y="695" on="1"/>
        <pt x="209" y="695" on="1"/>
        <pt x="500" y="55" on="1"/>
        <pt x="523" y="55" on="1"/>
        <pt x="523" y="695" on="1"/>
        <pt x="584" y="695" on="1"/>
        <pt x="584" y="0" on="1"/>
        <pt x="464" y="0" on="1"/>
        <pt x="171" y="639" on="1"/>
        <pt x="149" y="639" on="1"/>
        <pt x="149" y="0" on="1"/>
      </contour>
    </TTGlyph>
    <TTGlyph name="Ntilde" xMin="87" yMin="0" xMax="584" yMax="923">
      <contour>
        <pt x="87" y="0" on="1"/>
        <pt x="87" y="695" on="1"/>
        <pt x="209" y="695" on="1"/>
        <pt x="500" y="55" on="1"/>
        <pt x="523" y="55" on="1"/>
        <pt x="523" y="695" on="1"/>
        <pt x="584" y="695" on="1"/>
        <pt x="584" y="0" on="1"/>
        <pt x="464" y="0" on="1"/>
        <pt x="171" y="639" on="1"/>
        <pt x="149" y="639" on="1"/>
        <pt x="149" y="0" on="1"/>
      </contour>
      <contour>
        <pt x="414" y="814" on="1"/>
        <pt x="394" y="814" on="0"/>
        <pt x="271" y="871" on="0"/>
        <pt x="258" y="871" on="1"/>
        <pt x="236" y="871" on="0"/>
        <pt x="198" y="834" on="1"/>
        <pt x="186" y="821" on="1"/>
        <pt x="171" y="867" on="1"/>
        <pt x="218" y="923" on="0"/>
        <pt x="256" y="923" on="1"/>
        <pt x="282" y="923" on="0"/>
        <pt x="404" y="868" on="0"/>
        <pt x="415" y="868" on="1"/>
        <pt x="434" y="868" on="0"/>
        <pt x="470" y="902" on="1"/>
        <pt x="482" y="914" on="1"/>
        <pt x="497" y="869" on="1"/>
        <pt x="451" y="814" on="0"/>
      </contour>
    </TTGlyph>
    <TTGlyph name="O" xMin="60" yMin="-10" xMax="603" yMax="705">
      <contour>
        <pt x="124" y="185" on="0"/>
        <pt x="208" y="46" on="0"/>
        <pt x="455" y="46" on="0"/>
        <pt x="539" y="182" on="0"/>
        <pt x="539" y="501" on="0"/>
        <pt x="451" y="649" on="0"/>
        <pt x="331" y="649" on="1"/>
        <pt x="207" y="649" on="0"/>
        <pt x="164" y="569" on="1"/>
        <pt x="141" y="528" on="0"/>
        <pt x="124" y="422" on="0"/>
        <pt x="124" y="344" on="1"/>
      </contour>
      <contour>
        <pt x="603" y="156" on="0"/>
        <pt x="486" y="-10" on="0"/>
        <pt x="177" y="-10" on="0"/>
        <pt x="60" y="160" on="0"/>
        <pt x="60" y="527" on="0"/>
        <pt x="178" y="705" on="0"/>
        <pt x="484" y="705" on="0"/>
        <pt x="603" y="528" on="0"/>
      </contour>
    </TTGlyph>
    <TTGlyph name="OE" xMin="60" yMin="-10" xMax="882" yMax="707">
      <contour>
        <pt x="882" y="-1" on="1"/>
        <pt x="474" y="-1" on="1"/>
        <pt x="382" y="-10" on="0"/>
        <pt x="326" y="-10" on="1"/>
        <pt x="173" y="-10" on="0"/>
        <pt x="60" y="159" on="0"/>
        <pt x="60" y="532" on="0"/>
        <pt x="176" y="707" on="0"/>
        <pt x="326" y="707" on="1"/>
        <pt x="411" y="707" on="0"/>
        <pt x="473" y="697" on="1"/>
        <pt x="882" y="697" on="1"/>
        <pt x="882" y="637" on="1"/>
        <pt x="534" y="637" on="1"/>
        <pt x="534" y="387" on="1"/>
        <pt x="822" y="387" on="1"/>
        <pt x="822" y="327" on="1"/>
        <pt x="534" y="327" on="1"/>
        <pt x="534" y="60" on="1"/>
        <pt x="882" y="60" on="1"/>
      </contour>
      <contour>
        <pt x="185" y="85" on="0"/>
        <pt x="267" y="50" on="0"/>
        <pt x="380" y="50" on="0"/>
        <pt x="473" y="58" on="1"/>
        <pt x="473" y="637" on="1"/>
        <pt x="345" y="648" on="0"/>
        <pt x="331" y="648" on="1"/>
        <pt x="210" y="648" on="0"/>
        <pt x="124" y="507" on="0"/>
        <pt x="124" y="346" on="1"/>
        <pt x="124" y="266" on="0"/>
        <pt x="140" y="163" on="0"/>
      </contour>
    </TTGlyph>
    <TTGlyph name="Oacute" xMin="60" yMin="-10" xMax="603" yMax="928">
      <contour>
        <pt x="124" y="185" on="0"/>
        <pt x="208" y="46" on="0"/>
        <pt x="455" y="46" on="0"/>
        <pt x="539" y="182" on="0"/>
        <pt x="539" y="501" on="0"/>
        <pt x="451" y="649" on="0"/>
        <pt x="331" y="649" on="1"/>
        <pt x="207" y="649" on="0"/>
        <pt x="164" y="569" on="1"/>
        <pt x="141" y="528" on="0"/>
        <pt x="124" y="422" on="0"/>
        <pt x="124" y="344" on="1"/>
      </contour>
      <contour>
        <pt x="603" y="156" on="0"/>
        <pt x="486" y="-10" on="0"/>
        <pt x="177" y="-10" on="0"/>
        <pt x="60" y="160" on="0"/>
        <pt x="60" y="527" on="0"/>
        <pt x="178" y="705" on="0"/>
        <pt x="484" y="705" on="0"/>
        <pt x="603" y="528" on="0"/>
      </contour>
      <contour>
        <pt x="206" y="829" on="1"/>
        <pt x="413" y="928" on="1"/>
        <pt x="435" y="874" on="1"/>
        <pt x="226" y="786" on="1"/>
      </contour>
    </TTGlyph>
    <TTGlyph name="Obreve" xMin="60" yMin="-10" xMax="603" yMax="920">
      <contour>
        <pt x="124" y="185" on="0"/>
        <pt x="208" y="46" on="0"/>
        <pt x="455" y="46" on="0"/>
        <pt x="539" y="182" on="0"/>
        <pt x="539" y="501" on="0"/>
        <pt x="451" y="649" on="0"/>
        <pt x="331" y="649" on="1"/>
        <pt x="207" y="649" on="0"/>
        <pt x="164" y="569" on="1"/>
        <pt x="141" y="528" on="0"/>
        <pt x="124" y="422" on="0"/>
        <pt x="124" y="344" on="1"/>
      </contour>
      <contour>
        <pt x="603" y="156" on="0"/>
        <pt x="486" y="-10" on="0"/>
        <pt x="177" y="-10" on="0"/>
        <pt x="60" y="160" on="0"/>
        <pt x="60" y="527" on="0"/>
        <pt x="178" y="705" on="0"/>
        <pt x="484" y="705" on="0"/>
        <pt x="603" y="528" on="0"/>
      </contour>
      <contour>
        <pt x="293" y="841" on="0"/>
        <pt x="371" y="841" on="0"/>
        <pt x="425" y="884" on="0"/>
        <pt x="426" y="920" on="1"/>
        <pt x="482" y="920" on="1"/>
        <pt x="481" y="863" on="0"/>
        <pt x="397" y="793" on="0"/>
        <pt x="267" y="793" on="0"/>
        <pt x="184" y="863" on="0"/>
        <pt x="182" y="920" on="1"/>
        <pt x="239" y="920" on="1"/>
        <pt x="240" y="884" on="0"/>
      </contour>
    </TTGlyph>
    <TTGlyph name="Ocircumflex" xMin="60" yMin="-10" xMax="603" yMax="929">
      <contour>
        <pt x="124" y="185" on="0"/>
        <pt x="208" y="46" on="0"/>
        <pt x="455" y="46" on="0"/>
        <pt x="539" y="182" on="0"/>
        <pt x="539" y="501" on="0"/>
        <pt x="451" y="649" on="0"/>
        <pt x="331" y="649" on="1"/>
        <pt x="207" y="649" on="0"/>
        <pt x="164" y="569" on="1"/>
        <pt x="141" y="528" on="0"/>
        <pt x="124" y="422" on="0"/>
        <pt x="124" y="344" on="1"/>
      </contour>
      <contour>
        <pt x="603" y="156" on="0"/>
        <pt x="486" y="-10" on="0"/>
        <pt x="177" y="-10" on="0"/>
        <pt x="60" y="160" on="0"/>
        <pt x="60" y="527" on="0"/>
        <pt x="178" y="705" on="0"/>
        <pt x="484" y="705" on="0"/>
        <pt x="603" y="528" on="0"/>
      </contour>
      <contour>
        <pt x="171" y="798" on="1"/>
        <pt x="305" y="929" on="1"/>
        <pt x="357" y="929" on="1"/>
        <pt x="491" y="798" on="1"/>
        <pt x="422" y="798" on="1"/>
        <pt x="332" y="884" on="1"/>
        <pt x="241" y="798" on="1"/>
      </contour>
    </TTGlyph>
    <TTGlyph name="Odieresis" xMin="60" yMin="-10" xMax="603" yMax="899">
      <contour>
        <pt x="124" y="185" on="0"/>
        <pt x="208" y="46" on="0"/>
        <pt x="455" y="46" on="0"/>
        <pt x="539" y="182" on="0"/>
        <pt x="539" y="501" on="0"/>
        <pt x="451" y="649" on="0"/>
        <pt x="331" y="649" on="1"/>
        <pt x="207" y="649" on="0"/>
        <pt x="164" y="569" on="1"/>
        <pt x="141" y="528" on="0"/>
        <pt x="124" y="422" on="0"/>
        <pt x="124" y="344" on="1"/>
      </contour>
      <contour>
        <pt x="603" y="156" on="0"/>
        <pt x="486" y="-10" on="0"/>
        <pt x="177" y="-10" on="0"/>
        <pt x="60" y="160" on="0"/>
        <pt x="60" y="527" on="0"/>
        <pt x="178" y="705" on="0"/>
        <pt x="484" y="705" on="0"/>
        <pt x="603" y="528" on="0"/>
      </contour>
      <contour>
        <pt x="202" y="819" on="1"/>
        <pt x="202" y="899" on="1"/>
        <pt x="261" y="899" on="1"/>
        <pt x="261" y="819" on="1"/>
      </contour>
      <contour>
        <pt x="403" y="819" on="1"/>
        <pt x="403" y="899" on="1"/>
        <pt x="461" y="899" on="1"/>
        <pt x="461" y="819" on="1"/>
      </contour>
    </TTGlyph>
    <TTGlyph name="Ograve" xMin="60" yMin="-10" xMax="603" yMax="928">
      <contour>
        <pt x="124" y="185" on="0"/>
        <pt x="208" y="46" on="0"/>
        <pt x="455" y="46" on="0"/>
        <pt x="539" y="182" on="0"/>
        <pt x="539" y="501" on="0"/>
        <pt x="451" y="649" on="0"/>
        <pt x="331" y="649" on="1"/>
        <pt x="207" y="649" on="0"/>
        <pt x="164" y="569" on="1"/>
        <pt x="141" y="528" on="0"/>
        <pt x="124" y="422" on="0"/>
        <pt x="124" y="344" on="1"/>
      </contour>
      <contour>
        <pt x="603" y="156" on="0"/>
        <pt x="486" y="-10" on="0"/>
        <pt x="177" y="-10" on="0"/>
        <pt x="60" y="160" on="0"/>
        <pt x="60" y="527" on="0"/>
        <pt x="178" y="705" on="0"/>
        <pt x="484" y="705" on="0"/>
        <pt x="603" y="528" on="0"/>
      </contour>
      <contour>
        <pt x="232" y="928" on="1"/>
        <pt x="439" y="829" on="1"/>
        <pt x="419" y="786" on="1"/>
        <pt x="210" y="874" on="1"/>
      </contour>
    </TTGlyph>
    <TTGlyph name="Ohungarumlaut" xMin="60" yMin="-10" xMax="603" yMax="902">
      <contour>
        <pt x="124" y="185" on="0"/>
        <pt x="208" y="46" on="0"/>
        <pt x="455" y="46" on="0"/>
        <pt x="539" y="182" on="0"/>
        <pt x="539" y="501" on="0"/>
        <pt x="451" y="649" on="0"/>
        <pt x="331" y="649" on="1"/>
        <pt x="207" y="649" on="0"/>
        <pt x="164" y="569" on="1"/>
        <pt x="141" y="528" on="0"/>
        <pt x="124" y="422" on="0"/>
        <pt x="124" y="344" on="1"/>
      </contour>
      <contour>
        <pt x="603" y="156" on="0"/>
        <pt x="486" y="-10" on="0"/>
        <pt x="177" y="-10" on="0"/>
        <pt x="60" y="160" on="0"/>
        <pt x="60" y="527" on="0"/>
        <pt x="178" y="705" on="0"/>
        <pt x="484" y="705" on="0"/>
        <pt x="603" y="528" on="0"/>
      </contour>
      <contour>
        <pt x="344" y="787" on="1"/>
        <pt x="504" y="901" on="1"/>
        <pt x="545" y="869" on="1"/>
        <pt x="381" y="755" on="1"/>
      </contour>
      <contour>
        <pt x="149" y="787" on="1"/>
        <pt x="310" y="902" on="1"/>
        <pt x="349" y="869" on="1"/>
        <pt x="187" y="756" on="1"/>
      </contour>
    </TTGlyph>
    <TTGlyph name="Omacron" xMin="60" yMin="-10" xMax="603" yMax="868">
      <contour>
        <pt x="124" y="185" on="0"/>
        <pt x="208" y="46" on="0"/>
        <pt x="455" y="46" on="0"/>
        <pt x="539" y="182" on="0"/>
        <pt x="539" y="501" on="0"/>
        <pt x="451" y="649" on="0"/>
        <pt x="331" y="649" on="1"/>
        <pt x="207" y="649" on="0"/>
        <pt x="164" y="569" on="1"/>
        <pt x="141" y="528" on="0"/>
        <pt x="124" y="422" on="0"/>
        <pt x="124" y="344" on="1"/>
      </contour>
      <contour>
        <pt x="603" y="156" on="0"/>
        <pt x="486" y="-10" on="0"/>
        <pt x="177" y="-10" on="0"/>
        <pt x="60" y="160" on="0"/>
        <pt x="60" y="527" on="0"/>
        <pt x="178" y="705" on="0"/>
        <pt x="484" y="705" on="0"/>
        <pt x="603" y="528" on="0"/>
      </contour>
      <contour>
        <pt x="180" y="819" on="1"/>
        <pt x="180" y="868" on="1"/>
        <pt x="482" y="868" on="1"/>
        <pt x="482" y="819" on="1"/>
      </contour>
    </TTGlyph>
    <TTGlyph name="Omega" xMin="44" yMin="-9" xMax="516" yMax="670">
      <contour>
        <pt x="44" y="45" on="1"/>
        <pt x="177" y="45" on="1"/>
        <pt x="164" y="66" on="0"/>
        <pt x="126" y="137" on="0"/>
        <pt x="63" y="312" on="0"/>
        <pt x="63" y="374" on="1"/>
        <pt x="63" y="529" on="0"/>
        <pt x="156" y="670" on="0"/>
        <pt x="404" y="670" on="0"/>
        <pt x="497" y="529" on="0"/>
        <pt x="497" y="374" on="1"/>
        <pt x="497" y="312" on="0"/>
        <pt x="439" y="148" on="0"/>
        <pt x="410" y="96" on="1"/>
        <pt x="382" y="45" on="1"/>
        <pt x="516" y="45" on="1"/>
        <pt x="516" y="-9" on="1"/>
        <pt x="322" y="-9" on="1"/>
        <pt x="322" y="37" on="1"/>
        <pt x="365" y="119" on="0"/>
        <pt x="433" y="307" on="0"/>
        <pt x="433" y="357" on="1"/>
        <pt x="433" y="498" on="0"/>
        <pt x="374" y="615" on="0"/>
        <pt x="280" y="615" on="1"/>
        <pt x="205" y="615" on="0"/>
        <pt x="168" y="574" on="1"/>
        <pt x="137" y="541" on="0"/>
        <pt x="130" y="450" on="1"/>
        <pt x="127" y="413" on="0"/>
        <pt x="127" y="307" on="0"/>
        <pt x="182" y="147" on="0"/>
        <pt x="210" y="92" on="1"/>
        <pt x="237" y="37" on="1"/>
        <pt x="237" y="-9" on="1"/>
        <pt x="44" y="-9" on="1"/>
      </contour>
    </TTGlyph>
    <TTGlyph name="Oslash" xMin="60" yMin="-114" xMax="603" yMax="796">
      <contour>
        <pt x="331" y="-10" on="1"/>
        <pt x="260" y="-10" on="0"/>
        <pt x="206" y="9" on="1"/>
        <pt x="149" y="-114" on="1"/>
        <pt x="102" y="-93" on="1"/>
        <pt x="161" y="33" on="1"/>
        <pt x="106" y="73" on="0"/>
        <pt x="60" y="224" on="0"/>
        <pt x="60" y="344" on="1"/>
        <pt x="60" y="527" on="0"/>
        <pt x="178" y="705" on="0"/>
        <pt x="331" y="705" on="1"/>
        <pt x="410" y="705" on="0"/>
        <pt x="464" y="681" on="1"/>
        <pt x="518" y="796" on="1"/>
        <pt x="565" y="777" on="1"/>
        <pt x="507" y="654" on="1"/>
        <pt x="603" y="577" on="0"/>
        <pt x="603" y="344" on="1"/>
        <pt x="603" y="156" on="0"/>
        <pt x="486" y="-10" on="0"/>
      </contour>
      <contour>
        <pt x="141" y="528" on="0"/>
        <pt x="124" y="422" on="0"/>
        <pt x="124" y="246" on="0"/>
        <pt x="151" y="124" on="0"/>
        <pt x="187" y="90" on="1"/>
        <pt x="439" y="627" on="1"/>
        <pt x="395" y="649" on="0"/>
        <pt x="268" y="649" on="0"/>
        <pt x="186" y="610" on="0"/>
      </contour>
      <contour>
        <pt x="331" y="46" on="1"/>
        <pt x="455" y="46" on="0"/>
        <pt x="539" y="182" on="0"/>
        <pt x="539" y="528" on="0"/>
        <pt x="480" y="595" on="1"/>
        <pt x="231" y="62" on="1"/>
        <pt x="270" y="46" on="0"/>
      </contour>
    </TTGlyph>
    <TTGlyph name="Oslashacute" xMin="61" yMin="-114" xMax="604" yMax="928">
      <contour>
        <pt x="332" y="-10" on="1"/>
        <pt x="261" y="-10" on="0"/>
        <pt x="207" y="9" on="1"/>
        <pt x="150" y="-114" on="1"/>
        <pt x="103" y="-93" on="1"/>
        <pt x="162" y="33" on="1"/>
        <pt x="107" y="73" on="0"/>
        <pt x="61" y="224" on="0"/>
        <pt x="61" y="344" on="1"/>
        <pt x="61" y="527" on="0"/>
        <pt x="179" y="705" on="0"/>
        <pt x="332" y="705" on="1"/>
        <pt x="411" y="705" on="0"/>
        <pt x="465" y="681" on="1"/>
        <pt x="519" y="796" on="1"/>
        <pt x="566" y="777" on="1"/>
        <pt x="508" y="654" on="1"/>
        <pt x="604" y="577" on="0"/>
        <pt x="604" y="344" on="1"/>
        <pt x="604" y="156" on="0"/>
        <pt x="487" y="-10" on="0"/>
      </contour>
      <contour>
        <pt x="142" y="528" on="0"/>
        <pt x="125" y="422" on="0"/>
        <pt x="125" y="246" on="0"/>
        <pt x="152" y="124" on="0"/>
        <pt x="188" y="90" on="1"/>
        <pt x="440" y="627" on="1"/>
        <pt x="396" y="649" on="0"/>
        <pt x="269" y="649" on="0"/>
        <pt x="187" y="610" on="0"/>
      </contour>
      <contour>
        <pt x="332" y="46" on="1"/>
        <pt x="456" y="46" on="0"/>
        <pt x="540" y="182" on="0"/>
        <pt x="540" y="528" on="0"/>
        <pt x="481" y="595" on="1"/>
        <pt x="232" y="62" on="1"/>
        <pt x="271" y="46" on="0"/>
      </contour>
      <contour>
        <pt x="219" y="829" on="1"/>
        <pt x="426" y="928" on="1"/>
        <pt x="448" y="874" on="1"/>
        <pt x="239" y="786" on="1"/>
      </contour>
    </TTGlyph>
    <TTGlyph name="Otilde" xMin="60" yMin="-10" xMax="603" yMax="923">
      <contour>
        <pt x="124" y="185" on="0"/>
        <pt x="208" y="46" on="0"/>
        <pt x="455" y="46" on="0"/>
        <pt x="539" y="182" on="0"/>
        <pt x="539" y="501" on="0"/>
        <pt x="451" y="649" on="0"/>
        <pt x="331" y="649" on="1"/>
        <pt x="207" y="649" on="0"/>
        <pt x="164" y="569" on="1"/>
        <pt x="141" y="528" on="0"/>
        <pt x="124" y="422" on="0"/>
        <pt x="124" y="344" on="1"/>
      </contour>
      <contour>
        <pt x="603" y="156" on="0"/>
        <pt x="486" y="-10" on="0"/>
        <pt x="177" y="-10" on="0"/>
        <pt x="60" y="160" on="0"/>
        <pt x="60" y="527" on="0"/>
        <pt x="178" y="705" on="0"/>
        <pt x="484" y="705" on="0"/>
        <pt x="603" y="528" on="0"/>
      </contour>
      <contour>
        <pt x="408" y="814" on="1"/>
        <pt x="388" y="814" on="0"/>
        <pt x="265" y="871" on="0"/>
        <pt x="252" y="871" on="1"/>
        <pt x="230" y="871" on="0"/>
        <pt x="192" y="834" on="1"/>
        <pt x="180" y="821" on="1"/>
        <pt x="165" y="867" on="1"/>
        <pt x="212" y="923" on="0"/>
        <pt x="250" y="923" on="1"/>
        <pt x="276" y="923" on="0"/>
        <pt x="398" y="868" on="0"/>
        <pt x="409" y="868" on="1"/>
        <pt x="428" y="868" on="0"/>
        <pt x="464" y="902" on="1"/>
        <pt x="476" y="914" on="1"/>
        <pt x="491" y="869" on="1"/>
        <pt x="445" y="814" on="0"/>
      </contour>
    </TTGlyph>
    <TTGlyph name="P" xMin="87" yMin="0" xMax="557" yMax="695">
      <contour>
        <pt x="341" y="242" on="1"/>
        <pt x="149" y="242" on="1"/>
        <pt x="149" y="0" on="1"/>
        <pt x="87" y="0" on="1"/>
        <pt x="87" y="695" on="1"/>
        <pt x="341" y="695" on="1"/>
        <pt x="452" y="695" on="0"/>
        <pt x="557" y="587" on="0"/>
        <pt x="557" y="475" on="1"/>
        <pt x="557" y="242" on="0"/>
      </contour>
      <contour>
        <pt x="149" y="297" on="1"/>
        <pt x="341" y="297" on="1"/>
        <pt x="493" y="297" on="0"/>
        <pt x="493" y="475" on="1"/>
        <pt x="493" y="560" on="0"/>
        <pt x="421" y="640" on="0"/>
        <pt x="341" y="640" on="1"/>
        <pt x="149" y="640" on="1"/>
      </contour>
    </TTGlyph>
    <TTGlyph name="Q" xMin="60" yMin="-143" xMax="603" yMax="705">
      <contour>
        <pt x="331" y="-10" on="1"/>
        <pt x="177" y="-10" on="0"/>
        <pt x="60" y="160" on="0"/>
        <pt x="60" y="527" on="0"/>
        <pt x="178" y="705" on="0"/>
        <pt x="484" y="705" on="0"/>
        <pt x="603" y="528" on="0"/>
        <pt x="603" y="344" on="1"/>
        <pt x="603" y="213" on="0"/>
        <pt x="550" y="59" on="0"/>
        <pt x="486" y="23" on="1"/>
        <pt x="571" y="-115" on="1"/>
        <pt x="512" y="-143" on="1"/>
        <pt x="425" y="1" on="1"/>
        <pt x="386" y="-10" on="0"/>
      </contour>
      <contour>
        <pt x="124" y="185" on="0"/>
        <pt x="208" y="46" on="0"/>
        <pt x="455" y="46" on="0"/>
        <pt x="539" y="181" on="0"/>
        <pt x="539" y="501" on="0"/>
        <pt x="451" y="649" on="0"/>
        <pt x="331" y="649" on="1"/>
        <pt x="207" y="649" on="0"/>
        <pt x="164" y="569" on="1"/>
        <pt x="141" y="528" on="0"/>
        <pt x="124" y="422" on="0"/>
        <pt x="124" y="344" on="1"/>
      </contour>
    </TTGlyph>
    <TTGlyph name="R" xMin="87" yMin="0" xMax="567" yMax="695">
      <contour>
        <pt x="149" y="274" on="1"/>
        <pt x="149" y="0" on="1"/>
        <pt x="87" y="0" on="1"/>
        <pt x="87" y="695" on="1"/>
        <pt x="342" y="695" on="1"/>
        <pt x="451" y="695" on="0"/>
        <pt x="558" y="596" on="0"/>
        <pt x="558" y="489" on="1"/>
        <pt x="558" y="322" on="0"/>
        <pt x="424" y="286" on="1"/>
        <pt x="567" y="0" on="1"/>
        <pt x="498" y="0" on="1"/>
        <pt x="361" y="274" on="1"/>
      </contour>
      <contour>
        <pt x="494" y="488" on="1"/>
        <pt x="494" y="566" on="0"/>
        <pt x="420" y="640" on="0"/>
        <pt x="342" y="640" on="1"/>
        <pt x="149" y="640" on="1"/>
        <pt x="149" y="329" on="1"/>
        <pt x="342" y="329" on="1"/>
        <pt x="494" y="329" on="0"/>
      </contour>
    </TTGlyph>
    <TTGlyph name="Racute" xMin="87" yMin="0" xMax="567" yMax="928">
      <contour>
        <pt x="149" y="274" on="1"/>
        <pt x="149" y="0" on="1"/>
        <pt x="87" y="0" on="1"/>
        <pt x="87" y="695" on="1"/>
        <pt x="342" y="695" on="1"/>
        <pt x="451" y="695" on="0"/>
        <pt x="558" y="596" on="0"/>
        <pt x="558" y="489" on="1"/>
        <pt x="558" y="322" on="0"/>
        <pt x="424" y="286" on="1"/>
        <pt x="567" y="0" on="1"/>
        <pt x="498" y="0" on="1"/>
        <pt x="361" y="274" on="1"/>
      </contour>
      <contour>
        <pt x="494" y="488" on="1"/>
        <pt x="494" y="566" on="0"/>
        <pt x="420" y="640" on="0"/>
        <pt x="342" y="640" on="1"/>
        <pt x="149" y="640" on="1"/>
        <pt x="149" y="329" on="1"/>
        <pt x="342" y="329" on="1"/>
        <pt x="494" y="329" on="0"/>
      </contour>
      <contour>
        <pt x="191" y="829" on="1"/>
        <pt x="398" y="928" on="1"/>
        <pt x="420" y="874" on="1"/>
        <pt x="211" y="786" on="1"/>
      </contour>
    </TTGlyph>
    <TTGlyph name="Rcaron" xMin="87" yMin="0" xMax="567" yMax="929">
      <contour>
        <pt x="149" y="274" on="1"/>
        <pt x="149" y="0" on="1"/>
        <pt x="87" y="0" on="1"/>
        <pt x="87" y="695" on="1"/>
        <pt x="342" y="695" on="1"/>
        <pt x="451" y="695" on="0"/>
        <pt x="558" y="596" on="0"/>
        <pt x="558" y="489" on="1"/>
        <pt x="558" y="322" on="0"/>
        <pt x="424" y="286" on="1"/>
        <pt x="567" y="0" on="1"/>
        <pt x="498" y="0" on="1"/>
        <pt x="361" y="274" on="1"/>
      </contour>
      <contour>
        <pt x="494" y="488" on="1"/>
        <pt x="494" y="566" on="0"/>
        <pt x="420" y="640" on="0"/>
        <pt x="342" y="640" on="1"/>
        <pt x="149" y="640" on="1"/>
        <pt x="149" y="329" on="1"/>
        <pt x="342" y="329" on="1"/>
        <pt x="494" y="329" on="0"/>
      </contour>
      <contour>
        <pt x="274" y="798" on="1"/>
        <pt x="140" y="929" on="1"/>
        <pt x="209" y="929" on="1"/>
        <pt x="300" y="843" on="1"/>
        <pt x="390" y="929" on="1"/>
        <pt x="460" y="929" on="1"/>
        <pt x="326" y="798" on="1"/>
      </contour>
    </TTGlyph>
    <TTGlyph name="Rcommaaccent" xMin="87" yMin="-278" xMax="567" yMax="695">
      <contour>
        <pt x="254" y="-278" on="1"/>
        <pt x="293" y="-78" on="1"/>
        <pt x="353" y="-78" on="1"/>
        <pt x="305" y="-278" on="1"/>
      </contour>
      <contour>
        <pt x="149" y="274" on="1"/>
        <pt x="149" y="0" on="1"/>
        <pt x="87" y="0" on="1"/>
        <pt x="87" y="695" on="1"/>
        <pt x="342" y="695" on="1"/>
        <pt x="451" y="695" on="0"/>
        <pt x="558" y="596" on="0"/>
        <pt x="558" y="489" on="1"/>
        <pt x="558" y="322" on="0"/>
        <pt x="424" y="286" on="1"/>
        <pt x="567" y="0" on="1"/>
        <pt x="498" y="0" on="1"/>
        <pt x="361" y="274" on="1"/>
      </contour>
      <contour>
        <pt x="494" y="488" on="1"/>
        <pt x="494" y="566" on="0"/>
        <pt x="420" y="640" on="0"/>
        <pt x="342" y="640" on="1"/>
        <pt x="149" y="640" on="1"/>
        <pt x="149" y="329" on="1"/>
        <pt x="342" y="329" on="1"/>
        <pt x="494" y="329" on="0"/>
      </contour>
    </TTGlyph>
    <TTGlyph name="S" xMin="51" yMin="-8" xMax="491" yMax="706">
      <contour>
        <pt x="275" y="651" on="1"/>
        <pt x="114" y="651" on="0"/>
        <pt x="114" y="528" on="1"/>
        <pt x="114" y="456" on="0"/>
        <pt x="187" y="406" on="0"/>
        <pt x="400" y="364" on="0"/>
        <pt x="491" y="290" on="0"/>
        <pt x="491" y="203" on="1"/>
        <pt x="491" y="91" on="0"/>
        <pt x="380" y="-8" on="0"/>
        <pt x="273" y="-8" on="1"/>
        <pt x="195" y="-8" on="0"/>
        <pt x="92" y="6" on="1"/>
        <pt x="56" y="11" on="1"/>
        <pt x="63" y="64" on="1"/>
        <pt x="200" y="47" on="0"/>
        <pt x="350" y="47" on="0"/>
        <pt x="428" y="120" on="0"/>
        <pt x="428" y="261" on="0"/>
        <pt x="359" y="312" on="0"/>
        <pt x="208" y="340" on="0"/>
        <pt x="138" y="363" on="0"/>
        <pt x="77" y="406" on="0"/>
        <pt x="51" y="473" on="0"/>
        <pt x="51" y="524" on="1"/>
        <pt x="51" y="706" on="0"/>
        <pt x="271" y="706" on="1"/>
        <pt x="337" y="706" on="0"/>
        <pt x="443" y="692" on="1"/>
        <pt x="476" y="687" on="1"/>
        <pt x="471" y="634" on="1"/>
        <pt x="333" y="651" on="0"/>
      </contour>
    </TTGlyph>
    <TTGlyph name="Sacute" xMin="51" yMin="-8" xMax="491" yMax="928">
      <contour>
        <pt x="275" y="651" on="1"/>
        <pt x="114" y="651" on="0"/>
        <pt x="114" y="528" on="1"/>
        <pt x="114" y="456" on="0"/>
        <pt x="187" y="406" on="0"/>
        <pt x="400" y="364" on="0"/>
        <pt x="491" y="290" on="0"/>
        <pt x="491" y="203" on="1"/>
        <pt x="491" y="91" on="0"/>
        <pt x="380" y="-8" on="0"/>
        <pt x="273" y="-8" on="1"/>
        <pt x="195" y="-8" on="0"/>
        <pt x="92" y="6" on="1"/>
        <pt x="56" y="11" on="1"/>
        <pt x="63" y="64" on="1"/>
        <pt x="200" y="47" on="0"/>
        <pt x="350" y="47" on="0"/>
        <pt x="428" y="120" on="0"/>
        <pt x="428" y="261" on="0"/>
        <pt x="359" y="312" on="0"/>
        <pt x="208" y="340" on="0"/>
        <pt x="138" y="363" on="0"/>
        <pt x="77" y="406" on="0"/>
        <pt x="51" y="473" on="0"/>
        <pt x="51" y="524" on="1"/>
        <pt x="51" y="706" on="0"/>
        <pt x="271" y="706" on="1"/>
        <pt x="337" y="706" on="0"/>
        <pt x="443" y="692" on="1"/>
        <pt x="476" y="687" on="1"/>
        <pt x="471" y="634" on="1"/>
        <pt x="333" y="651" on="0"/>
      </contour>
      <contour>
        <pt x="168" y="829" on="1"/>
        <pt x="375" y="928" on="1"/>
        <pt x="397" y="874" on="1"/>
        <pt x="188" y="786" on="1"/>
      </contour>
    </TTGlyph>
    <TTGlyph name="Scaron" xMin="51" yMin="-8" xMax="491" yMax="929">
      <contour>
        <pt x="275" y="651" on="1"/>
        <pt x="114" y="651" on="0"/>
        <pt x="114" y="528" on="1"/>
        <pt x="114" y="456" on="0"/>
        <pt x="187" y="406" on="0"/>
        <pt x="400" y="364" on="0"/>
        <pt x="491" y="290" on="0"/>
        <pt x="491" y="203" on="1"/>
        <pt x="491" y="91" on="0"/>
        <pt x="380" y="-8" on="0"/>
        <pt x="273" y="-8" on="1"/>
        <pt x="195" y="-8" on="0"/>
        <pt x="92" y="6" on="1"/>
        <pt x="56" y="11" on="1"/>
        <pt x="63" y="64" on="1"/>
        <pt x="200" y="47" on="0"/>
        <pt x="350" y="47" on="0"/>
        <pt x="428" y="120" on="0"/>
        <pt x="428" y="261" on="0"/>
        <pt x="359" y="312" on="0"/>
        <pt x="208" y="340" on="0"/>
        <pt x="138" y="363" on="0"/>
        <pt x="77" y="406" on="0"/>
        <pt x="51" y="473" on="0"/>
        <pt x="51" y="524" on="1"/>
        <pt x="51" y="706" on="0"/>
        <pt x="271" y="706" on="1"/>
        <pt x="337" y="706" on="0"/>
        <pt x="443" y="692" on="1"/>
        <pt x="476" y="687" on="1"/>
        <pt x="471" y="634" on="1"/>
        <pt x="333" y="651" on="0"/>
      </contour>
      <contour>
        <pt x="253" y="798" on="1"/>
        <pt x="119" y="929" on="1"/>
        <pt x="188" y="929" on="1"/>
        <pt x="279" y="843" on="1"/>
        <pt x="369" y="929" on="1"/>
        <pt x="439" y="929" on="1"/>
        <pt x="305" y="798" on="1"/>
      </contour>
    </TTGlyph>
    <TTGlyph name="Scedilla" xMin="51" yMin="-211" xMax="491" yMax="706">
      <contour>
        <pt x="404" y="-127" on="1"/>
        <pt x="404" y="-211" on="0"/>
        <pt x="315" y="-211" on="1"/>
        <pt x="231" y="-205" on="1"/>
        <pt x="233" y="-165" on="1"/>
        <pt x="274" y="-168" on="0"/>
        <pt x="304" y="-168" on="1"/>
        <pt x="349" y="-168" on="0"/>
        <pt x="349" y="-127" on="1"/>
        <pt x="349" y="-90" on="0"/>
        <pt x="304" y="-90" on="1"/>
        <pt x="257" y="-90" on="1"/>
        <pt x="257" y="-8" on="1"/>
        <pt x="177" y="-6" on="0"/>
        <pt x="88" y="6" on="1"/>
        <pt x="56" y="11" on="1"/>
        <pt x="63" y="64" on="1"/>
        <pt x="200" y="47" on="0"/>
        <pt x="350" y="47" on="0"/>
        <pt x="428" y="120" on="0"/>
        <pt x="428" y="261" on="0"/>
        <pt x="359" y="312" on="0"/>
        <pt x="208" y="340" on="0"/>
        <pt x="138" y="363" on="0"/>
        <pt x="77" y="406" on="0"/>
        <pt x="51" y="473" on="0"/>
        <pt x="51" y="524" on="1"/>
        <pt x="51" y="706" on="0"/>
        <pt x="271" y="706" on="1"/>
        <pt x="337" y="706" on="0"/>
        <pt x="443" y="692" on="1"/>
        <pt x="476" y="687" on="1"/>
        <pt x="471" y="634" on="1"/>
        <pt x="333" y="651" on="0"/>
        <pt x="275" y="651" on="1"/>
        <pt x="114" y="651" on="0"/>
        <pt x="114" y="528" on="1"/>
        <pt x="114" y="456" on="0"/>
        <pt x="187" y="406" on="0"/>
        <pt x="400" y="364" on="0"/>
        <pt x="491" y="290" on="0"/>
        <pt x="491" y="194" on="1"/>
        <pt x="491" y="3" on="0"/>
        <pt x="295" y="-7" on="1"/>
        <pt x="295" y="-52" on="1"/>
        <pt x="353" y="-52" on="0"/>
        <pt x="404" y="-83" on="0"/>
      </contour>
    </TTGlyph>
    <TTGlyph name="Scircumflex" xMin="51" yMin="-8" xMax="491" yMax="925">
      <contour>
        <pt x="275" y="651" on="1"/>
        <pt x="114" y="651" on="0"/>
        <pt x="114" y="528" on="1"/>
        <pt x="114" y="456" on="0"/>
        <pt x="187" y="406" on="0"/>
        <pt x="400" y="364" on="0"/>
        <pt x="491" y="290" on="0"/>
        <pt x="491" y="203" on="1"/>
        <pt x="491" y="91" on="0"/>
        <pt x="380" y="-8" on="0"/>
        <pt x="273" y="-8" on="1"/>
        <pt x="195" y="-8" on="0"/>
        <pt x="92" y="6" on="1"/>
        <pt x="56" y="11" on="1"/>
        <pt x="63" y="64" on="1"/>
        <pt x="200" y="47" on="0"/>
        <pt x="350" y="47" on="0"/>
        <pt x="428" y="120" on="0"/>
        <pt x="428" y="261" on="0"/>
        <pt x="359" y="312" on="0"/>
        <pt x="208" y="340" on="0"/>
        <pt x="138" y="363" on="0"/>
        <pt x="77" y="406" on="0"/>
        <pt x="51" y="473" on="0"/>
        <pt x="51" y="524" on="1"/>
        <pt x="51" y="706" on="0"/>
        <pt x="271" y="706" on="1"/>
        <pt x="337" y="706" on="0"/>
        <pt x="443" y="692" on="1"/>
        <pt x="476" y="687" on="1"/>
        <pt x="471" y="634" on="1"/>
        <pt x="333" y="651" on="0"/>
      </contour>
      <contour>
        <pt x="113" y="794" on="1"/>
        <pt x="247" y="925" on="1"/>
        <pt x="299" y="925" on="1"/>
        <pt x="433" y="794" on="1"/>
        <pt x="364" y="794" on="1"/>
        <pt x="274" y="880" on="1"/>
        <pt x="183" y="794" on="1"/>
      </contour>
    </TTGlyph>
    <TTGlyph name="Scommaaccent" xMin="51" yMin="-278" xMax="491" yMax="706">
      <contour>
        <pt x="258" y="-78" on="1"/>
        <pt x="318" y="-78" on="1"/>
        <pt x="270" y="-278" on="1"/>
        <pt x="218" y="-278" on="1"/>
      </contour>
      <contour>
        <pt x="275" y="651" on="1"/>
        <pt x="114" y="651" on="0"/>
        <pt x="114" y="528" on="1"/>
        <pt x="114" y="456" on="0"/>
        <pt x="187" y="406" on="0"/>
        <pt x="400" y="364" on="0"/>
        <pt x="491" y="290" on="0"/>
        <pt x="491" y="203" on="1"/>
        <pt x="491" y="91" on="0"/>
        <pt x="380" y="-8" on="0"/>
        <pt x="273" y="-8" on="1"/>
        <pt x="195" y="-8" on="0"/>
        <pt x="92" y="6" on="1"/>
        <pt x="56" y="11" on="1"/>
        <pt x="63" y="64" on="1"/>
        <pt x="200" y="47" on="0"/>
        <pt x="350" y="47" on="0"/>
        <pt x="428" y="120" on="0"/>
        <pt x="428" y="261" on="0"/>
        <pt x="359" y="312" on="0"/>
        <pt x="208" y="340" on="0"/>
        <pt x="138" y="363" on="0"/>
        <pt x="77" y="406" on="0"/>
        <pt x="51" y="473" on="0"/>
        <pt x="51" y="524" on="1"/>
        <pt x="51" y="706" on="0"/>
        <pt x="271" y="706" on="1"/>
        <pt x="337" y="706" on="0"/>
        <pt x="443" y="692" on="1"/>
        <pt x="476" y="687" on="1"/>
        <pt x="471" y="634" on="1"/>
        <pt x="333" y="651" on="0"/>
      </contour>
    </TTGlyph>
    <TTGlyph name="T" xMin="13" yMin="0" xMax="513" yMax="695">
      <contour>
        <pt x="13" y="639" on="1"/>
        <pt x="13" y="695" on="1"/>
        <pt x="513" y="695" on="1"/>
        <pt x="513" y="639" on="1"/>
        <pt x="295" y="639" on="1"/>
        <pt x="295" y="0" on="1"/>
        <pt x="233" y="0" on="1"/>
        <pt x="233" y="639" on="1"/>
      </contour>
    </TTGlyph>
    <TTGlyph name="Tbar" xMin="15" yMin="0" xMax="515" yMax="695">
      <contour>
        <pt x="15" y="639" on="1"/>
        <pt x="15" y="695" on="1"/>
        <pt x="515" y="695" on="1"/>
        <pt x="515" y="639" on="1"/>
        <pt x="297" y="639" on="1"/>
        <pt x="297" y="365" on="1"/>
        <pt x="467" y="365" on="1"/>
        <pt x="467" y="312" on="1"/>
        <pt x="297" y="312" on="1"/>
        <pt x="297" y="0" on="1"/>
        <pt x="235" y="0" on="1"/>
        <pt x="235" y="312" on="1"/>
        <pt x="65" y="312" on="1"/>
        <pt x="65" y="365" on="1"/>
        <pt x="235" y="365" on="1"/>
        <pt x="235" y="639" on="1"/>
      </contour>
    </TTGlyph>
    <TTGlyph name="Tcaron" xMin="13" yMin="0" xMax="513" yMax="929">
      <contour>
        <pt x="13" y="639" on="1"/>
        <pt x="13" y="695" on="1"/>
        <pt x="513" y="695" on="1"/>
        <pt x="513" y="639" on="1"/>
        <pt x="295" y="639" on="1"/>
        <pt x="295" y="0" on="1"/>
        <pt x="233" y="0" on="1"/>
        <pt x="233" y="639" on="1"/>
      </contour>
      <contour>
        <pt x="238" y="798" on="1"/>
        <pt x="104" y="929" on="1"/>
        <pt x="173" y="929" on="1"/>
        <pt x="264" y="843" on="1"/>
        <pt x="354" y="929" on="1"/>
        <pt x="424" y="929" on="1"/>
        <pt x="290" y="798" on="1"/>
      </contour>
    </TTGlyph>
    <TTGlyph name="Tcommaaccent" xMin="13" yMin="-278" xMax="513" yMax="695">
      <contour>
        <pt x="252" y="-78" on="1"/>
        <pt x="312" y="-78" on="1"/>
        <pt x="264" y="-278" on="1"/>
        <pt x="213" y="-278" on="1"/>
      </contour>
      <contour>
        <pt x="13" y="639" on="1"/>
        <pt x="13" y="695" on="1"/>
        <pt x="513" y="695" on="1"/>
        <pt x="513" y="639" on="1"/>
        <pt x="295" y="639" on="1"/>
        <pt x="295" y="0" on="1"/>
        <pt x="233" y="0" on="1"/>
        <pt x="233" y="639" on="1"/>
      </contour>
    </TTGlyph>
    <TTGlyph name="Thorn" xMin="87" yMin="0" xMax="557" yMax="697">
      <contour>
        <pt x="341" y="185" on="1"/>
        <pt x="494" y="185" on="0"/>
        <pt x="494" y="363" on="1"/>
        <pt x="494" y="446" on="0"/>
        <pt x="421" y="523" on="0"/>
        <pt x="341" y="523" on="1"/>
        <pt x="149" y="523" on="1"/>
        <pt x="149" y="185" on="1"/>
      </contour>
      <contour>
        <pt x="341" y="126" on="1"/>
        <pt x="149" y="126" on="1"/>
        <pt x="149" y="0" on="1"/>
        <pt x="87" y="0" on="1"/>
        <pt x="87" y="697" on="1"/>
        <pt x="149" y="697" on="1"/>
        <pt x="149" y="581" on="1"/>
        <pt x="341" y="581" on="1"/>
        <pt x="452" y="581" on="0"/>
        <pt x="557" y="475" on="0"/>
        <pt x="557" y="249" on="0"/>
        <pt x="450" y="126" on="0"/>
      </contour>
    </TTGlyph>
    <TTGlyph name="U" xMin="83" yMin="-10" xMax="559" yMax="695">
      <contour>
        <pt x="144" y="204" on="1"/>
        <pt x="144" y="46" on="0"/>
        <pt x="317" y="46" on="1"/>
        <pt x="407" y="46" on="0"/>
        <pt x="497" y="120" on="0"/>
        <pt x="497" y="204" on="1"/>
        <pt x="497" y="695" on="1"/>
        <pt x="559" y="695" on="1"/>
        <pt x="559" y="204" on="1"/>
        <pt x="559" y="91" on="0"/>
        <pt x="437" y="-10" on="0"/>
        <pt x="202" y="-10" on="0"/>
        <pt x="83" y="91" on="0"/>
        <pt x="83" y="204" on="1"/>
        <pt x="83" y="695" on="1"/>
        <pt x="144" y="695" on="1"/>
      </contour>
    </TTGlyph>
    <TTGlyph name="Uacute" xMin="83" yMin="-10" xMax="559" yMax="928">
      <contour>
        <pt x="144" y="204" on="1"/>
        <pt x="144" y="46" on="0"/>
        <pt x="317" y="46" on="1"/>
        <pt x="407" y="46" on="0"/>
        <pt x="497" y="120" on="0"/>
        <pt x="497" y="204" on="1"/>
        <pt x="497" y="695" on="1"/>
        <pt x="559" y="695" on="1"/>
        <pt x="559" y="204" on="1"/>
        <pt x="559" y="91" on="0"/>
        <pt x="437" y="-10" on="0"/>
        <pt x="202" y="-10" on="0"/>
        <pt x="83" y="91" on="0"/>
        <pt x="83" y="204" on="1"/>
        <pt x="83" y="695" on="1"/>
        <pt x="144" y="695" on="1"/>
      </contour>
      <contour>
        <pt x="205" y="829" on="1"/>
        <pt x="412" y="928" on="1"/>
        <pt x="434" y="874" on="1"/>
        <pt x="225" y="786" on="1"/>
      </contour>
    </TTGlyph>
    <TTGlyph name="Ubreve" xMin="83" yMin="-10" xMax="559" yMax="920">
      <contour>
        <pt x="144" y="204" on="1"/>
        <pt x="144" y="46" on="0"/>
        <pt x="317" y="46" on="1"/>
        <pt x="407" y="46" on="0"/>
        <pt x="497" y="120" on="0"/>
        <pt x="497" y="204" on="1"/>
        <pt x="497" y="695" on="1"/>
        <pt x="559" y="695" on="1"/>
        <pt x="559" y="204" on="1"/>
        <pt x="559" y="91" on="0"/>
        <pt x="437" y="-10" on="0"/>
        <pt x="202" y="-10" on="0"/>
        <pt x="83" y="91" on="0"/>
        <pt x="83" y="204" on="1"/>
        <pt x="83" y="695" on="1"/>
        <pt x="144" y="695" on="1"/>
      </contour>
      <contour>
        <pt x="283" y="841" on="0"/>
        <pt x="361" y="841" on="0"/>
        <pt x="415" y="884" on="0"/>
        <pt x="416" y="920" on="1"/>
        <pt x="472" y="920" on="1"/>
        <pt x="471" y="863" on="0"/>
        <pt x="387" y="793" on="0"/>
        <pt x="257" y="793" on="0"/>
        <pt x="174" y="863" on="0"/>
        <pt x="172" y="920" on="1"/>
        <pt x="229" y="920" on="1"/>
        <pt x="230" y="884" on="0"/>
      </contour>
    </TTGlyph>
    <TTGlyph name="Ucircumflex" xMin="83" yMin="-10" xMax="559" yMax="929">
      <contour>
        <pt x="144" y="204" on="1"/>
        <pt x="144" y="46" on="0"/>
        <pt x="317" y="46" on="1"/>
        <pt x="407" y="46" on="0"/>
        <pt x="497" y="120" on="0"/>
        <pt x="497" y="204" on="1"/>
        <pt x="497" y="695" on="1"/>
        <pt x="559" y="695" on="1"/>
        <pt x="559" y="204" on="1"/>
        <pt x="559" y="91" on="0"/>
        <pt x="437" y="-10" on="0"/>
        <pt x="202" y="-10" on="0"/>
        <pt x="83" y="91" on="0"/>
        <pt x="83" y="204" on="1"/>
        <pt x="83" y="695" on="1"/>
        <pt x="144" y="695" on="1"/>
      </contour>
      <contour>
        <pt x="160" y="798" on="1"/>
        <pt x="294" y="929" on="1"/>
        <pt x="346" y="929" on="1"/>
        <pt x="480" y="798" on="1"/>
        <pt x="411" y="798" on="1"/>
        <pt x="321" y="884" on="1"/>
        <pt x="230" y="798" on="1"/>
      </contour>
    </TTGlyph>
    <TTGlyph name="Udieresis" xMin="83" yMin="-10" xMax="559" yMax="899">
      <contour>
        <pt x="144" y="204" on="1"/>
        <pt x="144" y="46" on="0"/>
        <pt x="317" y="46" on="1"/>
        <pt x="407" y="46" on="0"/>
        <pt x="497" y="120" on="0"/>
        <pt x="497" y="204" on="1"/>
        <pt x="497" y="695" on="1"/>
        <pt x="559" y="695" on="1"/>
        <pt x="559" y="204" on="1"/>
        <pt x="559" y="91" on="0"/>
        <pt x="437" y="-10" on="0"/>
        <pt x="202" y="-10" on="0"/>
        <pt x="83" y="91" on="0"/>
        <pt x="83" y="204" on="1"/>
        <pt x="83" y="695" on="1"/>
        <pt x="144" y="695" on="1"/>
      </contour>
      <contour>
        <pt x="191" y="819" on="1"/>
        <pt x="191" y="899" on="1"/>
        <pt x="250" y="899" on="1"/>
        <pt x="250" y="819" on="1"/>
      </contour>
      <contour>
        <pt x="392" y="819" on="1"/>
        <pt x="392" y="899" on="1"/>
        <pt x="450" y="899" on="1"/>
        <pt x="450" y="819" on="1"/>
      </contour>
    </TTGlyph>
    <TTGlyph name="Ugrave" xMin="83" yMin="-10" xMax="559" yMax="928">
      <contour>
        <pt x="144" y="204" on="1"/>
        <pt x="144" y="46" on="0"/>
        <pt x="317" y="46" on="1"/>
        <pt x="407" y="46" on="0"/>
        <pt x="497" y="120" on="0"/>
        <pt x="497" y="204" on="1"/>
        <pt x="497" y="695" on="1"/>
        <pt x="559" y="695" on="1"/>
        <pt x="559" y="204" on="1"/>
        <pt x="559" y="91" on="0"/>
        <pt x="437" y="-10" on="0"/>
        <pt x="202" y="-10" on="0"/>
        <pt x="83" y="91" on="0"/>
        <pt x="83" y="204" on="1"/>
        <pt x="83" y="695" on="1"/>
        <pt x="144" y="695" on="1"/>
      </contour>
      <contour>
        <pt x="223" y="928" on="1"/>
        <pt x="430" y="829" on="1"/>
        <pt x="410" y="786" on="1"/>
        <pt x="201" y="874" on="1"/>
      </contour>
    </TTGlyph>
    <TTGlyph name="Uhungarumlaut" xMin="83" yMin="-10" xMax="559" yMax="902">
      <contour>
        <pt x="144" y="204" on="1"/>
        <pt x="144" y="46" on="0"/>
        <pt x="317" y="46" on="1"/>
        <pt x="407" y="46" on="0"/>
        <pt x="497" y="120" on="0"/>
        <pt x="497" y="204" on="1"/>
        <pt x="497" y="695" on="1"/>
        <pt x="559" y="695" on="1"/>
        <pt x="559" y="204" on="1"/>
        <pt x="559" y="91" on="0"/>
        <pt x="437" y="-10" on="0"/>
        <pt x="202" y="-10" on="0"/>
        <pt x="83" y="91" on="0"/>
        <pt x="83" y="204" on="1"/>
        <pt x="83" y="695" on="1"/>
        <pt x="144" y="695" on="1"/>
      </contour>
      <contour>
        <pt x="350" y="787" on="1"/>
        <pt x="510" y="901" on="1"/>
        <pt x="551" y="869" on="1"/>
        <pt x="387" y="755" on="1"/>
      </contour>
      <contour>
        <pt x="155" y="787" on="1"/>
        <pt x="316" y="902" on="1"/>
        <pt x="355" y="869" on="1"/>
        <pt x="193" y="756" on="1"/>
      </contour>
    </TTGlyph>
    <TTGlyph name="Umacron" xMin="83" yMin="-10" xMax="559" yMax="868">
      <contour>
        <pt x="144" y="204" on="1"/>
        <pt x="144" y="46" on="0"/>
        <pt x="317" y="46" on="1"/>
        <pt x="407" y="46" on="0"/>
        <pt x="497" y="120" on="0"/>
        <pt x="497" y="204" on="1"/>
        <pt x="497" y="695" on="1"/>
        <pt x="559" y="695" on="1"/>
        <pt x="559" y="204" on="1"/>
        <pt x="559" y="91" on="0"/>
        <pt x="437" y="-10" on="0"/>
        <pt x="202" y="-10" on="0"/>
        <pt x="83" y="91" on="0"/>
        <pt x="83" y="204" on="1"/>
        <pt x="83" y="695" on="1"/>
        <pt x="144" y="695" on="1"/>
      </contour>
      <contour>
        <pt x="171" y="819" on="1"/>
        <pt x="171" y="868" on="1"/>
        <pt x="473" y="868" on="1"/>
        <pt x="473" y="819" on="1"/>
      </contour>
    </TTGlyph>
    <TTGlyph name="Uogonek" xMin="82" yMin="-204" xMax="558" yMax="695">
      <contour>
        <pt x="143" y="204" on="1"/>
        <pt x="143" y="46" on="0"/>
        <pt x="316" y="46" on="1"/>
        <pt x="406" y="46" on="0"/>
        <pt x="496" y="120" on="0"/>
        <pt x="496" y="204" on="1"/>
        <pt x="496" y="695" on="1"/>
        <pt x="558" y="695" on="1"/>
        <pt x="558" y="204" on="1"/>
        <pt x="558" y="34" on="0"/>
        <pt x="412" y="0" on="1"/>
        <pt x="380" y="-32" on="0"/>
        <pt x="338" y="-93" on="0"/>
        <pt x="338" y="-127" on="0"/>
        <pt x="362" y="-153" on="0"/>
        <pt x="381" y="-153" on="1"/>
        <pt x="433" y="-147" on="1"/>
        <pt x="439" y="-195" on="1"/>
        <pt x="398" y="-204" on="0"/>
        <pt x="328" y="-204" on="0"/>
        <pt x="279" y="-158" on="0"/>
        <pt x="279" y="-76" on="0"/>
        <pt x="343" y="-9" on="1"/>
        <pt x="334" y="-10" on="0"/>
        <pt x="316" y="-10" on="1"/>
        <pt x="201" y="-10" on="0"/>
        <pt x="82" y="91" on="0"/>
        <pt x="82" y="204" on="1"/>
        <pt x="82" y="695" on="1"/>
        <pt x="143" y="695" on="1"/>
      </contour>
    </TTGlyph>
    <TTGlyph name="Uring" xMin="83" yMin="-10" xMax="559" yMax="947">
      <contour>
        <pt x="144" y="204" on="1"/>
        <pt x="144" y="46" on="0"/>
        <pt x="317" y="46" on="1"/>
        <pt x="407" y="46" on="0"/>
        <pt x="497" y="120" on="0"/>
        <pt x="497" y="204" on="1"/>
        <pt x="497" y="695" on="1"/>
        <pt x="559" y="695" on="1"/>
        <pt x="559" y="204" on="1"/>
        <pt x="559" y="91" on="0"/>
        <pt x="437" y="-10" on="0"/>
        <pt x="202" y="-10" on="0"/>
        <pt x="83" y="91" on="0"/>
        <pt x="83" y="204" on="1"/>
        <pt x="83" y="695" on="1"/>
        <pt x="144" y="695" on="1"/>
      </contour>
      <contour>
        <pt x="371" y="947" on="0"/>
        <pt x="432" y="893" on="0"/>
        <pt x="432" y="800" on="0"/>
        <pt x="371" y="746" on="0"/>
        <pt x="273" y="746" on="0"/>
        <pt x="212" y="800" on="0"/>
        <pt x="212" y="893" on="0"/>
        <pt x="273" y="947" on="0"/>
      </contour>
      <contour>
        <pt x="259" y="874" on="0"/>
        <pt x="259" y="820" on="0"/>
        <pt x="292" y="790" on="0"/>
        <pt x="352" y="790" on="0"/>
        <pt x="385" y="820" on="0"/>
        <pt x="385" y="874" on="0"/>
        <pt x="352" y="903" on="0"/>
        <pt x="292" y="903" on="0"/>
      </contour>
    </TTGlyph>
    <TTGlyph name="Utilde" xMin="83" yMin="-10" xMax="559" yMax="923">
      <contour>
        <pt x="144" y="204" on="1"/>
        <pt x="144" y="46" on="0"/>
        <pt x="317" y="46" on="1"/>
        <pt x="407" y="46" on="0"/>
        <pt x="497" y="120" on="0"/>
        <pt x="497" y="204" on="1"/>
        <pt x="497" y="695" on="1"/>
        <pt x="559" y="695" on="1"/>
        <pt x="559" y="204" on="1"/>
        <pt x="559" y="91" on="0"/>
        <pt x="437" y="-10" on="0"/>
        <pt x="202" y="-10" on="0"/>
        <pt x="83" y="91" on="0"/>
        <pt x="83" y="204" on="1"/>
        <pt x="83" y="695" on="1"/>
        <pt x="144" y="695" on="1"/>
      </contour>
      <contour>
        <pt x="401" y="814" on="1"/>
        <pt x="381" y="814" on="0"/>
        <pt x="258" y="871" on="0"/>
        <pt x="246" y="871" on="1"/>
        <pt x="223" y="871" on="0"/>
        <pt x="186" y="834" on="1"/>
        <pt x="173" y="821" on="1"/>
        <pt x="158" y="867" on="1"/>
        <pt x="205" y="923" on="0"/>
        <pt x="243" y="923" on="1"/>
        <pt x="268" y="923" on="0"/>
        <pt x="390" y="868" on="0"/>
        <pt x="402" y="868" on="1"/>
        <pt x="421" y="868" on="0"/>
        <pt x="457" y="902" on="1"/>
        <pt x="469" y="914" on="1"/>
        <pt x="484" y="869" on="1"/>
        <pt x="438" y="814" on="0"/>
      </contour>
    </TTGlyph>
    <TTGlyph name="V" xMin="26" yMin="0" xMax="550" yMax="695">
      <contour>
        <pt x="487" y="695" on="1"/>
        <pt x="550" y="695" on="1"/>
        <pt x="364" y="0" on="1"/>
        <pt x="213" y="0" on="1"/>
        <pt x="26" y="695" on="1"/>
        <pt x="90" y="695" on="1"/>
        <pt x="259" y="55" on="1"/>
        <pt x="318" y="55" on="1"/>
      </contour>
    </TTGlyph>
    <TTGlyph name="W" xMin="33" yMin="0" xMax="841" yMax="695">
      <contour>
        <pt x="33" y="695" on="1"/>
        <pt x="96" y="695" on="1"/>
        <pt x="222" y="55" on="1"/>
        <pt x="255" y="55" on="1"/>
        <pt x="401" y="687" on="1"/>
        <pt x="474" y="687" on="1"/>
        <pt x="619" y="55" on="1"/>
        <pt x="652" y="55" on="1"/>
        <pt x="778" y="695" on="1"/>
        <pt x="841" y="695" on="1"/>
        <pt x="698" y="0" on="1"/>
        <pt x="574" y="0" on="1"/>
        <pt x="437" y="610" on="1"/>
        <pt x="300" y="0" on="1"/>
        <pt x="176" y="0" on="1"/>
      </contour>
    </TTGlyph>
    <TTGlyph name="Wacute" xMin="33" yMin="0" xMax="841" yMax="928">
      <contour>
        <pt x="33" y="695" on="1"/>
        <pt x="96" y="695" on="1"/>
        <pt x="222" y="55" on="1"/>
        <pt x="255" y="55" on="1"/>
        <pt x="401" y="687" on="1"/>
        <pt x="474" y="687" on="1"/>
        <pt x="619" y="55" on="1"/>
        <pt x="652" y="55" on="1"/>
        <pt x="778" y="695" on="1"/>
        <pt x="841" y="695" on="1"/>
        <pt x="698" y="0" on="1"/>
        <pt x="574" y="0" on="1"/>
        <pt x="437" y="610" on="1"/>
        <pt x="300" y="0" on="1"/>
        <pt x="176" y="0" on="1"/>
      </contour>
      <contour>
        <pt x="332" y="829" on="1"/>
        <pt x="539" y="928" on="1"/>
        <pt x="561" y="874" on="1"/>
        <pt x="352" y="786" on="1"/>
      </contour>
    </TTGlyph>
    <TTGlyph name="Wcircumflex" xMin="33" yMin="0" xMax="841" yMax="925">
      <contour>
        <pt x="33" y="695" on="1"/>
        <pt x="96" y="695" on="1"/>
        <pt x="222" y="55" on="1"/>
        <pt x="255" y="55" on="1"/>
        <pt x="401" y="687" on="1"/>
        <pt x="474" y="687" on="1"/>
        <pt x="619" y="55" on="1"/>
        <pt x="652" y="55" on="1"/>
        <pt x="778" y="695" on="1"/>
        <pt x="841" y="695" on="1"/>
        <pt x="698" y="0" on="1"/>
        <pt x="574" y="0" on="1"/>
        <pt x="437" y="610" on="1"/>
        <pt x="300" y="0" on="1"/>
        <pt x="176" y="0" on="1"/>
      </contour>
      <contour>
        <pt x="277" y="794" on="1"/>
        <pt x="411" y="925" on="1"/>
        <pt x="463" y="925" on="1"/>
        <pt x="597" y="794" on="1"/>
        <pt x="528" y="794" on="1"/>
        <pt x="438" y="880" on="1"/>
        <pt x="347" y="794" on="1"/>
      </contour>
    </TTGlyph>
    <TTGlyph name="Wdieresis" xMin="33" yMin="0" xMax="841" yMax="899">
      <contour>
        <pt x="33" y="695" on="1"/>
        <pt x="96" y="695" on="1"/>
        <pt x="222" y="55" on="1"/>
        <pt x="255" y="55" on="1"/>
        <pt x="401" y="687" on="1"/>
        <pt x="474" y="687" on="1"/>
        <pt x="619" y="55" on="1"/>
        <pt x="652" y="55" on="1"/>
        <pt x="778" y="695" on="1"/>
        <pt x="841" y="695" on="1"/>
        <pt x="698" y="0" on="1"/>
        <pt x="574" y="0" on="1"/>
        <pt x="437" y="610" on="1"/>
        <pt x="300" y="0" on="1"/>
        <pt x="176" y="0" on="1"/>
      </contour>
      <contour>
        <pt x="307" y="819" on="1"/>
        <pt x="307" y="899" on="1"/>
        <pt x="366" y="899" on="1"/>
        <pt x="366" y="819" on="1"/>
      </contour>
      <contour>
        <pt x="508" y="819" on="1"/>
        <pt x="508" y="899" on="1"/>
        <pt x="566" y="899" on="1"/>
        <pt x="566" y="819" on="1"/>
      </contour>
    </TTGlyph>
    <TTGlyph name="Wgrave" xMin="33" yMin="0" xMax="841" yMax="928">
      <contour>
        <pt x="33" y="695" on="1"/>
        <pt x="96" y="695" on="1"/>
        <pt x="222" y="55" on="1"/>
        <pt x="255" y="55" on="1"/>
        <pt x="401" y="687" on="1"/>
        <pt x="474" y="687" on="1"/>
        <pt x="619" y="55" on="1"/>
        <pt x="652" y="55" on="1"/>
        <pt x="778" y="695" on="1"/>
        <pt x="841" y="695" on="1"/>
        <pt x="698" y="0" on="1"/>
        <pt x="574" y="0" on="1"/>
        <pt x="437" y="610" on="1"/>
        <pt x="300" y="0" on="1"/>
        <pt x="176" y="0" on="1"/>
      </contour>
      <contour>
        <pt x="339" y="928" on="1"/>
        <pt x="546" y="829" on="1"/>
        <pt x="526" y="786" on="1"/>
        <pt x="317" y="874" on="1"/>
      </contour>
    </TTGlyph>
    <TTGlyph name="X" xMin="21" yMin="0" xMax="534" yMax="695">
      <contour>
        <pt x="91" y="695" on="1"/>
        <pt x="279" y="388" on="1"/>
        <pt x="466" y="695" on="1"/>
        <pt x="534" y="695" on="1"/>
        <pt x="318" y="343" on="1"/>
        <pt x="534" y="0" on="1"/>
        <pt x="464" y="0" on="1"/>
        <pt x="278" y="300" on="1"/>
        <pt x="89" y="0" on="1"/>
        <pt x="21" y="0" on="1"/>
        <pt x="239" y="342" on="1"/>
        <pt x="21" y="695" on="1"/>
      </contour>
    </TTGlyph>
    <TTGlyph name="Y" xMin="13" yMin="0" xMax="521" yMax="695">
      <contour>
        <pt x="298" y="0" on="1"/>
        <pt x="236" y="0" on="1"/>
        <pt x="236" y="294" on="1"/>
        <pt x="13" y="695" on="1"/>
        <pt x="82" y="695" on="1"/>
        <pt x="267" y="358" on="1"/>
        <pt x="451" y="695" on="1"/>
        <pt x="521" y="695" on="1"/>
        <pt x="298" y="294" on="1"/>
      </contour>
    </TTGlyph>
    <TTGlyph name="Yacute" xMin="13" yMin="0" xMax="521" yMax="928">
      <contour>
        <pt x="298" y="0" on="1"/>
        <pt x="236" y="0" on="1"/>
        <pt x="236" y="294" on="1"/>
        <pt x="13" y="695" on="1"/>
        <pt x="82" y="695" on="1"/>
        <pt x="267" y="358" on="1"/>
        <pt x="451" y="695" on="1"/>
        <pt x="521" y="695" on="1"/>
        <pt x="298" y="294" on="1"/>
      </contour>
      <contour>
        <pt x="175" y="829" on="1"/>
        <pt x="382" y="928" on="1"/>
        <pt x="404" y="874" on="1"/>
        <pt x="195" y="786" on="1"/>
      </contour>
    </TTGlyph>
    <TTGlyph name="Ycircumflex" xMin="13" yMin="0" xMax="521" yMax="929">
      <contour>
        <pt x="298" y="0" on="1"/>
        <pt x="236" y="0" on="1"/>
        <pt x="236" y="294" on="1"/>
        <pt x="13" y="695" on="1"/>
        <pt x="82" y="695" on="1"/>
        <pt x="267" y="358" on="1"/>
        <pt x="451" y="695" on="1"/>
        <pt x="521" y="695" on="1"/>
        <pt x="298" y="294" on="1"/>
      </contour>
      <contour>
        <pt x="107" y="798" on="1"/>
        <pt x="241" y="929" on="1"/>
        <pt x="293" y="929" on="1"/>
        <pt x="427" y="798" on="1"/>
        <pt x="358" y="798" on="1"/>
        <pt x="268" y="884" on="1"/>
        <pt x="177" y="798" on="1"/>
      </contour>
    </TTGlyph>
    <TTGlyph name="Ydieresis" xMin="13" yMin="0" xMax="521" yMax="899">
      <contour>
        <pt x="298" y="0" on="1"/>
        <pt x="236" y="0" on="1"/>
        <pt x="236" y="294" on="1"/>
        <pt x="13" y="695" on="1"/>
        <pt x="82" y="695" on="1"/>
        <pt x="267" y="358" on="1"/>
        <pt x="451" y="695" on="1"/>
        <pt x="521" y="695" on="1"/>
        <pt x="298" y="294" on="1"/>
      </contour>
      <contour>
        <pt x="136" y="819" on="1"/>
        <pt x="136" y="899" on="1"/>
        <pt x="195" y="899" on="1"/>
        <pt x="195" y="819" on="1"/>
      </contour>
      <contour>
        <pt x="337" y="819" on="1"/>
        <pt x="337" y="899" on="1"/>
        <pt x="395" y="899" on="1"/>
        <pt x="395" y="819" on="1"/>
      </contour>
    </TTGlyph>
    <TTGlyph name="Ygrave" xMin="13" yMin="0" xMax="521" yMax="928">
      <contour>
        <pt x="298" y="0" on="1"/>
        <pt x="236" y="0" on="1"/>
        <pt x="236" y="294" on="1"/>
        <pt x="13" y="695" on="1"/>
        <pt x="82" y="695" on="1"/>
        <pt x="267" y="358" on="1"/>
        <pt x="451" y="695" on="1"/>
        <pt x="521" y="695" on="1"/>
        <pt x="298" y="294" on="1"/>
      </contour>
      <contour>
        <pt x="161" y="928" on="1"/>
        <pt x="368" y="829" on="1"/>
        <pt x="348" y="786" on="1"/>
        <pt x="139" y="874" on="1"/>
      </contour>
    </TTGlyph>
    <TTGlyph name="Z" xMin="43" yMin="-1" xMax="493" yMax="695">
      <contour>
        <pt x="43" y="639" on="1"/>
        <pt x="43" y="695" on="1"/>
        <pt x="493" y="695" on="1"/>
        <pt x="493" y="612" on="1"/>
        <pt x="112" y="76" on="1"/>
        <pt x="112" y="55" on="1"/>
        <pt x="493" y="55" on="1"/>
        <pt x="493" y="-1" on="1"/>
        <pt x="43" y="-1" on="1"/>
        <pt x="43" y="81" on="1"/>
        <pt x="424" y="617" on="1"/>
        <pt x="424" y="639" on="1"/>
      </contour>
    </TTGlyph>
    <TTGlyph name="Zacute" xMin="43" yMin="-1" xMax="493" yMax="928">
      <contour>
        <pt x="43" y="639" on="1"/>
        <pt x="43" y="695" on="1"/>
        <pt x="493" y="695" on="1"/>
        <pt x="493" y="612" on="1"/>
        <pt x="112" y="76" on="1"/>
        <pt x="112" y="55" on="1"/>
        <pt x="493" y="55" on="1"/>
        <pt x="493" y="-1" on="1"/>
        <pt x="43" y="-1" on="1"/>
        <pt x="43" y="81" on="1"/>
        <pt x="424" y="617" on="1"/>
        <pt x="424" y="639" on="1"/>
      </contour>
      <contour>
        <pt x="161" y="829" on="1"/>
        <pt x="368" y="928" on="1"/>
        <pt x="390" y="874" on="1"/>
        <pt x="181" y="786" on="1"/>
      </contour>
    </TTGlyph>
    <TTGlyph name="Zcaron" xMin="43" yMin="-1" xMax="493" yMax="929">
      <contour>
        <pt x="43" y="639" on="1"/>
        <pt x="43" y="695" on="1"/>
        <pt x="493" y="695" on="1"/>
        <pt x="493" y="612" on="1"/>
        <pt x="112" y="76" on="1"/>
        <pt x="112" y="55" on="1"/>
        <pt x="493" y="55" on="1"/>
        <pt x="493" y="-1" on="1"/>
        <pt x="43" y="-1" on="1"/>
        <pt x="43" y="81" on="1"/>
        <pt x="424" y="617" on="1"/>
        <pt x="424" y="639" on="1"/>
      </contour>
      <contour>
        <pt x="252" y="798" on="1"/>
        <pt x="118" y="929" on="1"/>
        <pt x="187" y="929" on="1"/>
        <pt x="278" y="843" on="1"/>
        <pt x="368" y="929" on="1"/>
        <pt x="438" y="929" on="1"/>
        <pt x="304" y="798" on="1"/>
      </contour>
    </TTGlyph>
    <TTGlyph name="Zdotaccent" xMin="43" yMin="-1" xMax="493" yMax="884">
      <contour>
        <pt x="43" y="639" on="1"/>
        <pt x="43" y="695" on="1"/>
        <pt x="493" y="695" on="1"/>
        <pt x="493" y="612" on="1"/>
        <pt x="112" y="76" on="1"/>
        <pt x="112" y="55" on="1"/>
        <pt x="493" y="55" on="1"/>
        <pt x="493" y="-1" on="1"/>
        <pt x="43" y="-1" on="1"/>
        <pt x="43" y="81" on="1"/>
        <pt x="424" y="617" on="1"/>
        <pt x="424" y="639" on="1"/>
      </contour>
      <contour>
        <pt x="238" y="809" on="1"/>
        <pt x="238" y="884" on="1"/>
        <pt x="298" y="884" on="1"/>
        <pt x="298" y="809" on="1"/>
      </contour>
    </TTGlyph>
    <TTGlyph name="a" xMin="43" yMin="-10" xMax="484" yMax="510">
      <contour>
        <pt x="419" y="351" on="1"/>
        <pt x="419" y="83" on="1"/>
        <pt x="423" y="46" on="0"/>
        <pt x="484" y="39" on="1"/>
        <pt x="481" y="-9" on="1"/>
        <pt x="404" y="-9" on="0"/>
        <pt x="368" y="31" on="1"/>
        <pt x="274" y="-10" on="0"/>
        <pt x="180" y="-10" on="1"/>
        <pt x="113" y="-10" on="0"/>
        <pt x="43" y="67" on="0"/>
        <pt x="43" y="210" on="0"/>
        <pt x="114" y="279" on="0"/>
        <pt x="190" y="287" on="1"/>
        <pt x="360" y="304" on="1"/>
        <pt x="360" y="351" on="1"/>
        <pt x="360" y="407" on="0"/>
        <pt x="311" y="456" on="0"/>
        <pt x="270" y="456" on="1"/>
        <pt x="206" y="456" on="0"/>
        <pt x="104" y="444" on="1"/>
        <pt x="73" y="441" on="1"/>
        <pt x="70" y="489" on="1"/>
        <pt x="180" y="510" on="0"/>
        <pt x="345" y="510" on="0"/>
        <pt x="419" y="432" on="0"/>
      </contour>
      <contour>
        <pt x="105" y="142" on="1"/>
        <pt x="105" y="41" on="0"/>
        <pt x="188" y="41" on="1"/>
        <pt x="224" y="41" on="0"/>
        <pt x="310" y="58" on="0"/>
        <pt x="335" y="67" on="1"/>
        <pt x="360" y="76" on="1"/>
        <pt x="360" y="257" on="1"/>
        <pt x="197" y="240" on="1"/>
        <pt x="148" y="236" on="0"/>
        <pt x="105" y="188" on="0"/>
      </contour>
    </TTGlyph>
    <TTGlyph name="aacute" xMin="43" yMin="-10" xMax="484" yMax="737">
      <contour>
        <pt x="419" y="351" on="1"/>
        <pt x="419" y="83" on="1"/>
        <pt x="423" y="46" on="0"/>
        <pt x="484" y="39" on="1"/>
        <pt x="481" y="-9" on="1"/>
        <pt x="404" y="-9" on="0"/>
        <pt x="368" y="31" on="1"/>
        <pt x="274" y="-10" on="0"/>
        <pt x="180" y="-10" on="1"/>
        <pt x="113" y="-10" on="0"/>
        <pt x="43" y="67" on="0"/>
        <pt x="43" y="210" on="0"/>
        <pt x="114" y="279" on="0"/>
        <pt x="190" y="287" on="1"/>
        <pt x="360" y="304" on="1"/>
        <pt x="360" y="351" on="1"/>
        <pt x="360" y="407" on="0"/>
        <pt x="311" y="456" on="0"/>
        <pt x="270" y="456" on="1"/>
        <pt x="206" y="456" on="0"/>
        <pt x="104" y="444" on="1"/>
        <pt x="73" y="441" on="1"/>
        <pt x="70" y="489" on="1"/>
        <pt x="180" y="510" on="0"/>
        <pt x="345" y="510" on="0"/>
        <pt x="419" y="432" on="0"/>
      </contour>
      <contour>
        <pt x="105" y="142" on="1"/>
        <pt x="105" y="41" on="0"/>
        <pt x="188" y="41" on="1"/>
        <pt x="224" y="41" on="0"/>
        <pt x="310" y="58" on="0"/>
        <pt x="335" y="67" on="1"/>
        <pt x="360" y="76" on="1"/>
        <pt x="360" y="257" on="1"/>
        <pt x="197" y="240" on="1"/>
        <pt x="148" y="236" on="0"/>
        <pt x="105" y="188" on="0"/>
      </contour>
      <contour>
        <pt x="123" y="640" on="1"/>
        <pt x="330" y="737" on="1"/>
        <pt x="352" y="685" on="1"/>
        <pt x="142" y="598" on="1"/>
      </contour>
    </TTGlyph>
    <TTGlyph name="abreve" xMin="43" yMin="-10" xMax="484" yMax="729">
      <contour>
        <pt x="419" y="349" on="1"/>
        <pt x="419" y="88" on="1"/>
        <pt x="423" y="50" on="0"/>
        <pt x="484" y="43" on="1"/>
        <pt x="481" y="-9" on="1"/>
        <pt x="402" y="-9" on="0"/>
        <pt x="368" y="29" on="1"/>
        <pt x="342" y="19" on="1"/>
        <pt x="317" y="9" on="0"/>
        <pt x="221" y="-10" on="0"/>
        <pt x="176" y="-10" on="1"/>
        <pt x="113" y="-10" on="0"/>
        <pt x="43" y="68" on="0"/>
        <pt x="43" y="210" on="0"/>
        <pt x="114" y="280" on="0"/>
        <pt x="190" y="287" on="1"/>
        <pt x="190" y="287" on="0"/>
        <pt x="360" y="304" on="1"/>
        <pt x="360" y="349" on="1"/>
        <pt x="360" y="452" on="0"/>
        <pt x="264" y="452" on="1"/>
        <pt x="191" y="452" on="0"/>
        <pt x="74" y="437" on="1"/>
        <pt x="70" y="490" on="1"/>
        <pt x="102" y="495" on="1"/>
        <pt x="190" y="509" on="0"/>
        <pt x="266" y="509" on="1"/>
        <pt x="344" y="509" on="0"/>
        <pt x="419" y="431" on="0"/>
      </contour>
      <contour>
        <pt x="183" y="43" on="1"/>
        <pt x="268" y="43" on="0"/>
        <pt x="360" y="77" on="1"/>
        <pt x="360" y="254" on="1"/>
        <pt x="197" y="239" on="1"/>
        <pt x="105" y="231" on="0"/>
        <pt x="105" y="142" on="1"/>
        <pt x="105" y="94" on="0"/>
        <pt x="146" y="43" on="0"/>
      </contour>
      <contour>
        <pt x="210" y="646" on="0"/>
        <pt x="294" y="646" on="0"/>
        <pt x="342" y="692" on="0"/>
        <pt x="343" y="729" on="1"/>
        <pt x="404" y="729" on="1"/>
        <pt x="402" y="668" on="0"/>
        <pt x="321" y="592" on="0"/>
        <pt x="183" y="592" on="0"/>
        <pt x="102" y="668" on="0"/>
        <pt x="100" y="729" on="1"/>
        <pt x="161" y="729" on="1"/>
        <pt x="162" y="692" on="0"/>
      </contour>
    </TTGlyph>
    <TTGlyph name="acircumflex" xMin="43" yMin="-10" xMax="484" yMax="732">
      <contour>
        <pt x="419" y="351" on="1"/>
        <pt x="419" y="83" on="1"/>
        <pt x="423" y="46" on="0"/>
        <pt x="484" y="39" on="1"/>
        <pt x="481" y="-9" on="1"/>
        <pt x="404" y="-9" on="0"/>
        <pt x="368" y="31" on="1"/>
        <pt x="274" y="-10" on="0"/>
        <pt x="180" y="-10" on="1"/>
        <pt x="113" y="-10" on="0"/>
        <pt x="43" y="67" on="0"/>
        <pt x="43" y="210" on="0"/>
        <pt x="114" y="279" on="0"/>
        <pt x="190" y="287" on="1"/>
        <pt x="360" y="304" on="1"/>
        <pt x="360" y="351" on="1"/>
        <pt x="360" y="407" on="0"/>
        <pt x="311" y="456" on="0"/>
        <pt x="270" y="456" on="1"/>
        <pt x="206" y="456" on="0"/>
        <pt x="104" y="444" on="1"/>
        <pt x="73" y="441" on="1"/>
        <pt x="70" y="489" on="1"/>
        <pt x="180" y="510" on="0"/>
        <pt x="345" y="510" on="0"/>
        <pt x="419" y="432" on="0"/>
      </contour>
      <contour>
        <pt x="105" y="142" on="1"/>
        <pt x="105" y="41" on="0"/>
        <pt x="188" y="41" on="1"/>
        <pt x="224" y="41" on="0"/>
        <pt x="310" y="58" on="0"/>
        <pt x="335" y="67" on="1"/>
        <pt x="360" y="76" on="1"/>
        <pt x="360" y="257" on="1"/>
        <pt x="197" y="240" on="1"/>
        <pt x="148" y="236" on="0"/>
        <pt x="105" y="188" on="0"/>
      </contour>
      <contour>
        <pt x="98" y="595" on="1"/>
        <pt x="220" y="732" on="1"/>
        <pt x="262" y="732" on="1"/>
        <pt x="385" y="595" on="1"/>
        <pt x="322" y="595" on="1"/>
        <pt x="242" y="687" on="1"/>
        <pt x="161" y="595" on="1"/>
      </contour>
    </TTGlyph>
    <TTGlyph name="acute" xMin="31" yMin="598" xMax="260" yMax="737">
      <contour>
        <pt x="31" y="640" on="1"/>
        <pt x="238" y="737" on="1"/>
        <pt x="260" y="685" on="1"/>
        <pt x="50" y="598" on="1"/>
      </contour>
    </TTGlyph>
    <TTGlyph name="acute.cap" xMin="15" yMin="786" xMax="244" yMax="928">
      <contour>
        <pt x="15" y="829" on="1"/>
        <pt x="222" y="928" on="1"/>
        <pt x="244" y="874" on="1"/>
        <pt x="35" y="786" on="1"/>
      </contour>
    </TTGlyph>
    <TTGlyph name="adieresis" xMin="43" yMin="-10" xMax="484" yMax="707">
      <contour>
        <pt x="419" y="351" on="1"/>
        <pt x="419" y="83" on="1"/>
        <pt x="423" y="46" on="0"/>
        <pt x="484" y="39" on="1"/>
        <pt x="481" y="-9" on="1"/>
        <pt x="404" y="-9" on="0"/>
        <pt x="368" y="31" on="1"/>
        <pt x="274" y="-10" on="0"/>
        <pt x="180" y="-10" on="1"/>
        <pt x="113" y="-10" on="0"/>
        <pt x="43" y="67" on="0"/>
        <pt x="43" y="210" on="0"/>
        <pt x="114" y="279" on="0"/>
        <pt x="190" y="287" on="1"/>
        <pt x="360" y="304" on="1"/>
        <pt x="360" y="351" on="1"/>
        <pt x="360" y="407" on="0"/>
        <pt x="311" y="456" on="0"/>
        <pt x="270" y="456" on="1"/>
        <pt x="206" y="456" on="0"/>
        <pt x="104" y="444" on="1"/>
        <pt x="73" y="441" on="1"/>
        <pt x="70" y="489" on="1"/>
        <pt x="180" y="510" on="0"/>
        <pt x="345" y="510" on="0"/>
        <pt x="419" y="432" on="0"/>
      </contour>
      <contour>
        <pt x="105" y="142" on="1"/>
        <pt x="105" y="41" on="0"/>
        <pt x="188" y="41" on="1"/>
        <pt x="224" y="41" on="0"/>
        <pt x="310" y="58" on="0"/>
        <pt x="335" y="67" on="1"/>
        <pt x="360" y="76" on="1"/>
        <pt x="360" y="257" on="1"/>
        <pt x="197" y="240" on="1"/>
        <pt x="148" y="236" on="0"/>
        <pt x="105" y="188" on="0"/>
      </contour>
      <contour>
        <pt x="115" y="627" on="1"/>
        <pt x="115" y="707" on="1"/>
        <pt x="174" y="707" on="1"/>
        <pt x="174" y="627" on="1"/>
      </contour>
      <contour>
        <pt x="312" y="627" on="1"/>
        <pt x="312" y="707" on="1"/>
        <pt x="370" y="707" on="1"/>
        <pt x="370" y="627" on="1"/>
      </contour>
    </TTGlyph>
    <TTGlyph name="ae" xMin="43" yMin="-10" xMax="762" yMax="509">
      <contour>
        <pt x="559" y="45" on="1"/>
        <pt x="608" y="45" on="0"/>
        <pt x="712" y="52" on="1"/>
        <pt x="741" y="54" on="1"/>
        <pt x="743" y="4" on="1"/>
        <pt x="631" y="-10" on="0"/>
        <pt x="553" y="-10" on="1"/>
        <pt x="454" y="-10" on="0"/>
        <pt x="407" y="46" on="1"/>
        <pt x="373" y="31" on="1"/>
        <pt x="281" y="-10" on="0"/>
        <pt x="176" y="-10" on="1"/>
        <pt x="43" y="-10" on="0"/>
        <pt x="43" y="141" on="1"/>
        <pt x="43" y="221" on="0"/>
        <pt x="124" y="280" on="0"/>
        <pt x="225" y="291" on="1"/>
        <pt x="360" y="304" on="1"/>
        <pt x="360" y="349" on="1"/>
        <pt x="360" y="452" on="0"/>
        <pt x="264" y="452" on="1"/>
        <pt x="198" y="452" on="0"/>
        <pt x="105" y="444" on="1"/>
        <pt x="74" y="442" on="1"/>
        <pt x="72" y="496" on="1"/>
        <pt x="188" y="509" on="0"/>
        <pt x="266" y="509" on="1"/>
        <pt x="374" y="509" on="0"/>
        <pt x="402" y="428" on="1"/>
        <pt x="451" y="509" on="0"/>
        <pt x="565" y="509" on="1"/>
        <pt x="664" y="509" on="0"/>
        <pt x="762" y="396" on="0"/>
        <pt x="762" y="273" on="1"/>
        <pt x="759" y="225" on="1"/>
        <pt x="419" y="225" on="1"/>
        <pt x="420" y="133" on="0"/>
        <pt x="483" y="45" on="0"/>
      </contour>
      <contour>
        <pt x="183" y="43" on="1"/>
        <pt x="272" y="43" on="0"/>
        <pt x="381" y="85" on="1"/>
        <pt x="358" y="140" on="0"/>
        <pt x="358" y="254" on="1"/>
        <pt x="197" y="239" on="1"/>
        <pt x="149" y="234" on="0"/>
        <pt x="105" y="189" on="0"/>
        <pt x="105" y="94" on="0"/>
        <pt x="146" y="43" on="0"/>
      </contour>
      <contour>
        <pt x="419" y="275" on="1"/>
        <pt x="701" y="275" on="1"/>
        <pt x="701" y="372" on="0"/>
        <pt x="636" y="456" on="0"/>
        <pt x="565" y="456" on="1"/>
        <pt x="419" y="456" on="0"/>
      </contour>
    </TTGlyph>
    <TTGlyph name="aeacute" xMin="43" yMin="-10" xMax="762" yMax="737">
      <contour>
        <pt x="559" y="45" on="1"/>
        <pt x="608" y="45" on="0"/>
        <pt x="712" y="52" on="1"/>
        <pt x="741" y="54" on="1"/>
        <pt x="743" y="4" on="1"/>
        <pt x="631" y="-10" on="0"/>
        <pt x="553" y="-10" on="1"/>
        <pt x="454" y="-10" on="0"/>
        <pt x="407" y="46" on="1"/>
        <pt x="373" y="31" on="1"/>
        <pt x="281" y="-10" on="0"/>
        <pt x="176" y="-10" on="1"/>
        <pt x="43" y="-10" on="0"/>
        <pt x="43" y="141" on="1"/>
        <pt x="43" y="221" on="0"/>
        <pt x="124" y="280" on="0"/>
        <pt x="225" y="291" on="1"/>
        <pt x="360" y="304" on="1"/>
        <pt x="360" y="349" on="1"/>
        <pt x="360" y="452" on="0"/>
        <pt x="264" y="452" on="1"/>
        <pt x="198" y="452" on="0"/>
        <pt x="105" y="444" on="1"/>
        <pt x="74" y="442" on="1"/>
        <pt x="72" y="496" on="1"/>
        <pt x="188" y="509" on="0"/>
        <pt x="266" y="509" on="1"/>
        <pt x="374" y="509" on="0"/>
        <pt x="402" y="428" on="1"/>
        <pt x="451" y="509" on="0"/>
        <pt x="565" y="509" on="1"/>
        <pt x="664" y="509" on="0"/>
        <pt x="762" y="396" on="0"/>
        <pt x="762" y="273" on="1"/>
        <pt x="759" y="225" on="1"/>
        <pt x="419" y="225" on="1"/>
        <pt x="420" y="133" on="0"/>
        <pt x="483" y="45" on="0"/>
      </contour>
      <contour>
        <pt x="183" y="43" on="1"/>
        <pt x="272" y="43" on="0"/>
        <pt x="381" y="85" on="1"/>
        <pt x="358" y="140" on="0"/>
        <pt x="358" y="254" on="1"/>
        <pt x="197" y="239" on="1"/>
        <pt x="149" y="234" on="0"/>
        <pt x="105" y="189" on="0"/>
        <pt x="105" y="94" on="0"/>
        <pt x="146" y="43" on="0"/>
      </contour>
      <contour>
        <pt x="419" y="275" on="1"/>
        <pt x="701" y="275" on="1"/>
        <pt x="701" y="372" on="0"/>
        <pt x="636" y="456" on="0"/>
        <pt x="565" y="456" on="1"/>
        <pt x="419" y="456" on="0"/>
      </contour>
      <contour>
        <pt x="298" y="640" on="1"/>
        <pt x="505" y="737" on="1"/>
        <pt x="527" y="685" on="1"/>
        <pt x="317" y="598" on="1"/>
      </contour>
    </TTGlyph>
    <TTGlyph name="agrave" xMin="43" yMin="-10" xMax="484" yMax="737">
      <contour>
        <pt x="419" y="351" on="1"/>
        <pt x="419" y="83" on="1"/>
        <pt x="423" y="46" on="0"/>
        <pt x="484" y="39" on="1"/>
        <pt x="481" y="-9" on="1"/>
        <pt x="404" y="-9" on="0"/>
        <pt x="368" y="31" on="1"/>
        <pt x="274" y="-10" on="0"/>
        <pt x="180" y="-10" on="1"/>
        <pt x="113" y="-10" on="0"/>
        <pt x="43" y="67" on="0"/>
        <pt x="43" y="210" on="0"/>
        <pt x="114" y="279" on="0"/>
        <pt x="190" y="287" on="1"/>
        <pt x="360" y="304" on="1"/>
        <pt x="360" y="351" on="1"/>
        <pt x="360" y="407" on="0"/>
        <pt x="311" y="456" on="0"/>
        <pt x="270" y="456" on="1"/>
        <pt x="206" y="456" on="0"/>
        <pt x="104" y="444" on="1"/>
        <pt x="73" y="441" on="1"/>
        <pt x="70" y="489" on="1"/>
        <pt x="180" y="510" on="0"/>
        <pt x="345" y="510" on="0"/>
        <pt x="419" y="432" on="0"/>
      </contour>
      <contour>
        <pt x="105" y="142" on="1"/>
        <pt x="105" y="41" on="0"/>
        <pt x="188" y="41" on="1"/>
        <pt x="224" y="41" on="0"/>
        <pt x="310" y="58" on="0"/>
        <pt x="335" y="67" on="1"/>
        <pt x="360" y="76" on="1"/>
        <pt x="360" y="257" on="1"/>
        <pt x="197" y="240" on="1"/>
        <pt x="148" y="236" on="0"/>
        <pt x="105" y="188" on="0"/>
      </contour>
      <contour>
        <pt x="147" y="737" on="1"/>
        <pt x="354" y="640" on="1"/>
        <pt x="335" y="598" on="1"/>
        <pt x="125" y="685" on="1"/>
      </contour>
    </TTGlyph>
    <TTGlyph name="amacron" xMin="43" yMin="-10" xMax="484" yMax="680">
      <contour>
        <pt x="419" y="351" on="1"/>
        <pt x="419" y="83" on="1"/>
        <pt x="423" y="46" on="0"/>
        <pt x="484" y="39" on="1"/>
        <pt x="481" y="-9" on="1"/>
        <pt x="404" y="-9" on="0"/>
        <pt x="368" y="31" on="1"/>
        <pt x="274" y="-10" on="0"/>
        <pt x="180" y="-10" on="1"/>
        <pt x="113" y="-10" on="0"/>
        <pt x="43" y="67" on="0"/>
        <pt x="43" y="210" on="0"/>
        <pt x="114" y="279" on="0"/>
        <pt x="190" y="287" on="1"/>
        <pt x="360" y="304" on="1"/>
        <pt x="360" y="351" on="1"/>
        <pt x="360" y="407" on="0"/>
        <pt x="311" y="456" on="0"/>
        <pt x="270" y="456" on="1"/>
        <pt x="206" y="456" on="0"/>
        <pt x="104" y="444" on="1"/>
        <pt x="73" y="441" on="1"/>
        <pt x="70" y="489" on="1"/>
        <pt x="180" y="510" on="0"/>
        <pt x="345" y="510" on="0"/>
        <pt x="419" y="432" on="0"/>
      </contour>
      <contour>
        <pt x="105" y="142" on="1"/>
        <pt x="105" y="41" on="0"/>
        <pt x="188" y="41" on="1"/>
        <pt x="224" y="41" on="0"/>
        <pt x="310" y="58" on="0"/>
        <pt x="335" y="67" on="1"/>
        <pt x="360" y="76" on="1"/>
        <pt x="360" y="257" on="1"/>
        <pt x="197" y="240" on="1"/>
        <pt x="148" y="236" on="0"/>
        <pt x="105" y="188" on="0"/>
      </contour>
      <contour>
        <pt x="113" y="631" on="1"/>
        <pt x="113" y="680" on="1"/>
        <pt x="385" y="680" on="1"/>
        <pt x="385" y="631" on="1"/>
      </contour>
    </TTGlyph>
    <TTGlyph name="ampersand" xMin="44" yMin="-10" xMax="663" yMax="698">
      <contour>
        <pt x="147" y="619" on="0"/>
        <pt x="234" y="698" on="0"/>
        <pt x="396" y="698" on="0"/>
        <pt x="479" y="619" on="0"/>
        <pt x="479" y="479" on="0"/>
        <pt x="407" y="398" on="0"/>
        <pt x="321" y="362" on="1"/>
        <pt x="485" y="199" on="1"/>
        <pt x="495" y="225" on="0"/>
        <pt x="514" y="331" on="0"/>
        <pt x="516" y="370" on="1"/>
        <pt x="575" y="369" on="1"/>
        <pt x="562" y="239" on="0"/>
        <pt x="530" y="160" on="1"/>
        <pt x="663" y="33" on="1"/>
        <pt x="626" y="-8" on="1"/>
        <pt x="501" y="111" on="1"/>
        <pt x="434" y="-10" on="0"/>
        <pt x="284" y="-10" on="1"/>
        <pt x="153" y="-10" on="0"/>
        <pt x="44" y="99" on="0"/>
        <pt x="44" y="293" on="0"/>
        <pt x="117" y="380" on="0"/>
        <pt x="202" y="406" on="1"/>
        <pt x="168" y="445" on="0"/>
        <pt x="147" y="506" on="0"/>
        <pt x="147" y="553" on="1"/>
      </contour>
      <contour>
        <pt x="281" y="45" on="1"/>
        <pt x="408" y="45" on="0"/>
        <pt x="459" y="148" on="1"/>
        <pt x="238" y="367" on="1"/>
        <pt x="164" y="346" on="0"/>
        <pt x="104" y="276" on="0"/>
        <pt x="104" y="202" on="1"/>
        <pt x="104" y="45" on="0"/>
      </contour>
      <contour>
        <pt x="207" y="545" on="1"/>
        <pt x="207" y="476" on="0"/>
        <pt x="252" y="431" on="1"/>
        <pt x="283" y="399" on="1"/>
        <pt x="359" y="429" on="0"/>
        <pt x="418" y="490" on="0"/>
        <pt x="418" y="546" on="1"/>
        <pt x="418" y="646" on="0"/>
        <pt x="207" y="646" on="0"/>
      </contour>
    </TTGlyph>
    <TTGlyph name="aogonek" xMin="43" yMin="-204" xMax="484" yMax="510">
      <contour>
        <pt x="419" y="351" on="1"/>
        <pt x="419" y="83" on="1"/>
        <pt x="423" y="46" on="0"/>
        <pt x="484" y="39" on="1"/>
        <pt x="481" y="-9" on="1"/>
        <pt x="468" y="-9" on="0"/>
        <pt x="448" y="-7" on="1"/>
        <pt x="382" y="-80" on="0"/>
        <pt x="382" y="-127" on="0"/>
        <pt x="406" y="-153" on="0"/>
        <pt x="425" y="-153" on="1"/>
        <pt x="477" y="-147" on="1"/>
        <pt x="483" y="-195" on="1"/>
        <pt x="442" y="-204" on="0"/>
        <pt x="372" y="-204" on="0"/>
        <pt x="323" y="-158" on="0"/>
        <pt x="323" y="-119" on="1"/>
        <pt x="323" y="-97" on="0"/>
        <pt x="342" y="-67" on="1"/>
        <pt x="367" y="-27" on="0"/>
        <pt x="402" y="5" on="1"/>
        <pt x="382" y="14" on="0"/>
        <pt x="368" y="31" on="1"/>
        <pt x="274" y="-10" on="0"/>
        <pt x="180" y="-10" on="1"/>
        <pt x="113" y="-10" on="0"/>
        <pt x="43" y="67" on="0"/>
        <pt x="43" y="210" on="0"/>
        <pt x="114" y="279" on="0"/>
        <pt x="190" y="287" on="1"/>
        <pt x="360" y="304" on="1"/>
        <pt x="360" y="351" on="1"/>
        <pt x="360" y="407" on="0"/>
        <pt x="311" y="456" on="0"/>
        <pt x="270" y="456" on="1"/>
        <pt x="206" y="456" on="0"/>
        <pt x="104" y="444" on="1"/>
        <pt x="73" y="441" on="1"/>
        <pt x="70" y="489" on="1"/>
        <pt x="180" y="510" on="0"/>
        <pt x="345" y="510" on="0"/>
        <pt x="419" y="432" on="0"/>
      </contour>
      <contour>
        <pt x="105" y="142" on="1"/>
        <pt x="105" y="41" on="0"/>
        <pt x="188" y="41" on="1"/>
        <pt x="224" y="41" on="0"/>
        <pt x="310" y="58" on="0"/>
        <pt x="335" y="67" on="1"/>
        <pt x="360" y="76" on="1"/>
        <pt x="360" y="257" on="1"/>
        <pt x="197" y="240" on="1"/>
        <pt x="148" y="236" on="0"/>
        <pt x="105" y="188" on="0"/>
      </contour>
    </TTGlyph>
    <TTGlyph name="approxequal" xMin="65" yMin="95" xMax="494" yMax="393">
      <contour>
        <pt x="381" y="271" on="1"/>
        <pt x="351" y="271" on="0"/>
        <pt x="200" y="337" on="0"/>
        <pt x="164" y="337" on="0"/>
        <pt x="111" y="312" on="0"/>
        <pt x="94" y="300" on="1"/>
        <pt x="76" y="288" on="1"/>
        <pt x="65" y="339" on="1"/>
        <pt x="129" y="393" on="0"/>
        <pt x="181" y="393" on="1"/>
        <pt x="210" y="393" on="0"/>
        <pt x="360" y="327" on="0"/>
        <pt x="397" y="327" on="0"/>
        <pt x="449" y="351" on="0"/>
        <pt x="466" y="363" on="1"/>
        <pt x="484" y="375" on="1"/>
        <pt x="494" y="325" on="1"/>
        <pt x="434" y="271" on="0"/>
      </contour>
      <contour>
        <pt x="381" y="95" on="1"/>
        <pt x="351" y="95" on="0"/>
        <pt x="200" y="161" on="0"/>
        <pt x="164" y="161" on="0"/>
        <pt x="111" y="136" on="0"/>
        <pt x="94" y="124" on="1"/>
        <pt x="76" y="112" on="1"/>
        <pt x="65" y="163" on="1"/>
        <pt x="129" y="217" on="0"/>
        <pt x="181" y="217" on="1"/>
        <pt x="210" y="217" on="0"/>
        <pt x="360" y="151" on="0"/>
        <pt x="397" y="151" on="0"/>
        <pt x="449" y="175" on="0"/>
        <pt x="466" y="187" on="1"/>
        <pt x="484" y="199" on="1"/>
        <pt x="494" y="149" on="1"/>
        <pt x="434" y="95" on="0"/>
      </contour>
    </TTGlyph>
    <TTGlyph name="aring" xMin="43" yMin="-10" xMax="484" yMax="747">
      <contour>
        <pt x="419" y="351" on="1"/>
        <pt x="419" y="83" on="1"/>
        <pt x="423" y="46" on="0"/>
        <pt x="484" y="39" on="1"/>
        <pt x="481" y="-9" on="1"/>
        <pt x="404" y="-9" on="0"/>
        <pt x="368" y="31" on="1"/>
        <pt x="274" y="-10" on="0"/>
        <pt x="180" y="-10" on="1"/>
        <pt x="113" y="-10" on="0"/>
        <pt x="43" y="67" on="0"/>
        <pt x="43" y="210" on="0"/>
        <pt x="114" y="279" on="0"/>
        <pt x="190" y="287" on="1"/>
        <pt x="360" y="304" on="1"/>
        <pt x="360" y="351" on="1"/>
        <pt x="360" y="407" on="0"/>
        <pt x="311" y="456" on="0"/>
        <pt x="270" y="456" on="1"/>
        <pt x="206" y="456" on="0"/>
        <pt x="104" y="444" on="1"/>
        <pt x="73" y="441" on="1"/>
        <pt x="70" y="489" on="1"/>
        <pt x="180" y="510" on="0"/>
        <pt x="345" y="510" on="0"/>
        <pt x="419" y="432" on="0"/>
      </contour>
      <contour>
        <pt x="105" y="142" on="1"/>
        <pt x="105" y="41" on="0"/>
        <pt x="188" y="41" on="1"/>
        <pt x="224" y="41" on="0"/>
        <pt x="310" y="58" on="0"/>
        <pt x="335" y="67" on="1"/>
        <pt x="360" y="76" on="1"/>
        <pt x="360" y="257" on="1"/>
        <pt x="197" y="240" on="1"/>
        <pt x="148" y="236" on="0"/>
        <pt x="105" y="188" on="0"/>
      </contour>
      <contour>
        <pt x="210" y="546" on="0"/>
        <pt x="152" y="604" on="0"/>
        <pt x="152" y="689" on="0"/>
        <pt x="210" y="747" on="0"/>
        <pt x="295" y="747" on="0"/>
        <pt x="353" y="689" on="0"/>
        <pt x="353" y="604" on="0"/>
        <pt x="295" y="546" on="0"/>
      </contour>
      <contour>
        <pt x="228" y="705" on="0"/>
        <pt x="195" y="671" on="0"/>
        <pt x="195" y="622" on="0"/>
        <pt x="228" y="587" on="0"/>
        <pt x="277" y="587" on="0"/>
        <pt x="310" y="622" on="0"/>
        <pt x="310" y="671" on="0"/>
        <pt x="277" y="705" on="0"/>
      </contour>
    </TTGlyph>
    <TTGlyph name="aringacute" xMin="43" yMin="-10" xMax="484" yMax="915">
      <contour>
        <pt x="419" y="351" on="1"/>
        <pt x="419" y="83" on="1"/>
        <pt x="423" y="46" on="0"/>
        <pt x="484" y="39" on="1"/>
        <pt x="481" y="-9" on="1"/>
        <pt x="404" y="-9" on="0"/>
        <pt x="368" y="31" on="1"/>
        <pt x="274" y="-10" on="0"/>
        <pt x="180" y="-10" on="1"/>
        <pt x="113" y="-10" on="0"/>
        <pt x="43" y="67" on="0"/>
        <pt x="43" y="210" on="0"/>
        <pt x="114" y="279" on="0"/>
        <pt x="190" y="287" on="1"/>
        <pt x="360" y="304" on="1"/>
        <pt x="360" y="351" on="1"/>
        <pt x="360" y="407" on="0"/>
        <pt x="311" y="456" on="0"/>
        <pt x="270" y="456" on="1"/>
        <pt x="206" y="456" on="0"/>
        <pt x="104" y="444" on="1"/>
        <pt x="73" y="441" on="1"/>
        <pt x="70" y="489" on="1"/>
        <pt x="180" y="510" on="0"/>
        <pt x="345" y="510" on="0"/>
        <pt x="419" y="432" on="0"/>
      </contour>
      <contour>
        <pt x="105" y="142" on="1"/>
        <pt x="105" y="41" on="0"/>
        <pt x="188" y="41" on="1"/>
        <pt x="224" y="41" on="0"/>
        <pt x="310" y="58" on="0"/>
        <pt x="335" y="67" on="1"/>
        <pt x="360" y="76" on="1"/>
        <pt x="360" y="257" on="1"/>
        <pt x="197" y="240" on="1"/>
        <pt x="148" y="236" on="0"/>
        <pt x="105" y="188" on="0"/>
      </contour>
      <contour>
        <pt x="201" y="546" on="0"/>
        <pt x="143" y="604" on="0"/>
        <pt x="143" y="689" on="0"/>
        <pt x="201" y="747" on="0"/>
        <pt x="286" y="747" on="0"/>
        <pt x="344" y="689" on="0"/>
        <pt x="344" y="604" on="0"/>
        <pt x="286" y="546" on="0"/>
      </contour>
      <contour>
        <pt x="219" y="705" on="0"/>
        <pt x="186" y="671" on="0"/>
        <pt x="186" y="622" on="0"/>
        <pt x="219" y="587" on="0"/>
        <pt x="268" y="587" on="0"/>
        <pt x="301" y="622" on="0"/>
        <pt x="301" y="671" on="0"/>
        <pt x="268" y="705" on="0"/>
      </contour>
      <contour>
        <pt x="138" y="818" on="1"/>
        <pt x="345" y="915" on="1"/>
        <pt x="367" y="863" on="1"/>
        <pt x="157" y="776" on="1"/>
      </contour>
    </TTGlyph>
    <TTGlyph name="asciicircum" xMin="67" yMin="320" xMax="496" yMax="660">
      <contour>
        <pt x="431" y="320" on="1"/>
        <pt x="278" y="600" on="1"/>
        <pt x="132" y="320" on="1"/>
        <pt x="67" y="320" on="1"/>
        <pt x="250" y="660" on="1"/>
        <pt x="306" y="660" on="1"/>
        <pt x="496" y="320" on="1"/>
      </contour>
    </TTGlyph>
    <TTGlyph name="asciitilde" xMin="68" yMin="201" xMax="494" yMax="323">
      <contour>
        <pt x="382" y="201" on="1"/>
        <pt x="352" y="201" on="0"/>
        <pt x="202" y="267" on="0"/>
        <pt x="184" y="267" on="1"/>
        <pt x="150" y="267" on="0"/>
        <pt x="96" y="230" on="1"/>
        <pt x="79" y="218" on="1"/>
        <pt x="68" y="269" on="1"/>
        <pt x="131" y="323" on="0"/>
        <pt x="183" y="323" on="1"/>
        <pt x="212" y="323" on="0"/>
        <pt x="361" y="257" on="0"/>
        <pt x="380" y="257" on="1"/>
        <pt x="414" y="257" on="0"/>
        <pt x="466" y="293" on="1"/>
        <pt x="484" y="305" on="1"/>
        <pt x="494" y="255" on="1"/>
        <pt x="434" y="201" on="0"/>
      </contour>
    </TTGlyph>
    <TTGlyph name="asterisk" xMin="58" yMin="374" xMax="369" yMax="700">
      <contour>
        <pt x="369" y="514" on="1"/>
        <pt x="235" y="514" on="1"/>
        <pt x="276" y="387" on="1"/>
        <pt x="234" y="374" on="1"/>
        <pt x="192" y="502" on="1"/>
        <pt x="84" y="423" on="1"/>
        <pt x="58" y="458" on="1"/>
        <pt x="167" y="537" on="1"/>
        <pt x="59" y="616" on="1"/>
        <pt x="86" y="652" on="1"/>
        <pt x="194" y="573" on="1"/>
        <pt x="235" y="700" on="1"/>
        <pt x="278" y="686" on="1"/>
        <pt x="237" y="558" on="1"/>
        <pt x="369" y="558" on="1"/>
      </contour>
    </TTGlyph>
    <TTGlyph name="at" xMin="54" yMin="-202" xMax="930" yMax="721">
      <contour>
        <pt x="930" y="305" on="1"/>
        <pt x="930" y="290" on="1"/>
        <pt x="930" y="69" on="0"/>
        <pt x="864" y="20" on="1"/>
        <pt x="840" y="2" on="0"/>
        <pt x="794" y="-8" on="0"/>
        <pt x="732" y="-8" on="0"/>
        <pt x="688" y="5" on="0"/>
        <pt x="676" y="14" on="1"/>
        <pt x="653" y="33" on="0"/>
        <pt x="646" y="54" on="1"/>
        <pt x="605" y="30" on="0"/>
        <pt x="500" y="-7" on="0"/>
        <pt x="438" y="-7" on="0"/>
        <pt x="396" y="1" on="0"/>
        <pt x="347" y="31" on="0"/>
        <pt x="330" y="58" on="1"/>
        <pt x="292" y="119" on="0"/>
        <pt x="292" y="379" on="0"/>
        <pt x="383" y="507" on="0"/>
        <pt x="497" y="507" on="1"/>
        <pt x="546" y="507" on="0"/>
        <pt x="600" y="487" on="1"/>
        <pt x="619" y="480" on="1"/>
        <pt x="619" y="497" on="1"/>
        <pt x="679" y="497" on="1"/>
        <pt x="679" y="302" on="1"/>
        <pt x="679" y="123" on="0"/>
        <pt x="692" y="84" on="1"/>
        <pt x="696" y="70" on="0"/>
        <pt x="716" y="47" on="0"/>
        <pt x="741" y="43" on="0"/>
        <pt x="784" y="43" on="0"/>
        <pt x="812" y="50" on="0"/>
        <pt x="842" y="77" on="0"/>
        <pt x="850" y="103" on="1"/>
        <pt x="868" y="167" on="0"/>
        <pt x="868" y="290" on="1"/>
        <pt x="868" y="306" on="1"/>
        <pt x="868" y="497" on="0"/>
        <pt x="700" y="668" on="0"/>
        <pt x="304" y="668" on="0"/>
        <pt x="116" y="478" on="0"/>
        <pt x="116" y="34" on="0"/>
        <pt x="297" y="-148" on="0"/>
        <pt x="504" y="-148" on="1"/>
        <pt x="647" y="-138" on="1"/>
        <pt x="650" y="-192" on="1"/>
        <pt x="554" y="-202" on="0"/>
        <pt x="504" y="-202" on="1"/>
        <pt x="388" y="-202" on="0"/>
        <pt x="228" y="-158" on="0"/>
        <pt x="169" y="-106" on="1"/>
        <pt x="54" y="-5" on="0"/>
        <pt x="54" y="504" on="0"/>
        <pt x="279" y="721" on="0"/>
        <pt x="728" y="721" on="0"/>
        <pt x="930" y="518" on="0"/>
      </contour>
      <contour>
        <pt x="629" y="98" on="1"/>
        <pt x="625" y="114" on="0"/>
        <pt x="619" y="247" on="0"/>
        <pt x="619" y="287" on="1"/>
        <pt x="619" y="430" on="1"/>
        <pt x="554" y="453" on="0"/>
        <pt x="505" y="453" on="1"/>
        <pt x="416" y="453" on="0"/>
        <pt x="352" y="353" on="0"/>
        <pt x="352" y="243" on="1"/>
        <pt x="352" y="120" on="0"/>
        <pt x="390" y="80" on="1"/>
        <pt x="423" y="47" on="0"/>
        <pt x="527" y="47" on="0"/>
      </contour>
    </TTGlyph>
    <TTGlyph name="at.cap" xMin="52" yMin="-133" xMax="928" yMax="790">
      <contour>
        <pt x="928" y="374" on="1"/>
        <pt x="928" y="359" on="1"/>
        <pt x="928" y="138" on="0"/>
        <pt x="862" y="88" on="1"/>
        <pt x="838" y="71" on="0"/>
        <pt x="792" y="61" on="0"/>
        <pt x="730" y="61" on="0"/>
        <pt x="686" y="74" on="0"/>
        <pt x="674" y="83" on="1"/>
        <pt x="651" y="102" on="0"/>
        <pt x="644" y="123" on="1"/>
        <pt x="603" y="99" on="0"/>
        <pt x="498" y="62" on="0"/>
        <pt x="436" y="62" on="0"/>
        <pt x="394" y="70" on="0"/>
        <pt x="345" y="100" on="0"/>
        <pt x="328" y="126" on="1"/>
        <pt x="290" y="188" on="0"/>
        <pt x="290" y="448" on="0"/>
        <pt x="381" y="576" on="0"/>
        <pt x="495" y="576" on="1"/>
        <pt x="538" y="576" on="0"/>
        <pt x="598" y="556" on="1"/>
        <pt x="617" y="549" on="1"/>
        <pt x="617" y="566" on="1"/>
        <pt x="677" y="566" on="1"/>
        <pt x="677" y="371" on="1"/>
        <pt x="677" y="192" on="0"/>
        <pt x="690" y="153" on="1"/>
        <pt x="694" y="139" on="0"/>
        <pt x="714" y="116" on="0"/>
        <pt x="739" y="112" on="0"/>
        <pt x="782" y="112" on="0"/>
        <pt x="810" y="119" on="0"/>
        <pt x="840" y="146" on="0"/>
        <pt x="848" y="172" on="1"/>
        <pt x="866" y="236" on="0"/>
        <pt x="866" y="359" on="1"/>
        <pt x="866" y="375" on="1"/>
        <pt x="866" y="566" on="0"/>
        <pt x="698" y="737" on="0"/>
        <pt x="302" y="737" on="0"/>
        <pt x="114" y="547" on="0"/>
        <pt x="114" y="103" on="0"/>
        <pt x="295" y="-79" on="0"/>
        <pt x="502" y="-79" on="1"/>
        <pt x="645" y="-69" on="1"/>
        <pt x="648" y="-123" on="1"/>
        <pt x="552" y="-133" on="0"/>
        <pt x="502" y="-133" on="1"/>
        <pt x="386" y="-133" on="0"/>
        <pt x="226" y="-89" on="0"/>
        <pt x="167" y="-37" on="1"/>
        <pt x="52" y="64" on="0"/>
        <pt x="52" y="573" on="0"/>
        <pt x="277" y="790" on="0"/>
        <pt x="726" y="790" on="0"/>
        <pt x="928" y="587" on="0"/>
      </contour>
      <contour>
        <pt x="627" y="167" on="1"/>
        <pt x="623" y="183" on="0"/>
        <pt x="617" y="316" on="0"/>
        <pt x="617" y="356" on="1"/>
        <pt x="617" y="499" on="1"/>
        <pt x="552" y="522" on="0"/>
        <pt x="503" y="522" on="1"/>
        <pt x="414" y="522" on="0"/>
        <pt x="350" y="422" on="0"/>
        <pt x="350" y="312" on="1"/>
        <pt x="350" y="189" on="0"/>
        <pt x="388" y="149" on="1"/>
        <pt x="421" y="116" on="0"/>
        <pt x="525" y="116" on="0"/>
      </contour>
    </TTGlyph>
    <TTGlyph name="atilde" xMin="43" yMin="-10" xMax="484" yMax="717">
      <contour>
        <pt x="419" y="351" on="1"/>
        <pt x="419" y="83" on="1"/>
        <pt x="423" y="46" on="0"/>
        <pt x="484" y="39" on="1"/>
        <pt x="481" y="-9" on="1"/>
        <pt x="404" y="-9" on="0"/>
        <pt x="368" y="31" on="1"/>
        <pt x="274" y="-10" on="0"/>
        <pt x="180" y="-10" on="1"/>
        <pt x="113" y="-10" on="0"/>
        <pt x="43" y="67" on="0"/>
        <pt x="43" y="210" on="0"/>
        <pt x="114" y="279" on="0"/>
        <pt x="190" y="287" on="1"/>
        <pt x="360" y="304" on="1"/>
        <pt x="360" y="351" on="1"/>
        <pt x="360" y="407" on="0"/>
        <pt x="311" y="456" on="0"/>
        <pt x="270" y="456" on="1"/>
        <pt x="206" y="456" on="0"/>
        <pt x="104" y="444" on="1"/>
        <pt x="73" y="441" on="1"/>
        <pt x="70" y="489" on="1"/>
        <pt x="180" y="510" on="0"/>
        <pt x="345" y="510" on="0"/>
        <pt x="419" y="432" on="0"/>
      </contour>
      <contour>
        <pt x="105" y="142" on="1"/>
        <pt x="105" y="41" on="0"/>
        <pt x="188" y="41" on="1"/>
        <pt x="224" y="41" on="0"/>
        <pt x="310" y="58" on="0"/>
        <pt x="335" y="67" on="1"/>
        <pt x="360" y="76" on="1"/>
        <pt x="360" y="257" on="1"/>
        <pt x="197" y="240" on="1"/>
        <pt x="148" y="236" on="0"/>
        <pt x="105" y="188" on="0"/>
      </contour>
      <contour>
        <pt x="311" y="619" on="1"/>
        <pt x="290" y="619" on="0"/>
        <pt x="184" y="668" on="0"/>
        <pt x="172" y="668" on="1"/>
        <pt x="148" y="668" on="0"/>
        <pt x="110" y="638" on="1"/>
        <pt x="97" y="627" on="1"/>
        <pt x="82" y="667" on="1"/>
        <pt x="132" y="717" on="0"/>
        <pt x="170" y="717" on="1"/>
        <pt x="191" y="717" on="0"/>
        <pt x="298" y="669" on="0"/>
        <pt x="310" y="669" on="1"/>
        <pt x="331" y="669" on="0"/>
        <pt x="366" y="698" on="1"/>
        <pt x="378" y="708" on="1"/>
        <pt x="392" y="666" on="1"/>
        <pt x="347" y="619" on="0"/>
      </contour>
    </TTGlyph>
    <TTGlyph name="b" xMin="74" yMin="-10" xMax="468" yMax="722">
      <contour>
        <pt x="290" y="510" on="1"/>
        <pt x="390" y="510" on="0"/>
        <pt x="468" y="394" on="0"/>
        <pt x="468" y="109" on="0"/>
        <pt x="369" y="-10" on="0"/>
        <pt x="234" y="-10" on="1"/>
        <pt x="178" y="-10" on="0"/>
        <pt x="100" y="-2" on="1"/>
        <pt x="74" y="0" on="1"/>
        <pt x="74" y="722" on="1"/>
        <pt x="134" y="722" on="1"/>
        <pt x="134" y="473" on="1"/>
        <pt x="212" y="510" on="0"/>
      </contour>
      <contour>
        <pt x="134" y="50" on="1"/>
        <pt x="204" y="44" on="0"/>
        <pt x="289" y="44" on="0"/>
        <pt x="357" y="68" on="0"/>
        <pt x="394" y="125" on="0"/>
        <pt x="406" y="198" on="0"/>
        <pt x="406" y="258" on="1"/>
        <pt x="406" y="364" on="0"/>
        <pt x="355" y="456" on="0"/>
        <pt x="285" y="456" on="1"/>
        <pt x="251" y="456" on="0"/>
        <pt x="175" y="439" on="0"/>
        <pt x="154" y="430" on="1"/>
        <pt x="134" y="422" on="1"/>
      </contour>
    </TTGlyph>
    <TTGlyph name="backslash" xMin="30" yMin="-9" xMax="390" yMax="705">
      <contour>
        <pt x="390" y="14" on="1"/>
        <pt x="335" y="-9" on="1"/>
        <pt x="30" y="681" on="1"/>
        <pt x="84" y="705" on="1"/>
      </contour>
    </TTGlyph>
    <TTGlyph name="bar" xMin="80" yMin="-225" xMax="140" yMax="722">
      <contour>
        <pt x="80" y="-225" on="1"/>
        <pt x="80" y="722" on="1"/>
        <pt x="140" y="722" on="1"/>
        <pt x="140" y="-225" on="1"/>
      </contour>
    </TTGlyph>
    <TTGlyph name="braceleft" xMin="26" yMin="-127" xMax="309" yMax="753">
      <contour>
        <pt x="183" y="574" on="1"/>
        <pt x="190" y="453" on="1"/>
        <pt x="190" y="389" on="0"/>
        <pt x="147" y="330" on="0"/>
        <pt x="87" y="312" on="1"/>
        <pt x="147" y="294" on="0"/>
        <pt x="191" y="233" on="0"/>
        <pt x="191" y="170" on="1"/>
        <pt x="184" y="53" on="1"/>
        <pt x="184" y="-9" on="0"/>
        <pt x="237" y="-70" on="0"/>
        <pt x="309" y="-74" on="1"/>
        <pt x="307" y="-127" on="1"/>
        <pt x="208" y="-123" on="0"/>
        <pt x="125" y="-41" on="0"/>
        <pt x="125" y="49" on="1"/>
        <pt x="132" y="172" on="1"/>
        <pt x="132" y="216" on="0"/>
        <pt x="83" y="270" on="0"/>
        <pt x="26" y="286" on="1"/>
        <pt x="26" y="336" on="1"/>
        <pt x="83" y="349" on="0"/>
        <pt x="132" y="403" on="0"/>
        <pt x="132" y="449" on="1"/>
        <pt x="125" y="577" on="1"/>
        <pt x="125" y="668" on="0"/>
        <pt x="209" y="749" on="0"/>
        <pt x="308" y="753" on="1"/>
        <pt x="309" y="701" on="1"/>
        <pt x="237" y="697" on="0"/>
        <pt x="183" y="636" on="0"/>
      </contour>
    </TTGlyph>
    <TTGlyph name="braceleft.cap" xMin="27" yMin="-97" xMax="310" yMax="783">
      <contour>
        <pt x="184" y="604" on="1"/>
        <pt x="191" y="483" on="1"/>
        <pt x="191" y="419" on="0"/>
        <pt x="148" y="360" on="0"/>
        <pt x="88" y="342" on="1"/>
        <pt x="148" y="324" on="0"/>
        <pt x="192" y="263" on="0"/>
        <pt x="192" y="200" on="1"/>
        <pt x="185" y="83" on="1"/>
        <pt x="185" y="21" on="0"/>
        <pt x="238" y="-40" on="0"/>
        <pt x="310" y="-44" on="1"/>
        <pt x="308" y="-97" on="1"/>
        <pt x="209" y="-93" on="0"/>
        <pt x="126" y="-11" on="0"/>
        <pt x="126" y="79" on="1"/>
        <pt x="133" y="202" on="1"/>
        <pt x="133" y="246" on="0"/>
        <pt x="84" y="300" on="0"/>
        <pt x="27" y="316" on="1"/>
        <pt x="27" y="366" on="1"/>
        <pt x="84" y="379" on="0"/>
        <pt x="133" y="433" on="0"/>
        <pt x="133" y="479" on="1"/>
        <pt x="126" y="607" on="1"/>
        <pt x="126" y="698" on="0"/>
        <pt x="210" y="779" on="0"/>
        <pt x="309" y="783" on="1"/>
        <pt x="310" y="731" on="1"/>
        <pt x="238" y="727" on="0"/>
        <pt x="184" y="666" on="0"/>
      </contour>
    </TTGlyph>
    <TTGlyph name="braceright" xMin="41" yMin="-127" xMax="324" yMax="753">
      <contour>
        <pt x="166" y="53" on="1"/>
        <pt x="159" y="170" on="1"/>
        <pt x="159" y="233" on="0"/>
        <pt x="203" y="294" on="0"/>
        <pt x="263" y="312" on="1"/>
        <pt x="203" y="330" on="0"/>
        <pt x="160" y="389" on="0"/>
        <pt x="160" y="453" on="1"/>
        <pt x="167" y="574" on="1"/>
        <pt x="167" y="636" on="0"/>
        <pt x="113" y="697" on="0"/>
        <pt x="41" y="701" on="1"/>
        <pt x="42" y="753" on="1"/>
        <pt x="141" y="749" on="0"/>
        <pt x="225" y="668" on="0"/>
        <pt x="225" y="577" on="1"/>
        <pt x="218" y="449" on="1"/>
        <pt x="218" y="403" on="0"/>
        <pt x="267" y="349" on="0"/>
        <pt x="324" y="336" on="1"/>
        <pt x="324" y="286" on="1"/>
        <pt x="267" y="270" on="0"/>
        <pt x="218" y="216" on="0"/>
        <pt x="218" y="172" on="1"/>
        <pt x="225" y="49" on="1"/>
        <pt x="225" y="-41" on="0"/>
        <pt x="142" y="-123" on="0"/>
        <pt x="43" y="-127" on="1"/>
        <pt x="41" y="-74" on="1"/>
        <pt x="113" y="-70" on="0"/>
        <pt x="166" y="-9" on="0"/>
      </contour>
    </TTGlyph>
    <TTGlyph name="braceright.cap" xMin="40" yMin="-97" xMax="323" yMax="783">
      <contour>
        <pt x="166" y="82" on="1"/>
        <pt x="159" y="203" on="1"/>
        <pt x="159" y="267" on="0"/>
        <pt x="202" y="326" on="0"/>
        <pt x="262" y="344" on="1"/>
        <pt x="202" y="362" on="0"/>
        <pt x="158" y="423" on="0"/>
        <pt x="158" y="486" on="1"/>
        <pt x="165" y="603" on="1"/>
        <pt x="165" y="665" on="0"/>
        <pt x="112" y="726" on="0"/>
        <pt x="40" y="730" on="1"/>
        <pt x="42" y="783" on="1"/>
        <pt x="141" y="779" on="0"/>
        <pt x="224" y="697" on="0"/>
        <pt x="224" y="607" on="1"/>
        <pt x="217" y="484" on="1"/>
        <pt x="217" y="440" on="0"/>
        <pt x="266" y="386" on="0"/>
        <pt x="323" y="370" on="1"/>
        <pt x="323" y="320" on="1"/>
        <pt x="266" y="307" on="0"/>
        <pt x="217" y="253" on="0"/>
        <pt x="217" y="207" on="1"/>
        <pt x="224" y="79" on="1"/>
        <pt x="224" y="-12" on="0"/>
        <pt x="140" y="-93" on="0"/>
        <pt x="41" y="-97" on="1"/>
        <pt x="40" y="-45" on="1"/>
        <pt x="112" y="-41" on="0"/>
        <pt x="166" y="20" on="0"/>
      </contour>
    </TTGlyph>
    <TTGlyph name="bracketleft" xMin="81" yMin="-123" xMax="281" yMax="749">
      <contour>
        <pt x="281" y="749" on="1"/>
        <pt x="281" y="695" on="1"/>
        <pt x="142" y="695" on="1"/>
        <pt x="142" y="-69" on="1"/>
        <pt x="281" y="-69" on="1"/>
        <pt x="281" y="-123" on="1"/>
        <pt x="81" y="-123" on="1"/>
        <pt x="81" y="749" on="1"/>
      </contour>
    </TTGlyph>
    <TTGlyph name="bracketleft.cap" xMin="81" yMin="-93" xMax="281" yMax="779">
      <contour>
        <pt x="281" y="779" on="1"/>
        <pt x="281" y="725" on="1"/>
        <pt x="142" y="725" on="1"/>
        <pt x="142" y="-39" on="1"/>
        <pt x="281" y="-39" on="1"/>
        <pt x="281" y="-93" on="1"/>
        <pt x="81" y="-93" on="1"/>
        <pt x="81" y="779" on="1"/>
      </contour>
    </TTGlyph>
    <TTGlyph name="bracketright" xMin="41" yMin="-123" xMax="241" yMax="749">
      <contour>
        <pt x="41" y="695" on="1"/>
        <pt x="41" y="749" on="1"/>
        <pt x="241" y="749" on="1"/>
        <pt x="241" y="-123" on="1"/>
        <pt x="41" y="-123" on="1"/>
        <pt x="41" y="-69" on="1"/>
        <pt x="180" y="-69" on="1"/>
        <pt x="180" y="695" on="1"/>
      </contour>
    </TTGlyph>
    <TTGlyph name="bracketright.cap" xMin="41" yMin="-93" xMax="241" yMax="779">
      <contour>
        <pt x="41" y="725" on="1"/>
        <pt x="41" y="779" on="1"/>
        <pt x="241" y="779" on="1"/>
        <pt x="241" y="-93" on="1"/>
        <pt x="41" y="-93" on="1"/>
        <pt x="41" y="-39" on="1"/>
        <pt x="180" y="-39" on="1"/>
        <pt x="180" y="725" on="1"/>
      </contour>
    </TTGlyph>
    <TTGlyph name="breve" xMin="-16" yMin="589" xMax="273" yMax="725">
      <contour>
        <pt x="36" y="685" on="0"/>
        <pt x="85" y="636" on="0"/>
        <pt x="170" y="636" on="0"/>
        <pt x="220" y="686" on="0"/>
        <pt x="221" y="725" on="1"/>
        <pt x="273" y="725" on="1"/>
        <pt x="271" y="666" on="0"/>
        <pt x="192" y="589" on="0"/>
        <pt x="64" y="589" on="0"/>
        <pt x="-14" y="666" on="0"/>
        <pt x="-16" y="725" on="1"/>
        <pt x="35" y="725" on="1"/>
      </contour>
    </TTGlyph>
    <TTGlyph name="breve.cap" xMin="-19" yMin="793" xMax="281" yMax="920">
      <contour>
        <pt x="92" y="841" on="0"/>
        <pt x="170" y="841" on="0"/>
        <pt x="224" y="884" on="0"/>
        <pt x="225" y="920" on="1"/>
        <pt x="281" y="920" on="1"/>
        <pt x="280" y="863" on="0"/>
        <pt x="196" y="793" on="0"/>
        <pt x="66" y="793" on="0"/>
        <pt x="-17" y="863" on="0"/>
        <pt x="-19" y="920" on="1"/>
        <pt x="38" y="920" on="1"/>
        <pt x="39" y="884" on="0"/>
      </contour>
    </TTGlyph>
    <TTGlyph name="brokenbar" xMin="82" yMin="-225" xMax="142" yMax="722">
      <contour>
        <pt x="82" y="722" on="1"/>
        <pt x="142" y="722" on="1"/>
        <pt x="142" y="347" on="1"/>
        <pt x="82" y="347" on="1"/>
      </contour>
      <contour>
        <pt x="82" y="152" on="1"/>
        <pt x="142" y="152" on="1"/>
        <pt x="142" y="-225" on="1"/>
        <pt x="82" y="-225" on="1"/>
      </contour>
    </TTGlyph>
    <TTGlyph name="bullet" xMin="114" yMin="107" xMax="364" yMax="395">
      <contour>
        <pt x="114" y="107" on="1"/>
        <pt x="114" y="395" on="1"/>
        <pt x="364" y="395" on="1"/>
        <pt x="364" y="107" on="1"/>
      </contour>
    </TTGlyph>
    <TTGlyph name="c" xMin="54" yMin="-10" xMax="392" yMax="510">
      <contour>
        <pt x="261" y="510" on="1"/>
        <pt x="306" y="510" on="0"/>
        <pt x="368" y="500" on="1"/>
        <pt x="391" y="497" on="1"/>
        <pt x="388" y="446" on="1"/>
        <pt x="309" y="456" on="0"/>
        <pt x="271" y="456" on="1"/>
        <pt x="182" y="456" on="0"/>
        <pt x="116" y="369" on="0"/>
        <pt x="116" y="136" on="0"/>
        <pt x="176" y="44" on="0"/>
        <pt x="271" y="44" on="1"/>
        <pt x="390" y="53" on="1"/>
        <pt x="392" y="2" on="1"/>
        <pt x="303" y="-10" on="0"/>
        <pt x="260" y="-10" on="1"/>
        <pt x="141" y="-10" on="0"/>
        <pt x="54" y="108" on="0"/>
        <pt x="54" y="396" on="0"/>
        <pt x="149" y="510" on="0"/>
      </contour>
    </TTGlyph>
    <TTGlyph name="cacute" xMin="54" yMin="-10" xMax="392" yMax="737">
      <contour>
        <pt x="261" y="510" on="1"/>
        <pt x="306" y="510" on="0"/>
        <pt x="368" y="500" on="1"/>
        <pt x="391" y="497" on="1"/>
        <pt x="388" y="446" on="1"/>
        <pt x="309" y="456" on="0"/>
        <pt x="271" y="456" on="1"/>
        <pt x="182" y="456" on="0"/>
        <pt x="116" y="369" on="0"/>
        <pt x="116" y="136" on="0"/>
        <pt x="176" y="44" on="0"/>
        <pt x="271" y="44" on="1"/>
        <pt x="390" y="53" on="1"/>
        <pt x="392" y="2" on="1"/>
        <pt x="303" y="-10" on="0"/>
        <pt x="260" y="-10" on="1"/>
        <pt x="141" y="-10" on="0"/>
        <pt x="54" y="108" on="0"/>
        <pt x="54" y="396" on="0"/>
        <pt x="149" y="510" on="0"/>
      </contour>
      <contour>
        <pt x="133" y="640" on="1"/>
        <pt x="340" y="737" on="1"/>
        <pt x="362" y="685" on="1"/>
        <pt x="152" y="598" on="1"/>
      </contour>
    </TTGlyph>
    <TTGlyph name="caron" xMin="-16" yMin="595" xMax="271" yMax="732">
      <contour>
        <pt x="106" y="595" on="1"/>
        <pt x="-16" y="732" on="1"/>
        <pt x="46" y="732" on="1"/>
        <pt x="128" y="641" on="1"/>
        <pt x="209" y="732" on="1"/>
        <pt x="271" y="732" on="1"/>
        <pt x="148" y="595" on="1"/>
      </contour>
    </TTGlyph>
    <TTGlyph name="caron.cap" xMin="-32" yMin="798" xMax="288" yMax="929">
      <contour>
        <pt x="102" y="798" on="1"/>
        <pt x="-32" y="929" on="1"/>
        <pt x="37" y="929" on="1"/>
        <pt x="128" y="843" on="1"/>
        <pt x="218" y="929" on="1"/>
        <pt x="288" y="929" on="1"/>
        <pt x="154" y="798" on="1"/>
      </contour>
    </TTGlyph>
    <TTGlyph name="ccaron" xMin="54" yMin="-10" xMax="392" yMax="732">
      <contour>
        <pt x="261" y="510" on="1"/>
        <pt x="306" y="510" on="0"/>
        <pt x="368" y="500" on="1"/>
        <pt x="391" y="497" on="1"/>
        <pt x="388" y="446" on="1"/>
        <pt x="309" y="456" on="0"/>
        <pt x="271" y="456" on="1"/>
        <pt x="182" y="456" on="0"/>
        <pt x="116" y="369" on="0"/>
        <pt x="116" y="136" on="0"/>
        <pt x="176" y="44" on="0"/>
        <pt x="271" y="44" on="1"/>
        <pt x="390" y="53" on="1"/>
        <pt x="392" y="2" on="1"/>
        <pt x="303" y="-10" on="0"/>
        <pt x="260" y="-10" on="1"/>
        <pt x="141" y="-10" on="0"/>
        <pt x="54" y="108" on="0"/>
        <pt x="54" y="396" on="0"/>
        <pt x="149" y="510" on="0"/>
      </contour>
      <contour>
        <pt x="218" y="595" on="1"/>
        <pt x="96" y="732" on="1"/>
        <pt x="158" y="732" on="1"/>
        <pt x="240" y="641" on="1"/>
        <pt x="321" y="732" on="1"/>
        <pt x="383" y="732" on="1"/>
        <pt x="260" y="595" on="1"/>
      </contour>
    </TTGlyph>
    <TTGlyph name="ccedilla" xMin="54" yMin="-211" xMax="392" yMax="510">
      <contour>
        <pt x="355" y="-127" on="1"/>
        <pt x="355" y="-211" on="0"/>
        <pt x="266" y="-211" on="1"/>
        <pt x="182" y="-205" on="1"/>
        <pt x="184" y="-165" on="1"/>
        <pt x="225" y="-168" on="0"/>
        <pt x="255" y="-168" on="1"/>
        <pt x="300" y="-168" on="0"/>
        <pt x="300" y="-127" on="1"/>
        <pt x="300" y="-90" on="0"/>
        <pt x="255" y="-90" on="1"/>
        <pt x="208" y="-90" on="1"/>
        <pt x="208" y="-7" on="1"/>
        <pt x="120" y="4" on="0"/>
        <pt x="54" y="125" on="0"/>
        <pt x="54" y="396" on="0"/>
        <pt x="149" y="510" on="0"/>
        <pt x="261" y="510" on="1"/>
        <pt x="306" y="510" on="0"/>
        <pt x="368" y="500" on="1"/>
        <pt x="391" y="497" on="1"/>
        <pt x="388" y="446" on="1"/>
        <pt x="309" y="456" on="0"/>
        <pt x="271" y="456" on="1"/>
        <pt x="182" y="456" on="0"/>
        <pt x="116" y="369" on="0"/>
        <pt x="116" y="136" on="0"/>
        <pt x="176" y="44" on="0"/>
        <pt x="271" y="44" on="1"/>
        <pt x="390" y="53" on="1"/>
        <pt x="392" y="2" on="1"/>
        <pt x="303" y="-10" on="0"/>
        <pt x="260" y="-10" on="1"/>
        <pt x="246" y="-10" on="1"/>
        <pt x="246" y="-52" on="1"/>
        <pt x="304" y="-52" on="0"/>
        <pt x="355" y="-83" on="0"/>
      </contour>
    </TTGlyph>
    <TTGlyph name="ccircumflex" xMin="54" yMin="-10" xMax="392" yMax="732">
      <contour>
        <pt x="261" y="510" on="1"/>
        <pt x="306" y="510" on="0"/>
        <pt x="368" y="500" on="1"/>
        <pt x="391" y="497" on="1"/>
        <pt x="388" y="446" on="1"/>
        <pt x="309" y="456" on="0"/>
        <pt x="271" y="456" on="1"/>
        <pt x="182" y="456" on="0"/>
        <pt x="116" y="369" on="0"/>
        <pt x="116" y="136" on="0"/>
        <pt x="176" y="44" on="0"/>
        <pt x="271" y="44" on="1"/>
        <pt x="390" y="53" on="1"/>
        <pt x="392" y="2" on="1"/>
        <pt x="303" y="-10" on="0"/>
        <pt x="260" y="-10" on="1"/>
        <pt x="141" y="-10" on="0"/>
        <pt x="54" y="108" on="0"/>
        <pt x="54" y="396" on="0"/>
        <pt x="149" y="510" on="0"/>
      </contour>
      <contour>
        <pt x="91" y="595" on="1"/>
        <pt x="213" y="732" on="1"/>
        <pt x="255" y="732" on="1"/>
        <pt x="378" y="595" on="1"/>
        <pt x="315" y="595" on="1"/>
        <pt x="235" y="687" on="1"/>
        <pt x="154" y="595" on="1"/>
      </contour>
    </TTGlyph>
    <TTGlyph name="cdotaccent" xMin="54" yMin="-10" xMax="392" yMax="698">
      <contour>
        <pt x="261" y="510" on="1"/>
        <pt x="306" y="510" on="0"/>
        <pt x="368" y="500" on="1"/>
        <pt x="391" y="497" on="1"/>
        <pt x="388" y="446" on="1"/>
        <pt x="309" y="456" on="0"/>
        <pt x="271" y="456" on="1"/>
        <pt x="182" y="456" on="0"/>
        <pt x="116" y="369" on="0"/>
        <pt x="116" y="136" on="0"/>
        <pt x="176" y="44" on="0"/>
        <pt x="271" y="44" on="1"/>
        <pt x="390" y="53" on="1"/>
        <pt x="392" y="2" on="1"/>
        <pt x="303" y="-10" on="0"/>
        <pt x="260" y="-10" on="1"/>
        <pt x="141" y="-10" on="0"/>
        <pt x="54" y="108" on="0"/>
        <pt x="54" y="396" on="0"/>
        <pt x="149" y="510" on="0"/>
      </contour>
      <contour>
        <pt x="219" y="623" on="1"/>
        <pt x="219" y="698" on="1"/>
        <pt x="279" y="698" on="1"/>
        <pt x="279" y="623" on="1"/>
      </contour>
    </TTGlyph>
    <TTGlyph name="cedilla" xMin="45" yMin="-211" xMax="218" yMax="1">
      <contour>
        <pt x="218" y="-127" on="1"/>
        <pt x="218" y="-211" on="0"/>
        <pt x="129" y="-211" on="1"/>
        <pt x="45" y="-205" on="1"/>
        <pt x="47" y="-165" on="1"/>
        <pt x="88" y="-168" on="0"/>
        <pt x="118" y="-168" on="1"/>
        <pt x="163" y="-168" on="0"/>
        <pt x="163" y="-127" on="1"/>
        <pt x="163" y="-90" on="0"/>
        <pt x="118" y="-90" on="1"/>
        <pt x="71" y="-90" on="1"/>
        <pt x="71" y="1" on="1"/>
        <pt x="109" y="1" on="1"/>
        <pt x="109" y="-52" on="1"/>
        <pt x="167" y="-52" on="0"/>
        <pt x="218" y="-83" on="0"/>
      </contour>
    </TTGlyph>
    <TTGlyph name="cent" xMin="104" yMin="-83" xMax="442" yMax="586">
      <contour>
        <pt x="280" y="-83" on="1"/>
        <pt x="280" y="38" on="1"/>
        <pt x="186" y="42" on="0"/>
        <pt x="104" y="133" on="0"/>
        <pt x="104" y="358" on="0"/>
        <pt x="189" y="459" on="0"/>
        <pt x="280" y="463" on="1"/>
        <pt x="280" y="586" on="1"/>
        <pt x="333" y="586" on="1"/>
        <pt x="333" y="461" on="1"/>
        <pt x="372" y="461" on="0"/>
        <pt x="423" y="452" on="1"/>
        <pt x="440" y="449" on="1"/>
        <pt x="438" y="399" on="1"/>
        <pt x="358" y="408" on="0"/>
        <pt x="305" y="408" on="1"/>
        <pt x="229" y="408" on="0"/>
        <pt x="168" y="335" on="0"/>
        <pt x="168" y="159" on="0"/>
        <pt x="228" y="93" on="0"/>
        <pt x="313" y="93" on="1"/>
        <pt x="439" y="100" on="1"/>
        <pt x="442" y="49" on="1"/>
        <pt x="376" y="41" on="0"/>
        <pt x="334" y="39" on="1"/>
        <pt x="334" y="-83" on="1"/>
      </contour>
    </TTGlyph>
    <TTGlyph name="circumflex" xMin="-17" yMin="595" xMax="270" yMax="732">
      <contour>
        <pt x="-17" y="595" on="1"/>
        <pt x="105" y="732" on="1"/>
        <pt x="147" y="732" on="1"/>
        <pt x="270" y="595" on="1"/>
        <pt x="207" y="595" on="1"/>
        <pt x="127" y="687" on="1"/>
        <pt x="46" y="595" on="1"/>
      </contour>
    </TTGlyph>
    <TTGlyph name="circumflex.cap" xMin="61" yMin="798" xMax="381" yMax="929">
      <contour>
        <pt x="61" y="798" on="1"/>
        <pt x="195" y="929" on="1"/>
        <pt x="247" y="929" on="1"/>
        <pt x="381" y="798" on="1"/>
        <pt x="312" y="798" on="1"/>
        <pt x="222" y="884" on="1"/>
        <pt x="131" y="798" on="1"/>
      </contour>
    </TTGlyph>
    <TTGlyph name="colon" xMin="70" yMin="0" xMax="136" yMax="432">
      <contour>
        <pt x="70" y="330" on="1"/>
        <pt x="70" y="432" on="1"/>
        <pt x="136" y="432" on="1"/>
        <pt x="136" y="330" on="1"/>
      </contour>
      <contour>
        <pt x="70" y="0" on="1"/>
        <pt x="70" y="101" on="1"/>
        <pt x="136" y="101" on="1"/>
        <pt x="136" y="0" on="1"/>
      </contour>
    </TTGlyph>
    <TTGlyph name="comma" xMin="38" yMin="-123" xMax="149" yMax="99">
      <contour>
        <pt x="38" y="-123" on="1"/>
        <pt x="82" y="99" on="1"/>
        <pt x="149" y="99" on="1"/>
        <pt x="88" y="-123" on="1"/>
      </contour>
    </TTGlyph>
    <TTGlyph name="commaaccent" xMin="30" yMin="-278" xMax="130" yMax="-78">
      <contour>
        <pt x="30" y="-278" on="1"/>
        <pt x="69" y="-78" on="1"/>
        <pt x="130" y="-78" on="1"/>
        <pt x="81" y="-278" on="1"/>
      </contour>
    </TTGlyph>
    <TTGlyph name="copyright" xMin="62" yMin="164" xMax="583" yMax="704">
      <contour>
        <pt x="211" y="164" on="0"/>
        <pt x="62" y="321" on="0"/>
        <pt x="62" y="548" on="0"/>
        <pt x="211" y="704" on="0"/>
        <pt x="436" y="704" on="0"/>
        <pt x="583" y="547" on="0"/>
        <pt x="583" y="319" on="0"/>
        <pt x="436" y="164" on="0"/>
      </contour>
      <contour>
        <pt x="102" y="530" on="0"/>
        <pt x="102" y="338" on="0"/>
        <pt x="228" y="203" on="0"/>
        <pt x="417" y="203" on="0"/>
        <pt x="544" y="337" on="0"/>
        <pt x="544" y="530" on="0"/>
        <pt x="417" y="665" on="0"/>
        <pt x="228" y="665" on="0"/>
      </contour>
      <contour>
        <pt x="325" y="278" on="1"/>
        <pt x="262" y="278" on="0"/>
        <pt x="211" y="354" on="0"/>
        <pt x="211" y="513" on="0"/>
        <pt x="261" y="590" on="0"/>
        <pt x="326" y="590" on="1"/>
        <pt x="365" y="590" on="0"/>
        <pt x="391" y="584" on="1"/>
        <pt x="401" y="581" on="1"/>
        <pt x="399" y="535" on="1"/>
        <pt x="359" y="542" on="0"/>
        <pt x="286" y="542" on="0"/>
        <pt x="261" y="492" on="0"/>
        <pt x="261" y="378" on="0"/>
        <pt x="289" y="326" on="0"/>
        <pt x="327" y="326" on="1"/>
        <pt x="399" y="333" on="1"/>
        <pt x="401" y="288" on="1"/>
        <pt x="362" y="278" on="0"/>
      </contour>
    </TTGlyph>
    <TTGlyph name="currency" xMin="65" yMin="37" xMax="495" yMax="467">
      <contour>
        <pt x="382" y="107" on="1"/>
        <pt x="336" y="75" on="0"/>
        <pt x="223" y="75" on="0"/>
        <pt x="177" y="107" on="1"/>
        <pt x="108" y="37" on="1"/>
        <pt x="65" y="80" on="1"/>
        <pt x="135" y="149" on="1"/>
        <pt x="103" y="195" on="0"/>
        <pt x="103" y="308" on="0"/>
        <pt x="135" y="354" on="1"/>
        <pt x="65" y="424" on="1"/>
        <pt x="108" y="467" on="1"/>
        <pt x="177" y="396" on="1"/>
        <pt x="225" y="429" on="0"/>
        <pt x="334" y="429" on="0"/>
        <pt x="382" y="396" on="1"/>
        <pt x="452" y="467" on="1"/>
        <pt x="495" y="424" on="1"/>
        <pt x="424" y="354" on="1"/>
        <pt x="457" y="306" on="0"/>
        <pt x="457" y="197" on="0"/>
        <pt x="424" y="149" on="1"/>
        <pt x="495" y="80" on="1"/>
        <pt x="452" y="37" on="1"/>
      </contour>
      <contour>
        <pt x="230" y="130" on="0"/>
        <pt x="330" y="130" on="0"/>
        <pt x="402" y="202" on="0"/>
        <pt x="402" y="302" on="0"/>
        <pt x="330" y="374" on="0"/>
        <pt x="230" y="374" on="0"/>
        <pt x="158" y="302" on="0"/>
        <pt x="158" y="202" on="0"/>
      </contour>
    </TTGlyph>
    <TTGlyph name="d" xMin="53" yMin="-10" xMax="449" yMax="722">
      <contour>
        <pt x="449" y="722" on="1"/>
        <pt x="449" y="0" on="1"/>
        <pt x="389" y="0" on="1"/>
        <pt x="389" y="37" on="1"/>
        <pt x="310" y="-10" on="0"/>
        <pt x="229" y="-10" on="1"/>
        <pt x="192" y="-10" on="0"/>
        <pt x="138" y="7" on="0"/>
        <pt x="110" y="32" on="1"/>
        <pt x="53" y="83" on="0"/>
        <pt x="53" y="380" on="0"/>
        <pt x="149" y="510" on="0"/>
        <pt x="263" y="510" on="1"/>
        <pt x="307" y="510" on="0"/>
        <pt x="389" y="497" on="1"/>
        <pt x="389" y="722" on="1"/>
      </contour>
      <contour>
        <pt x="173" y="58" on="0"/>
        <pt x="210" y="44" on="0"/>
        <pt x="269" y="44" on="0"/>
        <pt x="346" y="66" on="0"/>
        <pt x="368" y="76" on="1"/>
        <pt x="389" y="87" on="1"/>
        <pt x="389" y="445" on="1"/>
        <pt x="309" y="457" on="0"/>
        <pt x="265" y="457" on="1"/>
        <pt x="180" y="457" on="0"/>
        <pt x="115" y="353" on="0"/>
        <pt x="115" y="244" on="1"/>
        <pt x="115" y="116" on="0"/>
        <pt x="154" y="77" on="1"/>
      </contour>
    </TTGlyph>
    <TTGlyph name="dagger" xMin="35" yMin="-77" xMax="442" yMax="695">
      <contour>
        <pt x="35" y="446" on="1"/>
        <pt x="35" y="500" on="1"/>
        <pt x="209" y="500" on="1"/>
        <pt x="209" y="695" on="1"/>
        <pt x="269" y="695" on="1"/>
        <pt x="269" y="500" on="1"/>
        <pt x="442" y="500" on="1"/>
        <pt x="442" y="446" on="1"/>
        <pt x="269" y="446" on="1"/>
        <pt x="265" y="-77" on="1"/>
        <pt x="212" y="-77" on="1"/>
        <pt x="209" y="446" on="1"/>
      </contour>
    </TTGlyph>
    <TTGlyph name="daggerdbl" xMin="58" yMin="-77" xMax="465" yMax="695">
      <contour>
        <pt x="232" y="-77" on="1"/>
        <pt x="232" y="118" on="1"/>
        <pt x="58" y="118" on="1"/>
        <pt x="58" y="170" on="1"/>
        <pt x="232" y="170" on="1"/>
        <pt x="232" y="446" on="1"/>
        <pt x="58" y="446" on="1"/>
        <pt x="58" y="500" on="1"/>
        <pt x="232" y="500" on="1"/>
        <pt x="232" y="695" on="1"/>
        <pt x="291" y="695" on="1"/>
        <pt x="291" y="500" on="1"/>
        <pt x="465" y="500" on="1"/>
        <pt x="465" y="446" on="1"/>
        <pt x="291" y="446" on="1"/>
        <pt x="291" y="170" on="1"/>
        <pt x="465" y="170" on="1"/>
        <pt x="465" y="118" on="1"/>
        <pt x="291" y="118" on="1"/>
        <pt x="291" y="-77" on="1"/>
      </contour>
    </TTGlyph>
    <TTGlyph name="dcaron" xMin="53" yMin="-10" xMax="610" yMax="722">
      <contour>
        <pt x="550" y="685" on="1"/>
        <pt x="610" y="685" on="1"/>
        <pt x="562" y="484" on="1"/>
        <pt x="511" y="484" on="1"/>
      </contour>
      <contour>
        <pt x="449" y="722" on="1"/>
        <pt x="449" y="0" on="1"/>
        <pt x="389" y="0" on="1"/>
        <pt x="389" y="37" on="1"/>
        <pt x="310" y="-10" on="0"/>
        <pt x="229" y="-10" on="1"/>
        <pt x="192" y="-10" on="0"/>
        <pt x="138" y="7" on="0"/>
        <pt x="110" y="32" on="1"/>
        <pt x="53" y="83" on="0"/>
        <pt x="53" y="380" on="0"/>
        <pt x="149" y="510" on="0"/>
        <pt x="263" y="510" on="1"/>
        <pt x="307" y="510" on="0"/>
        <pt x="389" y="497" on="1"/>
        <pt x="389" y="722" on="1"/>
      </contour>
      <contour>
        <pt x="173" y="58" on="0"/>
        <pt x="210" y="44" on="0"/>
        <pt x="269" y="44" on="0"/>
        <pt x="346" y="66" on="0"/>
        <pt x="368" y="76" on="1"/>
        <pt x="389" y="87" on="1"/>
        <pt x="389" y="445" on="1"/>
        <pt x="309" y="457" on="0"/>
        <pt x="265" y="457" on="1"/>
        <pt x="180" y="457" on="0"/>
        <pt x="115" y="353" on="0"/>
        <pt x="115" y="244" on="1"/>
        <pt x="115" y="116" on="0"/>
        <pt x="154" y="77" on="1"/>
      </contour>
    </TTGlyph>
    <TTGlyph name="dcroat" xMin="53" yMin="-10" xMax="485" yMax="722">
      <contour>
        <pt x="449" y="722" on="1"/>
        <pt x="449" y="675" on="1"/>
        <pt x="485" y="675" on="1"/>
        <pt x="485" y="622" on="1"/>
        <pt x="449" y="622" on="1"/>
        <pt x="449" y="0" on="1"/>
        <pt x="389" y="0" on="1"/>
        <pt x="389" y="37" on="1"/>
        <pt x="310" y="-10" on="0"/>
        <pt x="229" y="-10" on="1"/>
        <pt x="192" y="-10" on="0"/>
        <pt x="138" y="7" on="0"/>
        <pt x="110" y="32" on="1"/>
        <pt x="53" y="83" on="0"/>
        <pt x="53" y="380" on="0"/>
        <pt x="149" y="510" on="0"/>
        <pt x="263" y="510" on="1"/>
        <pt x="307" y="510" on="0"/>
        <pt x="389" y="497" on="1"/>
        <pt x="389" y="622" on="1"/>
        <pt x="203" y="622" on="1"/>
        <pt x="203" y="675" on="1"/>
        <pt x="389" y="675" on="1"/>
        <pt x="389" y="722" on="1"/>
      </contour>
      <contour>
        <pt x="173" y="58" on="0"/>
        <pt x="210" y="44" on="0"/>
        <pt x="269" y="44" on="0"/>
        <pt x="346" y="66" on="0"/>
        <pt x="368" y="76" on="1"/>
        <pt x="389" y="87" on="1"/>
        <pt x="389" y="445" on="1"/>
        <pt x="309" y="457" on="0"/>
        <pt x="265" y="457" on="1"/>
        <pt x="180" y="457" on="0"/>
        <pt x="115" y="353" on="0"/>
        <pt x="115" y="244" on="1"/>
        <pt x="115" y="116" on="0"/>
        <pt x="154" y="77" on="1"/>
      </contour>
    </TTGlyph>
    <TTGlyph name="degree" xMin="140" yMin="427" xMax="419" yMax="705">
      <contour>
        <pt x="140" y="503" on="0"/>
        <pt x="140" y="627" on="0"/>
        <pt x="218" y="705" on="0"/>
        <pt x="342" y="705" on="0"/>
        <pt x="419" y="627" on="0"/>
        <pt x="419" y="503" on="0"/>
        <pt x="342" y="427" on="0"/>
        <pt x="218" y="427" on="0"/>
      </contour>
      <contour>
        <pt x="185" y="609" on="0"/>
        <pt x="185" y="521" on="0"/>
        <pt x="237" y="469" on="0"/>
        <pt x="324" y="469" on="0"/>
        <pt x="377" y="522" on="0"/>
        <pt x="377" y="608" on="0"/>
        <pt x="324" y="662" on="0"/>
        <pt x="237" y="662" on="0"/>
      </contour>
    </TTGlyph>
    <TTGlyph name="dieresis" xMin="-8" yMin="627" xMax="247" yMax="707">
      <contour>
        <pt x="-8" y="627" on="1"/>
        <pt x="-8" y="707" on="1"/>
        <pt x="51" y="707" on="1"/>
        <pt x="51" y="627" on="1"/>
      </contour>
      <contour>
        <pt x="189" y="627" on="1"/>
        <pt x="189" y="707" on="1"/>
        <pt x="247" y="707" on="1"/>
        <pt x="247" y="627" on="1"/>
      </contour>
    </TTGlyph>
    <TTGlyph name="dieresis.cap" xMin="-17" yMin="819" xMax="242" yMax="899">
      <contour>
        <pt x="-17" y="819" on="1"/>
        <pt x="-17" y="899" on="1"/>
        <pt x="42" y="899" on="1"/>
        <pt x="42" y="819" on="1"/>
      </contour>
      <contour>
        <pt x="184" y="819" on="1"/>
        <pt x="184" y="899" on="1"/>
        <pt x="242" y="899" on="1"/>
        <pt x="242" y="819" on="1"/>
      </contour>
    </TTGlyph>
    <TTGlyph name="divide" xMin="97" yMin="33" xMax="463" yMax="425">
      <contour>
        <pt x="97" y="263" on="1"/>
        <pt x="97" y="322" on="1"/>
        <pt x="463" y="322" on="1"/>
        <pt x="463" y="263" on="1"/>
      </contour>
      <contour>
        <pt x="208" y="335" on="1"/>
        <pt x="208" y="425" on="1"/>
        <pt x="352" y="425" on="1"/>
        <pt x="352" y="335" on="1"/>
      </contour>
      <contour>
        <pt x="249" y="33" on="1"/>
        <pt x="249" y="126" on="1"/>
        <pt x="310" y="126" on="1"/>
        <pt x="310" y="33" on="1"/>
      </contour>
    </TTGlyph>
    <TTGlyph name="dollar" xMin="72" yMin="-123" xMax="490" yMax="795">
      <contour>
        <pt x="490" y="193" on="1"/>
        <pt x="490" y="87" on="0"/>
        <pt x="385" y="-8" on="0"/>
        <pt x="283" y="-8" on="1"/>
        <pt x="266" y="-8" on="1"/>
        <pt x="251" y="-123" on="1"/>
        <pt x="206" y="-120" on="0"/>
        <pt x="206" y="-116" on="1"/>
        <pt x="220" y="-5" on="1"/>
        <pt x="77" y="10" on="1"/>
        <pt x="84" y="61" on="1"/>
        <pt x="161" y="51" on="0"/>
        <pt x="227" y="47" on="1"/>
        <pt x="262" y="315" on="1"/>
        <pt x="211" y="325" on="0"/>
        <pt x="148" y="348" on="0"/>
        <pt x="122" y="368" on="1"/>
        <pt x="72" y="405" on="0"/>
        <pt x="72" y="497" on="1"/>
        <pt x="72" y="670" on="0"/>
        <pt x="281" y="670" on="1"/>
        <pt x="298" y="670" on="0"/>
        <pt x="308" y="669" on="1"/>
        <pt x="324" y="795" on="1"/>
        <pt x="369" y="795" on="1"/>
        <pt x="352" y="666" on="1"/>
        <pt x="475" y="652" on="1"/>
        <pt x="471" y="601" on="1"/>
        <pt x="403" y="609" on="0"/>
        <pt x="345" y="614" on="1"/>
        <pt x="313" y="363" on="1"/>
        <pt x="408" y="343" on="0"/>
        <pt x="490" y="272" on="0"/>
      </contour>
      <contour>
        <pt x="132" y="501" on="1"/>
        <pt x="132" y="438" on="0"/>
        <pt x="191" y="388" on="0"/>
        <pt x="269" y="372" on="1"/>
        <pt x="301" y="617" on="1"/>
        <pt x="285" y="617" on="1"/>
        <pt x="132" y="617" on="0"/>
      </contour>
      <contour>
        <pt x="281" y="45" on="1"/>
        <pt x="430" y="45" on="0"/>
        <pt x="430" y="178" on="1"/>
        <pt x="430" y="243" on="0"/>
        <pt x="375" y="291" on="0"/>
        <pt x="306" y="306" on="1"/>
        <pt x="273" y="45" on="1"/>
      </contour>
    </TTGlyph>
    <TTGlyph name="dotaccent" xMin="84" yMin="623" xMax="144" yMax="698">
      <contour>
        <pt x="84" y="623" on="1"/>
        <pt x="84" y="698" on="1"/>
        <pt x="144" y="698" on="1"/>
        <pt x="144" y="623" on="1"/>
      </contour>
    </TTGlyph>
    <TTGlyph name="dotaccent.cap" xMin="84" yMin="809" xMax="144" yMax="884">
      <contour>
        <pt x="84" y="809" on="1"/>
        <pt x="84" y="884" on="1"/>
        <pt x="144" y="884" on="1"/>
        <pt x="144" y="809" on="1"/>
      </contour>
    </TTGlyph>
    <TTGlyph name="dotlessi" xMin="75" yMin="0" xMax="134" yMax="500">
      <contour>
        <pt x="75" y="0" on="1"/>
        <pt x="75" y="500" on="1"/>
        <pt x="134" y="500" on="1"/>
        <pt x="134" y="0" on="1"/>
      </contour>
    </TTGlyph>
    <TTGlyph name="dotlessj" xMin="-53" yMin="-221" xMax="135" yMax="500">
      <contour>
        <pt x="75" y="10" on="1"/>
        <pt x="75" y="500" on="1"/>
        <pt x="135" y="500" on="1"/>
        <pt x="135" y="9" on="1"/>
        <pt x="135" y="-79" on="0"/>
        <pt x="70" y="-171" on="0"/>
        <pt x="-29" y="-221" on="1"/>
        <pt x="-53" y="-173" on="1"/>
        <pt x="27" y="-128" on="0"/>
        <pt x="75" y="-60" on="0"/>
      </contour>
    </TTGlyph>
    <TTGlyph name="e" xMin="53" yMin="-10" xMax="456" yMax="510">
      <contour>
        <pt x="406" y="50" on="1"/>
        <pt x="436" y="53" on="1"/>
        <pt x="438" y="4" on="1"/>
        <pt x="325" y="-10" on="0"/>
        <pt x="247" y="-10" on="1"/>
        <pt x="139" y="-9" on="0"/>
        <pt x="53" y="117" on="0"/>
        <pt x="53" y="248" on="1"/>
        <pt x="53" y="510" on="0"/>
        <pt x="259" y="510" on="1"/>
        <pt x="358" y="510" on="0"/>
        <pt x="456" y="397" on="0"/>
        <pt x="456" y="273" on="1"/>
        <pt x="454" y="225" on="1"/>
        <pt x="114" y="225" on="1"/>
        <pt x="114" y="133" on="0"/>
        <pt x="177" y="44" on="0"/>
        <pt x="330" y="44" on="0"/>
      </contour>
      <contour>
        <pt x="114" y="275" on="1"/>
        <pt x="396" y="275" on="1"/>
        <pt x="396" y="374" on="0"/>
        <pt x="331" y="458" on="0"/>
        <pt x="188" y="458" on="0"/>
        <pt x="114" y="371" on="0"/>
      </contour>
    </TTGlyph>
    <TTGlyph name="eacute" xMin="53" yMin="-10" xMax="456" yMax="737">
      <contour>
        <pt x="406" y="50" on="1"/>
        <pt x="436" y="53" on="1"/>
        <pt x="438" y="4" on="1"/>
        <pt x="325" y="-10" on="0"/>
        <pt x="247" y="-10" on="1"/>
        <pt x="139" y="-9" on="0"/>
        <pt x="53" y="117" on="0"/>
        <pt x="53" y="248" on="1"/>
        <pt x="53" y="510" on="0"/>
        <pt x="259" y="510" on="1"/>
        <pt x="358" y="510" on="0"/>
        <pt x="456" y="397" on="0"/>
        <pt x="456" y="273" on="1"/>
        <pt x="454" y="225" on="1"/>
        <pt x="114" y="225" on="1"/>
        <pt x="114" y="133" on="0"/>
        <pt x="177" y="44" on="0"/>
        <pt x="330" y="44" on="0"/>
      </contour>
      <contour>
        <pt x="114" y="275" on="1"/>
        <pt x="396" y="275" on="1"/>
        <pt x="396" y="374" on="0"/>
        <pt x="331" y="458" on="0"/>
        <pt x="188" y="458" on="0"/>
        <pt x="114" y="371" on="0"/>
      </contour>
      <contour>
        <pt x="154" y="640" on="1"/>
        <pt x="361" y="737" on="1"/>
        <pt x="383" y="685" on="1"/>
        <pt x="173" y="598" on="1"/>
      </contour>
    </TTGlyph>
    <TTGlyph name="ebreve" xMin="53" yMin="-10" xMax="456" yMax="725">
      <contour>
        <pt x="406" y="50" on="1"/>
        <pt x="436" y="53" on="1"/>
        <pt x="438" y="4" on="1"/>
        <pt x="325" y="-10" on="0"/>
        <pt x="247" y="-10" on="1"/>
        <pt x="139" y="-9" on="0"/>
        <pt x="53" y="117" on="0"/>
        <pt x="53" y="248" on="1"/>
        <pt x="53" y="510" on="0"/>
        <pt x="259" y="510" on="1"/>
        <pt x="358" y="510" on="0"/>
        <pt x="456" y="397" on="0"/>
        <pt x="456" y="273" on="1"/>
        <pt x="454" y="225" on="1"/>
        <pt x="114" y="225" on="1"/>
        <pt x="114" y="133" on="0"/>
        <pt x="177" y="44" on="0"/>
        <pt x="330" y="44" on="0"/>
      </contour>
      <contour>
        <pt x="114" y="275" on="1"/>
        <pt x="396" y="275" on="1"/>
        <pt x="396" y="374" on="0"/>
        <pt x="331" y="458" on="0"/>
        <pt x="188" y="458" on="0"/>
        <pt x="114" y="371" on="0"/>
      </contour>
      <contour>
        <pt x="212" y="636" on="0"/>
        <pt x="298" y="636" on="0"/>
        <pt x="347" y="686" on="0"/>
        <pt x="348" y="725" on="1"/>
        <pt x="400" y="725" on="1"/>
        <pt x="398" y="666" on="0"/>
        <pt x="319" y="589" on="0"/>
        <pt x="191" y="589" on="0"/>
        <pt x="113" y="666" on="0"/>
        <pt x="111" y="725" on="1"/>
        <pt x="162" y="725" on="1"/>
        <pt x="163" y="685" on="0"/>
      </contour>
    </TTGlyph>
    <TTGlyph name="ecaron" xMin="53" yMin="-10" xMax="456" yMax="732">
      <contour>
        <pt x="406" y="50" on="1"/>
        <pt x="436" y="53" on="1"/>
        <pt x="438" y="4" on="1"/>
        <pt x="325" y="-10" on="0"/>
        <pt x="247" y="-10" on="1"/>
        <pt x="139" y="-9" on="0"/>
        <pt x="53" y="117" on="0"/>
        <pt x="53" y="248" on="1"/>
        <pt x="53" y="510" on="0"/>
        <pt x="259" y="510" on="1"/>
        <pt x="358" y="510" on="0"/>
        <pt x="456" y="397" on="0"/>
        <pt x="456" y="273" on="1"/>
        <pt x="454" y="225" on="1"/>
        <pt x="114" y="225" on="1"/>
        <pt x="114" y="133" on="0"/>
        <pt x="177" y="44" on="0"/>
        <pt x="330" y="44" on="0"/>
      </contour>
      <contour>
        <pt x="114" y="275" on="1"/>
        <pt x="396" y="275" on="1"/>
        <pt x="396" y="374" on="0"/>
        <pt x="331" y="458" on="0"/>
        <pt x="188" y="458" on="0"/>
        <pt x="114" y="371" on="0"/>
      </contour>
      <contour>
        <pt x="230" y="595" on="1"/>
        <pt x="108" y="732" on="1"/>
        <pt x="170" y="732" on="1"/>
        <pt x="252" y="641" on="1"/>
        <pt x="333" y="732" on="1"/>
        <pt x="395" y="732" on="1"/>
        <pt x="272" y="595" on="1"/>
      </contour>
    </TTGlyph>
    <TTGlyph name="ecircumflex" xMin="53" yMin="-10" xMax="456" yMax="732">
      <contour>
        <pt x="406" y="50" on="1"/>
        <pt x="436" y="53" on="1"/>
        <pt x="438" y="4" on="1"/>
        <pt x="325" y="-10" on="0"/>
        <pt x="247" y="-10" on="1"/>
        <pt x="139" y="-9" on="0"/>
        <pt x="53" y="117" on="0"/>
        <pt x="53" y="248" on="1"/>
        <pt x="53" y="510" on="0"/>
        <pt x="259" y="510" on="1"/>
        <pt x="358" y="510" on="0"/>
        <pt x="456" y="397" on="0"/>
        <pt x="456" y="273" on="1"/>
        <pt x="454" y="225" on="1"/>
        <pt x="114" y="225" on="1"/>
        <pt x="114" y="133" on="0"/>
        <pt x="177" y="44" on="0"/>
        <pt x="330" y="44" on="0"/>
      </contour>
      <contour>
        <pt x="114" y="275" on="1"/>
        <pt x="396" y="275" on="1"/>
        <pt x="396" y="374" on="0"/>
        <pt x="331" y="458" on="0"/>
        <pt x="188" y="458" on="0"/>
        <pt x="114" y="371" on="0"/>
      </contour>
      <contour>
        <pt x="118" y="595" on="1"/>
        <pt x="240" y="732" on="1"/>
        <pt x="282" y="732" on="1"/>
        <pt x="405" y="595" on="1"/>
        <pt x="342" y="595" on="1"/>
        <pt x="262" y="687" on="1"/>
        <pt x="181" y="595" on="1"/>
      </contour>
    </TTGlyph>
</ttFont>
